STARTFONT 2.1
COMMENT
COMMENT Converted from OpenType font "xuong_regular.otf" by "otf2bdf 3.0".
COMMENT
FONT -FreeType-Xuong-Bold-R-Normal--66-480-100-100-P-319-ISO10646-1
SIZE 48 100 100
FONTBOUNDINGBOX 71 82 -6 -11
STARTPROPERTIES 19
FOUNDRY "FreeType"
FAMILY_NAME "Xuong"
WEIGHT_NAME "Bold"
SLANT "R"
SETWIDTH_NAME "Normal"
ADD_STYLE_NAME ""
PIXEL_SIZE 66
POINT_SIZE 480
RESOLUTION_X 100
RESOLUTION_Y 100
SPACING "P"
AVERAGE_WIDTH 319
CHARSET_REGISTRY "ISO10646"
CHARSET_ENCODING "1"
FONT_ASCENT 60
FONT_DESCENT 12
COPYRIGHT "-FreeType-Xuong-Bold-R-Normal--66-480-100-100-P-319-ISO10646-1"
_OTF_FONTFILE "xuong_regular.otf"
_OTF_PSNAME "Xuong"
ENDPROPERTIES
CHARS 445
STARTCHAR 0000
ENCODING 0
SWIDTH 0 0
DWIDTH 0 0
BBX 0 0 0 0
BITMAP
ENDCHAR
STARTCHAR 000D
ENCODING 13
SWIDTH 240 0
DWIDTH 16 0
BBX 0 0 0 0
BITMAP
ENDCHAR
STARTCHAR 0020
ENCODING 32
SWIDTH 240 0
DWIDTH 16 0
BBX 0 0 0 0
BITMAP
ENDCHAR
STARTCHAR 0021
ENCODING 33
SWIDTH 165 0
DWIDTH 11 0
BBX 9 47 1 0
BITMAP
3F00
7F80
FF80
FF80
FF80
7F80
7F80
7F80
7F80
7F80
7F80
7F80
7F80
7F80
7F80
7F00
7F00
7F00
7F00
3F00
3F00
3F00
3F00
3F00
3F00
3F00
3F00
3F00
3F00
3E00
3E00
3E00
3E00
1E00
1E00
0000
0000
0000
0000
7F80
7F80
7F80
7F80
7F80
7F80
7F80
7F80
ENDCHAR
STARTCHAR 0022
ENCODING 34
SWIDTH 255 0
DWIDTH 17 0
BBX 17 18 0 29
BITMAP
FF7F80
FF3F80
7F3F80
7F3F80
7E3F80
7E3F80
7E3F00
7E3F00
7E3F00
7E3F00
7E3F00
7E1F00
7E1F00
3E1F00
3E1F00
3C1F00
3C1E00
3C1E00
ENDCHAR
STARTCHAR 0023
ENCODING 35
SWIDTH 720 0
DWIDTH 48 0
BBX 48 47 0 0
BITMAP
00000FE03F80
00000FC03F80
00001FC03F80
00001FC07F00
00001FC07F00
00001F807F00
00003F807E00
00003F80FE00
00003F80FE00
00003F00FE00
00007F00FC00
00007F01FC00
00007F01FC00
0000FE01FC00
07FFFFFFFFFF
0FFFFFFFFFFF
0FFFFFFFFFFF
0FFFFFFFFFFF
0FFFFFFFFFFF
0FFFFFFFFFFF
0001F807F000
0003F807F000
0003F80FE000
0003F80FE000
0003F00FE000
0007F00FE000
0007F01FC000
7FFFFFFFFFF0
FFFFFFFFFFF0
FFFFFFFFFFF0
FFFFFFFFFFF0
FFFFFFFFFFF0
FFFFFFFFFFF0
FFFFFFFFFFE0
001FC07F0000
001FC07F0000
003F807F0000
003F80FE0000
003F80FE0000
003F00FE0000
007F00FE0000
007F01FC0000
007F01FC0000
00FE01FC0000
00FE03FC0000
00FE03F80000
00FE03F80000
ENDCHAR
STARTCHAR 0024
ENCODING 36
SWIDTH 540 0
DWIDTH 36 0
BBX 30 59 3 -6
BITMAP
000FC000
000FC000
000FC000
000FC000
000FC000
000FC000
7FFFFF80
FFFFFFC0
FFFFFFE0
FFFFFFE0
FFFFFFF0
FFFFFFF8
FFFFFFFC
FFFFFFFC
FFFFFFFC
FFFFFFFC
FFFFFFFC
FFC007FC
FFE003FC
FFF00000
FFF80000
FFFC0000
7FFE0000
3FFF0000
1FFF8000
0FFFC000
07FFE000
03FFF000
01FFF800
00FFFC00
007FFE00
003FFF00
001FFF80
000FFFC0
0007FFE0
0003FFF0
0001FFF8
0000FFFC
00007FFC
00003FFC
FF001FFC
FF800FFC
FFC007FC
FFFFFFFC
FFFFFFFC
FFFFFFFC
FFFFFFFC
7FFFFFFC
3FFFFFFC
3FFFFFFC
1FFFFFFC
0FFFFFFC
07FFFFF8
000FC000
000FC000
000FC000
000FC000
000FC000
000FC000
ENDCHAR
STARTCHAR 0025
ENCODING 37
SWIDTH 600 0
DWIDTH 40 0
BBX 35 47 3 0
BITMAP
7FFC007F00
FFFE00FF00
FFFE00FE00
FFFE01FE00
FFFE01FC00
FFFE03FC00
F83E03F800
F83E03F800
F83E07F000
F83E07F000
FFFE0FE000
FFFE0FE000
FFFE1FC000
FFFE1FC000
FFFE3FC000
7FFC3F8000
00007F8000
00007F0000
0000FF0000
0000FE0000
0001FE0000
0001FC0000
0003FC0000
0003F80000
0003F80000
0007F00000
0007F00000
000FE00000
000FE00000
001FC00000
001FC00000
003FC7FFC0
003F8FFFE0
007F9FFFE0
007F1FFFE0
00FF1FFFE0
00FE1FFFE0
01FE1F83E0
01FC1F83E0
03FC1F83E0
03F81F83E0
07F81FFFE0
07F01FFFE0
07F01FFFE0
0FE01FFFE0
0FE00FFFE0
1FE007FFC0
ENDCHAR
STARTCHAR 0026
ENCODING 38
SWIDTH 690 0
DWIDTH 46 0
BBX 43 47 3 0
BITMAP
007FFFE00000
00FFFFF00000
01FFFFF80000
03FFFFFC0000
03FFFFFC0000
07FFFFFE0000
0FFFFFFF0000
0FFFFFFF0000
1FFFFFFF8000
1FFFFFFF8000
1FFFFFFF8000
1FFC01FF8000
1FF801FF8000
1FF801FF8000
1FF803FF8000
1FF807FF8000
1FF80FFF8000
1FFFFFFF0000
3FFFFFFE0000
7FFFFFFE0000
FFFFFFFC0000
FFFFFFF80000
FFFFFFF80000
FFFFFFF80600
FFE00FF80F00
FFC00FFC3F80
FF800FFC7FC0
FF800FFEFFC0
FF8007FFFFE0
FF8003FFFFE0
FF8003FFFFE0
FF8001FFFFE0
FF8000FFFF80
FF8001FFFF00
FF8003FFFE00
FFC00FFFF800
FFE01FFFF800
FFFFFFFFFC00
FFFFFFFFFC00
FFFFFFFFFE00
FFFFFFFFFF00
7FFFFFFFFF80
3FFFFFFBFF80
3FFFFFE1FFC0
1FFFFFC0FFE0
0FFFFF80FFC0
07FFFF007FC0
ENDCHAR
STARTCHAR 0027
ENCODING 39
SWIDTH 120 0
DWIDTH 8 0
BBX 8 18 0 29
BITMAP
FF
FF
7F
7F
7E
7E
7E
7E
7E
7E
7E
7E
7E
3E
3E
3C
3C
3C
ENDCHAR
STARTCHAR 0028
ENCODING 40
SWIDTH 210 0
DWIDTH 14 0
BBX 12 52 2 -3
BITMAP
03F0
03F0
07F0
07E0
0FE0
1FC0
1FC0
3F80
3F80
7F00
7E00
FE00
FC00
FC00
FC00
FC00
FC00
FC00
FC00
FC00
FC00
FC00
FC00
FC00
FC00
FC00
FC00
FC00
FC00
FC00
FC00
FC00
FC00
FC00
FC00
FC00
FC00
FC00
FC00
FE00
FE00
7F00
7F80
3F80
3FC0
1FC0
0FE0
0FE0
07F0
07F0
03F0
01F0
ENDCHAR
STARTCHAR 0029
ENCODING 41
SWIDTH 210 0
DWIDTH 14 0
BBX 13 52 0 -3
BITMAP
FC00
FE00
7F00
7F00
3F80
3F80
1FC0
1FC0
0FE0
07F0
07F0
03F8
03F8
03F8
03F8
03F8
03F8
03F8
03F8
03F8
03F8
03F8
03F8
03F8
03F8
03F8
03F8
03F8
03F8
03F8
03F8
03F8
03F8
03F8
03F8
03F8
03F8
03F8
03F8
03F8
07F8
07F0
0FE0
0FE0
1FC0
3FC0
3F80
7F00
7F00
FE00
FE00
FC00
ENDCHAR
STARTCHAR 002A
ENCODING 42
SWIDTH 390 0
DWIDTH 26 0
BBX 23 24 2 23
BITMAP
00FE00
00FE00
00FE00
00FE10
38FE38
7EFEF8
7FFFFC
FFFFFC
FFFFFE
FFFFFC
3FFFF8
0FFFE0
0FFFE0
3FFFF0
FFFFFC
FFFFFE
FFFFFC
7FFFFC
7EFEF8
38FE78
00FE10
00FE00
00FE00
00FE00
ENDCHAR
STARTCHAR 002B
ENCODING 43
SWIDTH 420 0
DWIDTH 28 0
BBX 26 26 1 10
BITMAP
003F8000
003F8000
003F8000
003F8000
003F8000
003F8000
003F8000
003F8000
003F8000
FFFFFFC0
FFFFFFC0
FFFFFFC0
FFFFFFC0
FFFFFFC0
FFFFFFC0
FFFFFFC0
003F8000
003F8000
003F8000
003F8000
003F8000
003F8000
003F8000
003F8000
003F8000
003F8000
ENDCHAR
STARTCHAR 002C
ENCODING 44
SWIDTH 195 0
DWIDTH 13 0
BBX 11 15 -1 -6
BITMAP
0FC0
0FE0
0FE0
0FE0
0FE0
0FE0
0FE0
0FE0
0FE0
1FC0
3F80
3F80
7F00
FF00
FE00
ENDCHAR
STARTCHAR 002D
ENCODING 45
SWIDTH 420 0
DWIDTH 28 0
BBX 26 7 1 23
BITMAP
FFFFFFC0
FFFFFFC0
FFFFFFC0
FFFFFFC0
FFFFFFC0
FFFFFFC0
FFFFFFC0
ENDCHAR
STARTCHAR 002E
ENCODING 46
SWIDTH 150 0
DWIDTH 10 0
BBX 8 8 1 0
BITMAP
FF
FF
FF
FF
FF
FF
FF
FF
ENDCHAR
STARTCHAR 002F
ENCODING 47
SWIDTH 255 0
DWIDTH 17 0
BBX 21 53 -2 -3
BITMAP
0003F8
0003F8
0003F8
0007F0
0007F0
0007F0
0007E0
000FE0
000FE0
000FE0
000FC0
001FC0
001FC0
001FC0
001F80
003F80
003F80
003F80
007F00
007F00
007F00
007F00
00FE00
00FE00
00FE00
00FC00
01FC00
01FC00
01FC00
01F800
03F800
03F800
03F800
07F000
07F000
07F000
07F000
0FE000
0FE000
0FE000
0FE000
1FC000
1FC000
1FC000
1FC000
3F8000
3F8000
3F8000
7F0000
7F0000
7F0000
7F0000
FE0000
ENDCHAR
STARTCHAR 0030
ENCODING 48
SWIDTH 570 0
DWIDTH 38 0
BBX 33 47 3 0
BITMAP
07FFFFF000
0FFFFFF800
1FFFFFF800
1FFFFFFC00
3FFFFFFE00
7FFFFFFE00
7FFFFFFF00
FFFFFFFF80
FFFFFFFF80
FFFFFFFF80
FFFFFFFF80
FFE003FF80
FFC003FF80
FFC001FF80
FFC001FF80
FFC001FF80
FFC001FF80
FFC001FF80
FFC001FF80
FFC001FF80
FFC001FF80
FFC001FF80
FFC001FF80
FFC001FF80
FFC001FF80
FFC001FF80
FFC001FF80
FFC001FF80
FFC001FF80
FFC001FF80
FFC001FF80
FFC001FF80
FFC001FF80
FFC001FF80
FFC001FF80
FFE003FF80
FFF007FF80
FFFFFFFF80
FFFFFFFF80
FFFFFFFF80
FFFFFFFF00
7FFFFFFF00
3FFFFFFE00
3FFFFFFC00
1FFFFFF800
0FFFFFF800
07FFFFF000
ENDCHAR
STARTCHAR 0031
ENCODING 49
SWIDTH 390 0
DWIDTH 26 0
BBX 21 47 3 0
BITMAP
001FF0
007FF0
00FFF8
01FFF8
03FFF8
0FFFF8
1FFFF8
3FFFF8
7FFFF8
FFFFF8
FFFFF8
FFFFF8
FFFFF8
FFFFF8
FFDFF8
FF9FF8
FF1FF8
FE1FF8
F81FF8
F01FF8
001FF8
001FF8
001FF8
001FF8
001FF8
001FF8
001FF8
001FF8
001FF8
001FF8
001FF8
001FF8
001FF8
001FF8
001FF8
001FF8
001FF8
001FF8
001FF8
001FF8
001FF8
001FF8
001FF8
001FF8
001FF8
001FF8
001FF8
ENDCHAR
STARTCHAR 0032
ENCODING 50
SWIDTH 540 0
DWIDTH 36 0
BBX 31 47 3 0
BITMAP
07FFFFF8
0FFFFFFC
1FFFFFFE
1FFFFFFE
3FFFFFFE
7FFFFFFE
7FFFFFFE
FFFFFFFE
FFFFFFFE
FFFFFFFE
FFFFFFFE
FFF007FE
FFE007FE
FFE007FE
00000FFE
00000FFE
00001FFE
00003FFE
00007FFE
0000FFFC
0001FFF8
0003FFF0
0007FFE0
000FFFC0
001FFF80
003FFF00
007FFE00
00FFFE00
01FFFC00
03FFF800
07FFF000
07FFE000
0FFFC000
1FFF8000
3FFF0000
7FFE0000
FFFC0000
FFFFFFFC
FFFFFFFE
FFFFFFFE
FFFFFFFE
FFFFFFFE
FFFFFFFE
FFFFFFFE
FFFFFFFE
FFFFFFFE
FFFFFFFE
ENDCHAR
STARTCHAR 0033
ENCODING 51
SWIDTH 525 0
DWIDTH 35 0
BBX 29 47 3 0
BITMAP
FFFFFFF0
FFFFFFF8
FFFFFFF8
FFFFFFF8
7FFFFFF8
7FFFFFF8
3FFFFFF8
1FFFFFF8
1FFFFFF8
0FFFFFF8
07FFFFF8
00001FF8
00001FF8
00001FF8
00001FF8
00001FF8
00001FF8
00001FF8
03FFFFF8
03FFFFF8
03FFFFF8
03FFFFF8
03FFFFF8
03FFFFF8
03FFFFF8
03FFFFF8
03FFFFF8
03FFFFF8
03FFFFF8
00001FF8
00001FF8
00001FF8
00001FF8
00001FF8
00001FF8
00001FF8
00001FF8
07FFFFF8
0FFFFFF8
1FFFFFF8
1FFFFFF8
3FFFFFF8
7FFFFFF8
7FFFFFF8
FFFFFFF8
FFFFFFF8
FFFFFFF0
ENDCHAR
STARTCHAR 0034
ENCODING 52
SWIDTH 570 0
DWIDTH 38 0
BBX 33 47 3 0
BITMAP
0003FFC000
0003FFE000
0007FFF000
000FFFF000
000FFFF000
001FFFF000
001FFFF000
003FFFF000
007FFFF000
007FFFF000
00FFFFF000
00FFFFF000
01FFFFF000
03FFFFF000
03FFFFF000
07FFFFF000
07FFFFF000
0FFF7FF000
1FFE7FF000
1FFE7FF000
3FFC7FF000
7FF87FF000
7FF87FF000
FFF07FF000
FFF07FF000
FFE07FF000
FFE07FF000
FFE07FF000
FFFFFFFF00
FFFFFFFF00
FFFFFFFF80
FFFFFFFF80
FFFFFFFF80
FFFFFFFF80
FFFFFFFF80
FFFFFFFF80
FFFFFFFF80
7FFFFFFF80
00007FF000
00007FF000
00007FF000
00007FF000
00007FF000
00007FF000
00007FF000
00007FF000
00007FF000
ENDCHAR
STARTCHAR 0035
ENCODING 53
SWIDTH 510 0
DWIDTH 34 0
BBX 29 47 3 0
BITMAP
7FFFFFF8
FFFFFFF8
FFFFFFF8
FFFFFFF8
FFFFFFF0
FFFFFFE0
FFFFFFE0
FFFFFFC0
FFFFFF80
FFFFFF00
FFFFFF00
FFC00000
FFC00000
FFC00000
FFC00000
FFC00000
FFC00000
FFC00000
FFFFFFF0
FFFFFFF0
FFFFFFF8
FFFFFFF8
FFFFFFF8
FFFFFFF8
FFFFFFF8
FFFFFFF8
FFFFFFF8
7FFFFFF8
00001FF8
00001FF8
00001FF8
00001FF8
00001FF8
00001FF8
00001FF8
00001FF8
00001FF8
0FFFFFF8
0FFFFFF8
1FFFFFF8
3FFFFFF8
3FFFFFF8
7FFFFFF8
FFFFFFF8
FFFFFFF8
FFFFFFF0
FFFFFFF0
ENDCHAR
STARTCHAR 0036
ENCODING 54
SWIDTH 540 0
DWIDTH 36 0
BBX 31 47 3 0
BITMAP
7FFFFF80
FFFFFFC0
FFFFFFE0
FFFFFFE0
FFFFFFF0
FFFFFFF8
FFFFFFFC
FFFFFFFC
FFFFFFFE
FFFFFFFE
FFFFFFFE
FFC00FFE
FFC007FE
FFC003FE
FFC003FE
FFC00000
FFC00000
FFC00000
FFC00000
FFC00000
FFC00000
FFFFFFF8
FFFFFFFC
FFFFFFFE
FFFFFFFE
FFFFFFFE
FFFFFFFE
FFFFFFFE
FFFFFFFE
FFFFFFFE
FFE01FFE
FFE00FFE
FFC00FFE
FFC00FFE
FFC00FFE
FFE01FFE
FFF01FFE
FFFFFFFE
FFFFFFFE
FFFFFFFE
FFFFFFFE
FFFFFFFE
FFFFFFFE
FFFFFFFE
FFFFFFFE
FFFFFFFC
7FFFFFF8
ENDCHAR
STARTCHAR 0037
ENCODING 55
SWIDTH 480 0
DWIDTH 32 0
BBX 28 47 1 0
BITMAP
FFFFFFE0
FFFFFFF0
FFFFFFF0
FFFFFFF0
7FFFFFF0
3FFFFFF0
3FFFFFF0
1FFFFFF0
0FFFFFF0
0FFFFFF0
07FFFFF0
0000FFF0
0000FFF0
0000FFF0
0001FFE0
0001FFE0
0001FFE0
0003FFC0
0003FFC0
0003FFC0
0007FF80
0007FF80
0007FF80
000FFF00
000FFF00
000FFF00
001FFE00
001FFE00
001FFE00
003FFC00
003FFC00
003FFC00
003FFC00
007FF800
007FF800
007FF800
00FFF000
00FFF000
00FFF000
01FFE000
01FFE000
01FFE000
01FFC000
01FFC000
01FFC000
01FF8000
01FF8000
ENDCHAR
STARTCHAR 0038
ENCODING 56
SWIDTH 570 0
DWIDTH 38 0
BBX 33 47 3 0
BITMAP
07FFFFF000
0FFFFFF800
1FFFFFF800
1FFFFFFC00
3FFFFFFE00
7FFFFFFF00
7FFFFFFF00
FFFFFFFF80
FFFFFFFF80
FFFFFFFF80
FFFFFFFF80
FFF007FF80
FFE003FF80
FFC001FF80
FFC001FF80
FFC001FF80
FFC001FF80
FFC001FF80
FFE003FF80
FFF007FF80
FFF80FFF80
7FFFFFFF00
3FFFFFFE00
1FFFFFFC00
3FFFFFFE00
7FFFFFFF00
FFF80FFF80
FFF007FF80
FFE003FF80
FFC001FF80
FFC001FF80
FFC001FF80
FFC001FF80
FFC001FF80
FFE003FF80
FFF007FF80
FFF80FFF80
FFFFFFFF80
FFFFFFFF80
FFFFFFFF80
FFFFFFFF80
7FFFFFFF00
3FFFFFFE00
3FFFFFFC00
1FFFFFFC00
0FFFFFF800
07FFFFF000
ENDCHAR
STARTCHAR 0039
ENCODING 57
SWIDTH 540 0
DWIDTH 36 0
BBX 31 47 3 0
BITMAP
7FFFFFF8
FFFFFFFC
FFFFFFFC
FFFFFFFE
FFFFFFFE
FFFFFFFE
FFFFFFFE
FFFFFFFE
FFFFFFFE
FFFFFFFE
FFFFFFFE
FFE01FFE
FFC00FFE
FFC00FFE
FFC00FFE
FFC00FFE
FFE01FFE
FFFFFFFE
FFFFFFFE
FFFFFFFE
FFFFFFFE
FFFFFFFE
FFFFFFFE
FFFFFFFE
FFFFFFFE
7FFFFFFE
00000FFE
00000FFE
00000FFE
00000FFE
00000FFE
00000FFE
00000FFE
FF000FFE
FF800FFE
FFC00FFE
FFE00FFE
FFFFFFFE
FFFFFFFE
FFFFFFFE
FFFFFFFE
7FFFFFFE
3FFFFFFE
3FFFFFFE
1FFFFFFE
0FFFFFFC
07FFFFF8
ENDCHAR
STARTCHAR 003A
ENCODING 58
SWIDTH 150 0
DWIDTH 10 0
BBX 8 33 1 0
BITMAP
FF
FF
FF
FF
FF
FF
FF
FF
00
00
00
00
00
00
00
00
00
00
00
00
00
00
00
00
00
FF
FF
FF
FF
FF
FF
FF
FF
ENDCHAR
STARTCHAR 003B
ENCODING 59
SWIDTH 165 0
DWIDTH 11 0
BBX 12 39 -2 -6
BITMAP
0FF0
0FF0
0FF0
0FF0
0FF0
0FF0
0FF0
0FF0
0000
0000
0000
0000
0000
0000
0000
0000
0000
0000
0000
0000
0000
0000
0000
0000
07E0
07E0
07F0
07F0
07F0
07F0
07F0
07F0
0FE0
1FE0
1FC0
3F80
7F80
7F00
FE00
ENDCHAR
STARTCHAR 003C
ENCODING 60
SWIDTH 390 0
DWIDTH 26 0
BBX 24 36 1 8
BITMAP
000003
00000F
00001F
00007F
0001FF
0007FF
001FFF
007FFF
01FFFF
07FFFC
0FFFF0
3FFFC0
FFFF00
FFFC00
FFF000
FFC000
FF0000
FE0000
FE0000
FF0000
FFC000
FFF000
FFFC00
FFFF00
3FFFC0
0FFFF0
03FFFC
00FFFF
003FFF
000FFF
0007FF
0001FF
00007F
00001F
000007
000001
ENDCHAR
STARTCHAR 003D
ENCODING 61
SWIDTH 420 0
DWIDTH 28 0
BBX 26 17 1 14
BITMAP
FFFFFFC0
FFFFFFC0
FFFFFFC0
FFFFFFC0
FFFFFFC0
FFFFFFC0
FFFFFFC0
00000000
00000000
00000000
FFFFFFC0
FFFFFFC0
FFFFFFC0
FFFFFFC0
FFFFFFC0
FFFFFFC0
FFFFFFC0
ENDCHAR
STARTCHAR 003E
ENCODING 62
SWIDTH 390 0
DWIDTH 26 0
BBX 24 36 1 8
BITMAP
C00000
F00000
FC0000
FF0000
FFC000
FFE000
FFF800
FFFE00
FFFF80
3FFFE0
0FFFF8
03FFFE
00FFFF
003FFF
000FFF
0003FF
0000FF
00007F
00007F
0000FF
0003FF
000FFF
003FFF
00FFFF
03FFFC
0FFFF0
3FFFC0
FFFF00
FFFE00
FFF800
FFE000
FF8000
FE0000
F80000
E00000
C00000
ENDCHAR
STARTCHAR 003F
ENCODING 63
SWIDTH 525 0
DWIDTH 35 0
BBX 30 47 3 0
BITMAP
07FFFFF8
0FFFFFF8
1FFFFFFC
1FFFFFFC
3FFFFFFC
7FFFFFFC
7FFFFFFC
FFFFFFFC
FFFFFFFC
FFFFFFFC
FFFFFFFC
FFC01FFC
FF801FFC
FF801FFC
00001FFC
00003FF8
00003FF0
00007FF0
0000FFE0
0000FFC0
0001FFC0
0003FF80
0003FF00
0007FF00
0007FE00
000FFC00
001FFC00
001FFC00
001FFC00
001FFC00
001FFC00
001FFC00
001FFC00
001FFC00
00000000
00000000
00000000
00000000
00000000
001FFC00
001FFC00
001FFC00
001FFC00
001FFC00
001FFC00
001FFC00
001FFC00
ENDCHAR
STARTCHAR 0040
ENCODING 64
SWIDTH 795 0
DWIDTH 53 0
BBX 47 54 3 -7
BITMAP
7FFFFFFFFFFC
FFFFFFFFFFFE
FFFFFFFFFFFE
FFFFFFFFFFFE
FFFFFFFFFFFE
FFFFFFFFFFFE
FFFFFFFFFFFE
FFFFFFFFFFFE
FE00000000FE
FE00000000FE
FE00000000FE
FE003FFC00FE
FE007FFE00FE
FE00FFFE00FE
FE00FFFE00FE
FE00FFFE00FE
FE00FFFE00FE
FE00FFFF00FE
FE01FC3F00FE
FE01F83F00FE
FE01F83F00FE
FE01F83F00FE
FE01F83F80FE
FE03F83F80FE
FE03F81F80FE
FE03F01F80FE
FE03F01F80FE
FE03F01FC0FE
FE07F01FC0FE
FE07F01FC0FE
FE07F01FC0FE
FE07F81FC0FE
FE07FFFFE0FE
FE0FFFFFE0FE
FE0FFFFFE0FE
FE0FFFFFE0FE
FE0FEFEFFFFE
FE0FE007FFFE
FE1FE007FFFE
FE1FC007FFFE
FE1FC007FFFE
FE1FC007FFFE
FE1FC007FFFE
FE3FC003FFFC
FE0000000000
FE0000000000
FE0000000000
FFFFFFF80000
FFFFFFF80000
FFFFFFFC0000
FFFFFFFC0000
FFFFFFFC0000
FFFFFFFC0000
7FFFFFFC0000
ENDCHAR
STARTCHAR 0041
ENCODING 65
SWIDTH 585 0
DWIDTH 39 0
BBX 37 47 1 0
BITMAP
003FFFE000
007FFFF000
007FFFF000
00FFFFF800
00FFFFF800
00FFFFF800
00FFFFF800
00FFFFFC00
01FFFFFC00
01FFFFFC00
01FFFFFC00
01FE03FC00
01FE03FE00
03FE03FE00
03FE03FE00
03FE03FE00
03FE03FE00
03FE03FF00
07FC01FF00
07FC01FF00
07FC01FF00
07FC01FF00
07FC01FF80
0FFC01FF80
0FF800FF80
0FF800FF80
0FF800FF80
0FF800FFC0
1FF800FFC0
1FFC01FFC0
1FFFFFFFC0
1FFFFFFFC0
1FFFFFFFE0
3FFFFFFFE0
3FFFFFFFE0
3FFFFFFFE0
3FF7FF7FE0
3FF3FE7FF0
7FE0003FF0
7FE0003FF0
7FE0003FF0
7FE0003FF0
7FE0003FF8
FFE0003FF8
FFC0001FF8
FFC0001FF8
FFC0001FF8
ENDCHAR
STARTCHAR 0042
ENCODING 66
SWIDTH 570 0
DWIDTH 38 0
BBX 33 47 3 0
BITMAP
FFFFFFF000
FFFFFFF800
FFFFFFF800
FFFFFFFC00
FFFFFFFE00
FFFFFFFE00
FFFFFFFF00
FFFFFFFF80
FFFFFFFF80
FFC007FF80
FFC003FF80
FFC001FF80
FFC001FF80
FFC001FF80
FFC001FF80
FFC001FF80
FFC001FF80
FFC003FF80
FFC003FF80
FFFFFFFF80
FFFFFFFF00
FFFFFFFE00
FFFFFFFC00
FFFFFFFC00
FFFFFFFE00
FFFFFFFF00
FFFFFFFF80
FFFFFFFF80
FFC007FF80
FFC003FF80
FFC001FF80
FFC001FF80
FFC001FF80
FFC001FF80
FFC001FF80
FFC001FF80
FFC003FF80
FFC007FF80
FFFFFFFF80
FFFFFFFF80
FFFFFFFF00
FFFFFFFF00
FFFFFFFE00
FFFFFFFC00
FFFFFFF800
FFFFFFF800
FFFFFFF000
ENDCHAR
STARTCHAR 0043
ENCODING 67
SWIDTH 540 0
DWIDTH 36 0
BBX 31 47 3 0
BITMAP
FFFFFFC0
FFFFFFC0
FFFFFFE0
FFFFFFF0
FFFFFFF0
FFFFFFF8
FFFFFFFC
FFFFFFFE
FFFFFFFE
FFFFFFFE
FFFFFFFE
FFC00FFE
FFC007FE
FFC00000
FFC00000
FFC00000
FFC00000
FFC00000
FFC00000
FFC00000
FFC00000
FFC00000
FFC00000
FFC00000
FFC00000
FFC00000
FFC00000
FFC00000
FFC00000
FFC00000
FFC00000
FFC00000
FFC00000
FFC00000
FFC007FE
FFC00FFE
FFC01FFE
FFFFFFFE
FFFFFFFE
FFFFFFFE
FFFFFFFC
FFFFFFF8
FFFFFFF8
FFFFFFF0
FFFFFFE0
FFFFFFE0
FFFFFFC0
ENDCHAR
STARTCHAR 0044
ENCODING 68
SWIDTH 570 0
DWIDTH 38 0
BBX 33 47 3 0
BITMAP
FFFFFFF000
FFFFFFF800
FFFFFFF800
FFFFFFFC00
FFFFFFFE00
FFFFFFFE00
FFFFFFFF00
FFFFFFFF80
FFFFFFFF80
FFFFFFFF80
FFFFFFFF80
FFC003FF80
FFC003FF80
FFC001FF80
FFC001FF80
FFC001FF80
FFC001FF80
FFC001FF80
FFC001FF80
FFC001FF80
FFC001FF80
FFC001FF80
FFC001FF80
FFC001FF80
FFC001FF80
FFC001FF80
FFC001FF80
FFC001FF80
FFC001FF80
FFC001FF80
FFC001FF80
FFC001FF80
FFC001FF80
FFC001FF80
FFC001FF80
FFC003FF80
FFC007FF80
FFFFFFFF80
FFFFFFFF80
FFFFFFFF80
FFFFFFFF00
FFFFFFFF00
FFFFFFFE00
FFFFFFFC00
FFFFFFF800
FFFFFFF800
FFFFFFF000
ENDCHAR
STARTCHAR 0045
ENCODING 69
SWIDTH 540 0
DWIDTH 36 0
BBX 31 47 3 0
BITMAP
FFFFFF80
FFFFFFC0
FFFFFFE0
FFFFFFF0
FFFFFFF0
FFFFFFF8
FFFFFFFC
FFFFFFFC
FFFFFFFE
FFFFFFFE
FFFFFFFE
FFC007FE
FFC003FE
FFC00000
FFC00000
FFC00000
FFC00000
FFC00000
FFC00000
FFC00000
FFFFFE00
FFFFFE00
FFFFFE00
FFFFFE00
FFFFFE00
FFFFFE00
FFFFFE00
FFFFFE00
FFC00000
FFC00000
FFC00000
FFC00000
FFC00000
FFC00000
FFC003FE
FFC003FE
FFC007FE
FFFFFFFE
FFFFFFFE
FFFFFFFE
FFFFFFFC
FFFFFFF8
FFFFFFF0
FFFFFFF0
FFFFFFE0
FFFFFFC0
FFFFFFC0
ENDCHAR
STARTCHAR 0046
ENCODING 70
SWIDTH 510 0
DWIDTH 34 0
BBX 29 47 3 0
BITMAP
FFFFFF80
FFFFFF80
FFFFFFC0
FFFFFFC0
FFFFFFE0
FFFFFFE0
FFFFFFF0
FFFFFFF0
FFFFFFF8
FFFFFFF8
FFFFFFF8
FFC00FF8
FFC007F8
FFC00000
FFC00000
FFC00000
FFC00000
FFC00000
FFC00000
FFC00000
FFC00000
FFFFFF80
FFFFFF80
FFFFFF80
FFFFFF80
FFFFFF80
FFFFFF80
FFFFFF80
FFFFFF80
FFFFFF80
FFC00000
FFC00000
FFC00000
FFC00000
FFC00000
FFC00000
FFC00000
FFC00000
FFC00000
FFC00000
FFC00000
FFC00000
FFC00000
FFC00000
FFC00000
FFC00000
FFC00000
ENDCHAR
STARTCHAR 0047
ENCODING 71
SWIDTH 555 0
DWIDTH 37 0
BBX 31 47 3 0
BITMAP
FFFFFFC0
FFFFFFE0
FFFFFFF0
FFFFFFF0
FFFFFFF8
FFFFFFFC
FFFFFFFC
FFFFFFFE
FFFFFFFE
FFFFFFFE
FFFFFFFE
FFC003FE
FFC003FE
FFC00000
FFC00000
FFC00000
FFC00000
FFC00000
FFC00000
FFC00000
FFC1FFFE
FFC1FFFE
FFC1FFFE
FFC1FFFE
FFC1FFFE
FFC1FFFE
FFC1FFFE
FFC1FFFE
FFC1FFFE
FFC1FFFE
FFC1FFFE
FFC007FE
FFC007FE
FFC007FE
FFC007FE
FFC007FE
FFC007FE
FFFFFFFE
FFFFFFFE
FFFFFFFE
FFFFFFFE
FFFFFFFE
FFFFFFFE
FFFFFFFE
FFFFFFFE
FFFFFF7E
FFFFFE3E
ENDCHAR
STARTCHAR 0048
ENCODING 72
SWIDTH 570 0
DWIDTH 38 0
BBX 33 47 3 0
BITMAP
FFC001FF80
FFC001FF80
FFC001FF80
FFC001FF80
FFC001FF80
FFC001FF80
FFC001FF80
FFC001FF80
FFC001FF80
FFC001FF80
FFC001FF80
FFC001FF80
FFC001FF80
FFC001FF80
FFC001FF80
FFC001FF80
FFE003FF80
FFF007FF80
FFFFFFFF80
FFFFFFFF80
FFFFFFFF80
FFFFFFFF80
FFFFFFFF80
FFFFFFFF80
FFFFFFFF80
FFFFFFFF80
FFFFFFFF80
FFFFFFFF80
FFE007FF80
FFE003FF80
FFC001FF80
FFC001FF80
FFC001FF80
FFC001FF80
FFC001FF80
FFC001FF80
FFC001FF80
FFC001FF80
FFC001FF80
FFC001FF80
FFC001FF80
FFC001FF80
FFC001FF80
FFC001FF80
FFC001FF80
FFC001FF80
FFC001FF80
ENDCHAR
STARTCHAR 0049
ENCODING 73
SWIDTH 225 0
DWIDTH 15 0
BBX 10 47 3 0
BITMAP
FFC0
FFC0
FFC0
FFC0
FFC0
FFC0
FFC0
FFC0
FFC0
FFC0
FFC0
FFC0
FFC0
FFC0
FFC0
FFC0
FFC0
FFC0
FFC0
FFC0
FFC0
FFC0
FFC0
FFC0
FFC0
FFC0
FFC0
FFC0
FFC0
FFC0
FFC0
FFC0
FFC0
FFC0
FFC0
FFC0
FFC0
FFC0
FFC0
FFC0
FFC0
FFC0
FFC0
FFC0
FFC0
FFC0
FFC0
ENDCHAR
STARTCHAR 004A
ENCODING 74
SWIDTH 510 0
DWIDTH 34 0
BBX 28 47 3 0
BITMAP
07FFFFF0
07FFFFF0
07FFFFF0
07FFFFF0
07FFFFF0
07FFFFF0
07FFFFF0
07FFFFF0
07FFFFF0
07FFFFF0
07FFFFF0
00003FF0
00003FF0
00003FF0
00003FF0
00003FF0
00003FF0
00003FF0
00003FF0
00003FF0
00003FF0
00003FF0
00003FF0
00003FF0
00003FF0
00003FF0
00003FF0
00003FF0
00003FF0
00003FF0
00003FF0
00003FF0
00003FF0
00003FF0
FFC03FF0
FFE03FF0
FFF03FF0
FFFFFFF0
FFFFFFF0
FFFFFFF0
FFFFFFF0
7FFFFFF0
3FFFFFF0
3FFFFFF0
1FFFFFF0
0FFFFFF0
07FFFFF0
ENDCHAR
STARTCHAR 004B
ENCODING 75
SWIDTH 570 0
DWIDTH 38 0
BBX 33 47 3 0
BITMAP
FFC003FF80
FFC003FF80
FFC007FF80
FFC00FFF80
FFC00FFF80
FFC01FFF80
FFC03FFF00
FFC07FFE00
FFC07FFE00
FFC0FFFC00
FFC1FFF800
FFC1FFF000
FFC3FFF000
FFC7FFE000
FFC7FFC000
FFCFFF8000
FFDFFF8000
FFDFFF0000
FFFFFE0000
FFFFFE0000
FFFFFC0000
FFFFF80000
FFFFF00000
FFFFF00000
FFFFF00000
FFFFF80000
FFFFF80000
FFFFFC0000
FFFFFE0000
FFDFFF0000
FFDFFF0000
FFCFFF8000
FFC7FFC000
FFC7FFE000
FFC3FFE000
FFC1FFF000
FFC1FFF800
FFC0FFF800
FFC07FFC00
FFC03FFE00
FFC03FFF00
FFC01FFF00
FFC00FFF80
FFC00FFF80
FFC007FF80
FFC003FF80
FFC003FF80
ENDCHAR
STARTCHAR 004C
ENCODING 76
SWIDTH 405 0
DWIDTH 27 0
BBX 25 47 3 0
BITMAP
FFC00000
FFC00000
FFC00000
FFC00000
FFC00000
FFC00000
FFC00000
FFC00000
FFC00000
FFC00000
FFC00000
FFC00000
FFC00000
FFC00000
FFC00000
FFC00000
FFC00000
FFC00000
FFC00000
FFC00000
FFC00000
FFC00000
FFC00000
FFC00000
FFC00000
FFC00000
FFC00000
FFC00000
FFC00000
FFC00000
FFC00000
FFC00000
FFC00000
FFC00000
FFC00000
FFE00000
FFF00000
FFFFFF80
FFFFFF80
FFFFFF80
FFFFFF00
FFFFFE00
FFFFFE00
FFFFFC00
FFFFF800
FFFFF000
FFFFF000
ENDCHAR
STARTCHAR 004D
ENCODING 77
SWIDTH 690 0
DWIDTH 46 0
BBX 41 47 3 0
BITMAP
07FF00FFE000
0FFF00FFF000
1FFF00FFF800
1FFF80FFFC00
3FFF80FFFC00
7FFF81FFFE00
7FFF81FFFF00
FFFF81FFFF00
FFFF81FFFF80
FFFFC1FFFF80
FFFFC1FFFF80
FFFFC3FFFF80
FFFFC3FFFF80
FFFFC3FFFF80
FFFFC3FFFF80
FFCFC3FBFF80
FFCFE3F3FF80
FFCFE3F3FF80
FFCFE7F3FF80
FFCFE7F3FF80
FFCFE7F3FF80
FFC7E7F3FF80
FFC7F7F3FF80
FFC7F7E3FF80
FFC7F7E3FF80
FFC7FFE3FF80
FFC7FFE3FF80
FFC3FFE3FF80
FFC3FFE3FF80
FFC3FFE3FF80
FFC3FFC3FF80
FFC3FFC3FF80
FFC3FFC3FF80
FFC3FFC3FF80
FFC1FF83FF80
FFC0FF83FF80
FFC00003FF80
FFC00003FF80
FFC00003FF80
FFC00003FF80
FFC00003FF80
FFC00003FF80
FFC00003FF80
FFC00003FF80
FFC00003FF80
FFC00003FF80
FFC00003FF80
ENDCHAR
STARTCHAR 004E
ENCODING 78
SWIDTH 570 0
DWIDTH 38 0
BBX 32 47 3 0
BITMAP
07C003FF
0FE003FF
1FE003FF
1FE003FF
3FF003FF
7FF003FF
7FF803FF
FFF803FF
FFFC03FF
FFFC03FF
FFFE03FF
FFFE03FF
FFFE03FF
FFFF03FF
FFFF03FF
FFFF83FF
FFFF83FF
FFFFC3FF
FFFFC3FF
FFFFE3FF
FFFFE3FF
FFFFF3FF
FFFFF3FF
FFFFF3FF
FFCFFFFF
FFCFFFFF
FFC7FFFF
FFC7FFFF
FFC3FFFF
FFC3FFFF
FFC1FFFF
FFC1FFFF
FFC0FFFF
FFC0FFFF
FFC07FFF
FFC07FFF
FFC07FFF
FFC03FFF
FFC03FFF
FFC01FFF
FFC01FFF
FFC00FFE
FFC00FFC
FFC007FC
FFC007F8
FFC007F0
FFC003F0
ENDCHAR
STARTCHAR 004F
ENCODING 79
SWIDTH 615 0
DWIDTH 41 0
BBX 36 47 3 0
BITMAP
07FFFFFC00
0FFFFFFE00
1FFFFFFF00
1FFFFFFF80
3FFFFFFF80
7FFFFFFFC0
7FFFFFFFE0
FFFFFFFFE0
FFFFFFFFF0
FFFFFFFFF0
FFFFFFFFF0
FFE000FFF0
FFC0007FF0
FFC0007FF0
FFC0007FF0
FFC0007FF0
FFC0007FF0
FFC0007FF0
FFC0007FF0
FFC0007FF0
FFC0007FF0
FFC0007FF0
FFC0007FF0
FFC0007FF0
FFC0007FF0
FFC0007FF0
FFC0007FF0
FFC0007FF0
FFC0007FF0
FFC0007FF0
FFC0007FF0
FFC0007FF0
FFC0007FF0
FFC0007FF0
FFC0007FF0
FFE000FFF0
FFF000FFF0
FFFFFFFFF0
FFFFFFFFF0
FFFFFFFFF0
FFFFFFFFE0
7FFFFFFFC0
3FFFFFFFC0
3FFFFFFF80
1FFFFFFF00
0FFFFFFE00
07FFFFFE00
ENDCHAR
STARTCHAR 0050
ENCODING 80
SWIDTH 540 0
DWIDTH 36 0
BBX 30 47 3 0
BITMAP
FFFFFF80
FFFFFFC0
FFFFFFE0
FFFFFFE0
FFFFFFF0
FFFFFFF8
FFFFFFFC
FFFFFFFC
FFFFFFFC
FFFFFFFC
FFFFFFFC
FFC01FFC
FFC00FFC
FFC00FFC
FFC00FFC
FFC00FFC
FFC00FFC
FFC00FFC
FFC00FFC
FFC00FFC
FFC01FFC
FFFFFFFC
FFFFFFFC
FFFFFFFC
FFFFFFFC
FFFFFFFC
FFFFFFF8
FFFFFFF0
FFFFFFE0
FFFFFFE0
FFFFFFC0
FFFFFF80
FFC00000
FFC00000
FFC00000
FFC00000
FFC00000
FFC00000
FFC00000
FFC00000
FFC00000
FFC00000
FFC00000
FFC00000
FFC00000
FFC00000
FFC00000
ENDCHAR
STARTCHAR 0051
ENCODING 81
SWIDTH 645 0
DWIDTH 43 0
BBX 40 48 3 -1
BITMAP
07FFFFFC00
0FFFFFFE00
1FFFFFFF00
1FFFFFFF80
3FFFFFFF80
7FFFFFFFC0
7FFFFFFFE0
FFFFFFFFE0
FFFFFFFFF0
FFFFFFFFF0
FFFFFFFFF0
FFE000FFF0
FFC0007FF0
FFC0007FF0
FFC0007FF0
FFC0007FF0
FFC0007FF0
FFC0007FF0
FFC0007FF0
FFC0007FF0
FFC0007FF0
FFC0007FF0
FFC0007FF0
FFC0007FF0
FFC0007FF0
FFC0007FF0
FFC0007FF0
FFC0007FF0
FFC0007FF0
FFC0007FF0
FFC0007FF0
FFC0007FF0
FFC0007FF0
FFC0007FF0
FFC0007FF0
FFE000FFF0
FFF000FFFC
FFFFFFFFFF
FFFFFFFFFF
FFFFFFFFFF
FFFFFFFFFF
7FFFFFFFFF
3FFFFFFFFF
3FFFFFFFFE
1FFFFFFFFC
0FFFFFFEFC
07FFFFFE78
0000000010
ENDCHAR
STARTCHAR 0052
ENCODING 82
SWIDTH 540 0
DWIDTH 36 0
BBX 32 47 3 0
BITMAP
FFFFFF80
FFFFFFC0
FFFFFFE0
FFFFFFE0
FFFFFFF0
FFFFFFF8
FFFFFFF8
FFFFFFFC
FFFFFFFC
FFFFFFFC
FFFFFFFC
FFC01FFC
FFC00FFC
FFC00FFC
FFC00FFC
FFC00FFC
FFC00FFC
FFC00FFC
FFC01FFC
FFFFFFFC
FFFFFFF8
FFFFFFF8
FFFFFFF0
FFFFFFE0
FFFFFFE0
FFFFFFC0
FFFFFF80
FFFFFF80
FFFFFFC0
FFC1FFC0
FFC0FFE0
FFC0FFE0
FFC0FFF0
FFC07FF0
FFC07FF8
FFC07FF8
FFC03FF8
FFC03FFC
FFC03FFC
FFC01FFE
FFC01FFE
FFC01FFF
FFC00FFF
FFC00FFF
FFC007FF
FFC007FF
FFC007FF
ENDCHAR
STARTCHAR 0053
ENCODING 83
SWIDTH 540 0
DWIDTH 36 0
BBX 30 47 3 0
BITMAP
7FFFFF80
FFFFFFC0
FFFFFFE0
FFFFFFE0
FFFFFFF0
FFFFFFF8
FFFFFFFC
FFFFFFFC
FFFFFFFC
FFFFFFFC
FFFFFFFC
FFC007FC
FFE003FC
FFF00000
FFF80000
FFFC0000
7FFE0000
3FFF0000
1FFF8000
0FFFC000
07FFE000
03FFF000
01FFF800
00FFFC00
007FFE00
003FFF00
001FFF80
000FFFC0
0007FFE0
0003FFF0
0001FFF8
0000FFFC
00007FFC
00003FFC
FF001FFC
FF800FFC
FFC007FC
FFFFFFFC
FFFFFFFC
FFFFFFFC
FFFFFFFC
7FFFFFFC
3FFFFFFC
3FFFFFFC
1FFFFFFC
0FFFFFFC
07FFFFF8
ENDCHAR
STARTCHAR 0054
ENCODING 84
SWIDTH 525 0
DWIDTH 35 0
BBX 35 47 0 0
BITMAP
07FFFFFC00
0FFFFFFE00
0FFFFFFF00
1FFFFFFF00
3FFFFFFF80
3FFFFFFFC0
7FFFFFFFC0
FFFFFFFFE0
FFFFFFFFE0
FFE7FEFFE0
FFC7FE7FE0
FF87FE1FE0
FE07FE0FE0
FC07FE07E0
0007FE0000
0007FE0000
0007FE0000
0007FE0000
0007FE0000
0007FE0000
0007FE0000
0007FE0000
0007FE0000
0007FE0000
0007FE0000
0007FE0000
0007FE0000
0007FE0000
0007FE0000
0007FE0000
0007FE0000
0007FE0000
0007FE0000
0007FE0000
0007FE0000
0007FE0000
0007FE0000
0007FE0000
0007FE0000
0007FE0000
0007FE0000
0007FE0000
0007FE0000
0007FE0000
0007FE0000
0007FE0000
0007FE0000
ENDCHAR
STARTCHAR 0055
ENCODING 85
SWIDTH 600 0
DWIDTH 40 0
BBX 35 47 3 0
BITMAP
FFC0007FE0
FFC0007FE0
FFC0007FE0
FFC0007FE0
FFC0007FE0
FFC0007FE0
FFC0007FE0
FFC0007FE0
FFC0007FE0
FFC0007FE0
FFC0007FE0
FFC0007FE0
FFC0007FE0
FFC0007FE0
FFC0007FE0
FFC0007FE0
FFC0007FE0
FFC0007FE0
FFC0007FE0
FFC0007FE0
FFC0007FE0
FFC0007FE0
FFC0007FE0
FFC0007FE0
FFC0007FE0
FFC0007FE0
FFC0007FE0
FFC0007FE0
FFC0007FE0
FFC0007FE0
FFC0007FE0
FFC0007FE0
FFC0007FE0
FFC0007FE0
FFC0007FE0
FFE000FFE0
FFF001FFE0
FFFFFFFFE0
FFFFFFFFE0
FFFFFFFFE0
FFFFFFFFE0
7FFFFFFFC0
3FFFFFFF80
3FFFFFFF00
1FFFFFFF00
0FFFFFFE00
07FFFFFC00
ENDCHAR
STARTCHAR 0056
ENCODING 86
SWIDTH 570 0
DWIDTH 38 0
BBX 38 47 0 0
BITMAP
FFE0000FFC
7FE0000FFC
7FE0001FFC
7FE0001FF8
7FE0001FF8
7FE0001FF8
3FF0001FF8
3FF0001FF8
3FF0003FF0
3FF0003FF0
3FF0003FF0
1FF0003FF0
1FF8003FF0
1FF8003FE0
1FF8003FE0
1FF8007FE0
0FF8007FE0
0FF8007FE0
0FF8007FC0
0FFC007FC0
0FFC007FC0
07FC00FFC0
07FC00FFC0
07FC00FF80
07FC00FF80
07FE00FF80
03FE00FF80
03FE01FF80
03FE01FF00
03FE01FF00
03FE01FF00
01FE01FF00
01FF01FF00
01FF01FE00
01FF03FE00
01FF03FE00
00FF03FE00
00FFFFFE00
00FFFFFC00
00FFFFFC00
00FFFFFC00
007FFFFC00
007FFFFC00
007FFFF800
007FFFF800
003FFFF800
003FFFF000
ENDCHAR
STARTCHAR 0057
ENCODING 87
SWIDTH 870 0
DWIDTH 58 0
BBX 53 47 3 0
BITMAP
FFC00000001FF8
FFC00000001FF8
FFC00000003FF8
FFE00000003FF8
FFE00000003FF8
FFE00000003FF8
FFE00000003FF8
FFE00000003FF8
FFF00000007FF8
7FF00000007FF0
7FF00000007FF0
7FF00000007FF0
7FF00000007FF0
7FF00000007FF0
3FF803FE00FFE0
3FF807FF00FFE0
3FF807FF00FFE0
3FF80FFF80FFE0
3FF80FFF80FFE0
1FFC0FFF81FFC0
1FFC0FFFC1FFC0
1FFC1FFFC1FFC0
1FFC1FFFC1FFC0
1FFC1FFFC1FFC0
0FFC1FDFE1FF80
0FFE3FDFE3FF80
0FFE3FCFE3FF80
0FFE3FCFE3FF80
07FE3F8FF3FF80
07FE7F8FF3FF00
07FFFF8FFFFF00
07FFFF87FFFF00
07FFFF87FFFF00
03FFFF07FFFF00
03FFFF07FFFE00
03FFFF07FFFE00
03FFFF03FFFE00
03FFFF03FFFE00
01FFFE03FFFE00
01FFFE03FFFC00
01FFFE03FFFC00
01FFFE01FFFC00
00FFFC01FFFC00
00FFFC01FFFC00
00FFFC01FFF800
00FFFC01FFF800
00FFFC00FFF800
ENDCHAR
STARTCHAR 0058
ENCODING 88
SWIDTH 615 0
DWIDTH 41 0
BBX 35 47 3 0
BITMAP
FFC0007FE0
FFC0007FE0
FFE000FFE0
FFE000FFE0
FFE000FFE0
FFF001FFE0
FFF001FFE0
7FF803FFC0
7FF803FFC0
3FF807FF80
3FFC07FF80
1FFC07FF00
1FFE0FFF00
0FFE0FFE00
0FFF1FFE00
07FF1FFC00
07FF3FFC00
03FFBFF800
03FFBFF800
01FFFFF000
01FFFFF000
00FFFFE000
00FFFFE000
01FFFFF000
01FFFFF000
01FFFFF000
03FFFFF800
03FFFFF800
07FFFFFC00
07FFBFFC00
0FFF3FFE00
0FFF1FFE00
0FFF1FFE00
1FFE0FFF00
1FFE0FFF00
3FFC0FFF80
3FFC07FF80
7FFC07FFC0
7FF803FFC0
7FF803FFC0
FFF001FFE0
FFF001FFE0
FFF001FFE0
FFE000FFE0
FFE000FFE0
FFC0007FE0
FFC0007FE0
ENDCHAR
STARTCHAR 0059
ENCODING 89
SWIDTH 465 0
DWIDTH 31 0
BBX 31 47 0 0
BITMAP
FFC003FE
FFC007FE
FFC007FE
FFE007FE
FFE00FFE
FFE00FFE
7FF00FFE
7FF01FFC
3FF81FFC
3FF81FF8
1FF83FF8
1FFC3FF0
1FFC3FF0
0FFC7FF0
0FFE7FE0
07FE7FE0
07FEFFC0
03FFFFC0
03FFFF80
01FFFF80
01FFFF00
01FFFF00
00FFFF00
00FFFE00
007FFE00
007FFC00
003FFC00
003FF800
001FF800
001FF800
001FF800
001FF800
001FF800
001FF800
001FF800
001FF800
001FF800
001FF800
001FF800
001FF800
001FF800
001FF800
001FF800
001FF800
001FF800
001FF800
001FF800
ENDCHAR
STARTCHAR 005A
ENCODING 90
SWIDTH 555 0
DWIDTH 37 0
BBX 32 47 3 0
BITMAP
FFFFFFE0
FFFFFFF0
FFFFFFF0
FFFFFFF8
FFFFFFFC
FFFFFFFE
FFFFFFFE
FFFFFFFF
FFFFFFFF
FFFFFFFE
7FFFFFFE
00007FFC
0000FFF8
0000FFF8
0001FFF0
0003FFF0
0003FFE0
0007FFC0
0007FFC0
000FFF80
001FFF00
001FFF00
003FFE00
007FFE00
007FFC00
00FFF800
00FFF800
01FFF000
03FFF000
03FFE000
07FFC000
07FFC000
0FFF8000
1FFF0000
1FFF0000
3FFE0000
3FFE0000
7FFFFFFE
FFFFFFFF
FFFFFFFF
FFFFFFFF
7FFFFFFF
3FFFFFFF
3FFFFFFF
1FFFFFFF
0FFFFFFF
07FFFFFF
ENDCHAR
STARTCHAR 005B
ENCODING 91
SWIDTH 240 0
DWIDTH 16 0
BBX 14 52 1 -3
BITMAP
FFFC
FFFC
FFFC
FFFC
FFFC
FFF8
FE00
FE00
FE00
FE00
FE00
FE00
FE00
FE00
FE00
FE00
FE00
FE00
FE00
FE00
FE00
FE00
FE00
FE00
FE00
FE00
FE00
FE00
FE00
FE00
FE00
FE00
FE00
FE00
FE00
FE00
FE00
FE00
FE00
FE00
FE00
FE00
FE00
FE00
FE00
FE00
FFF8
FFFC
FFFC
FFFC
FFFC
FFFC
ENDCHAR
STARTCHAR 005C
ENCODING 92
SWIDTH 255 0
DWIDTH 17 0
BBX 21 53 -2 -3
BITMAP
FE0000
7E0000
7F0000
7F0000
7F0000
3F0000
3F8000
3F8000
3F8000
1F8000
1FC000
1FC000
1FC000
0FE000
0FE000
0FE000
0FE000
07F000
07F000
07F000
03F000
03F800
03F800
03F800
01F800
01FC00
01FC00
01FC00
00FE00
00FE00
00FE00
00FE00
007F00
007F00
007F00
007F00
003F80
003F80
003F80
003F80
001FC0
001FC0
001FC0
000FE0
000FE0
000FE0
000FE0
0007F0
0007F0
0007F0
0007F0
0003F8
0003F8
ENDCHAR
STARTCHAR 005D
ENCODING 93
SWIDTH 240 0
DWIDTH 16 0
BBX 14 52 1 -3
BITMAP
FFFC
FFFC
FFFC
FFFC
7FFC
7FFC
01FC
01FC
01FC
01FC
01FC
01FC
01FC
01FC
01FC
01FC
01FC
01FC
01FC
01FC
01FC
01FC
01FC
01FC
01FC
01FC
01FC
01FC
01FC
01FC
01FC
01FC
01FC
01FC
01FC
01FC
01FC
01FC
01FC
01FC
01FC
01FC
01FC
01FC
01FC
01FC
7FFC
7FFC
FFFC
FFFC
FFFC
FFFC
ENDCHAR
STARTCHAR 005E
ENCODING 94
SWIDTH 585 0
DWIDTH 39 0
BBX 36 24 2 23
BITMAP
000FFE0000
001FFF0000
001FFF0000
003FFF8000
003FFF8000
007FFFC000
007FFFE000
00FF1FE000
00FF1FF000
01FE0FF000
01FE0FF800
03FC07F800
07FC07FC00
07F803FC00
0FF803FE00
0FF001FE00
1FF001FF00
1FE000FF00
3FE000FF80
3FC0007F80
7FC0007FC0
7F80003FE0
FF80003FE0
FF00001FF0
ENDCHAR
STARTCHAR 005F
ENCODING 95
SWIDTH 420 0
DWIDTH 28 0
BBX 26 7 1 0
BITMAP
FFFFFFC0
FFFFFFC0
FFFFFFC0
FFFFFFC0
FFFFFFC0
FFFFFFC0
FFFFFFC0
ENDCHAR
STARTCHAR 0060
ENCODING 96
SWIDTH 390 0
DWIDTH 26 0
BBX 24 7 1 49
BITMAP
FF0000
FFF800
FFFFC0
FFFFFE
3FFFFF
01FFFF
00000F
ENDCHAR
STARTCHAR 0061
ENCODING 97
SWIDTH 585 0
DWIDTH 39 0
BBX 37 47 1 0
BITMAP
003FFFE000
007FFFF000
007FFFF000
00FFFFF800
00FFFFF800
00FFFFF800
00FFFFF800
00FFFFFC00
01FFFFFC00
01FFFFFC00
01FFFFFC00
01FE03FC00
01FE03FE00
03FE03FE00
03FE03FE00
03FE03FE00
03FE03FE00
03FE03FF00
07FC01FF00
07FC01FF00
07FC01FF00
07FC01FF00
07FC01FF80
0FFC01FF80
0FF800FF80
0FF800FF80
0FF800FF80
0FF800FFC0
1FF800FFC0
1FFC01FFC0
1FFFFFFFC0
1FFFFFFFC0
1FFFFFFFE0
3FFFFFFFE0
3FFFFFFFE0
3FFFFFFFE0
3FF7FF7FE0
3FF3FE7FF0
7FE0003FF0
7FE0003FF0
7FE0003FF0
7FE0003FF0
7FE0003FF8
FFE0003FF8
FFC0001FF8
FFC0001FF8
FFC0001FF8
ENDCHAR
STARTCHAR 0062
ENCODING 98
SWIDTH 570 0
DWIDTH 38 0
BBX 33 47 3 0
BITMAP
FFFFFFF000
FFFFFFF800
FFFFFFF800
FFFFFFFC00
FFFFFFFE00
FFFFFFFE00
FFFFFFFF00
FFFFFFFF80
FFFFFFFF80
FFC007FF80
FFC003FF80
FFC001FF80
FFC001FF80
FFC001FF80
FFC001FF80
FFC001FF80
FFC001FF80
FFC003FF80
FFC003FF80
FFFFFFFF80
FFFFFFFF00
FFFFFFFE00
FFFFFFFC00
FFFFFFFC00
FFFFFFFE00
FFFFFFFF00
FFFFFFFF80
FFFFFFFF80
FFC007FF80
FFC003FF80
FFC001FF80
FFC001FF80
FFC001FF80
FFC001FF80
FFC001FF80
FFC001FF80
FFC003FF80
FFC007FF80
FFFFFFFF80
FFFFFFFF80
FFFFFFFF00
FFFFFFFF00
FFFFFFFE00
FFFFFFFC00
FFFFFFF800
FFFFFFF800
FFFFFFF000
ENDCHAR
STARTCHAR 0063
ENCODING 99
SWIDTH 540 0
DWIDTH 36 0
BBX 31 47 3 0
BITMAP
FFFFFFC0
FFFFFFC0
FFFFFFE0
FFFFFFF0
FFFFFFF0
FFFFFFF8
FFFFFFFC
FFFFFFFE
FFFFFFFE
FFFFFFFE
FFFFFFFE
FFC00FFE
FFC007FE
FFC00000
FFC00000
FFC00000
FFC00000
FFC00000
FFC00000
FFC00000
FFC00000
FFC00000
FFC00000
FFC00000
FFC00000
FFC00000
FFC00000
FFC00000
FFC00000
FFC00000
FFC00000
FFC00000
FFC00000
FFC00000
FFC007FE
FFC00FFE
FFC01FFE
FFFFFFFE
FFFFFFFE
FFFFFFFE
FFFFFFFC
FFFFFFF8
FFFFFFF8
FFFFFFF0
FFFFFFE0
FFFFFFE0
FFFFFFC0
ENDCHAR
STARTCHAR 0064
ENCODING 100
SWIDTH 570 0
DWIDTH 38 0
BBX 33 47 3 0
BITMAP
FFFFFFF000
FFFFFFF800
FFFFFFF800
FFFFFFFC00
FFFFFFFE00
FFFFFFFE00
FFFFFFFF00
FFFFFFFF80
FFFFFFFF80
FFFFFFFF80
FFFFFFFF80
FFC003FF80
FFC003FF80
FFC001FF80
FFC001FF80
FFC001FF80
FFC001FF80
FFC001FF80
FFC001FF80
FFC001FF80
FFC001FF80
FFC001FF80
FFC001FF80
FFC001FF80
FFC001FF80
FFC001FF80
FFC001FF80
FFC001FF80
FFC001FF80
FFC001FF80
FFC001FF80
FFC001FF80
FFC001FF80
FFC001FF80
FFC001FF80
FFC003FF80
FFC007FF80
FFFFFFFF80
FFFFFFFF80
FFFFFFFF80
FFFFFFFF00
FFFFFFFF00
FFFFFFFE00
FFFFFFFC00
FFFFFFF800
FFFFFFF800
FFFFFFF000
ENDCHAR
STARTCHAR 0065
ENCODING 101
SWIDTH 540 0
DWIDTH 36 0
BBX 31 47 3 0
BITMAP
FFFFFF80
FFFFFFC0
FFFFFFE0
FFFFFFF0
FFFFFFF0
FFFFFFF8
FFFFFFFC
FFFFFFFC
FFFFFFFE
FFFFFFFE
FFFFFFFE
FFC007FE
FFC003FE
FFC00000
FFC00000
FFC00000
FFC00000
FFC00000
FFC00000
FFC00000
FFFFFE00
FFFFFE00
FFFFFE00
FFFFFE00
FFFFFE00
FFFFFE00
FFFFFE00
FFFFFE00
FFC00000
FFC00000
FFC00000
FFC00000
FFC00000
FFC00000
FFC003FE
FFC003FE
FFC007FE
FFFFFFFE
FFFFFFFE
FFFFFFFE
FFFFFFFC
FFFFFFF8
FFFFFFF0
FFFFFFF0
FFFFFFE0
FFFFFFC0
FFFFFFC0
ENDCHAR
STARTCHAR 0066
ENCODING 102
SWIDTH 510 0
DWIDTH 34 0
BBX 29 47 3 0
BITMAP
FFFFFF80
FFFFFF80
FFFFFFC0
FFFFFFC0
FFFFFFE0
FFFFFFE0
FFFFFFF0
FFFFFFF0
FFFFFFF8
FFFFFFF8
FFFFFFF8
FFC00FF8
FFC007F8
FFC00000
FFC00000
FFC00000
FFC00000
FFC00000
FFC00000
FFC00000
FFC00000
FFFFFF80
FFFFFF80
FFFFFF80
FFFFFF80
FFFFFF80
FFFFFF80
FFFFFF80
FFFFFF80
FFFFFF80
FFC00000
FFC00000
FFC00000
FFC00000
FFC00000
FFC00000
FFC00000
FFC00000
FFC00000
FFC00000
FFC00000
FFC00000
FFC00000
FFC00000
FFC00000
FFC00000
FFC00000
ENDCHAR
STARTCHAR 0067
ENCODING 103
SWIDTH 555 0
DWIDTH 37 0
BBX 31 47 3 0
BITMAP
FFFFFFC0
FFFFFFE0
FFFFFFF0
FFFFFFF0
FFFFFFF8
FFFFFFFC
FFFFFFFC
FFFFFFFE
FFFFFFFE
FFFFFFFE
FFFFFFFE
FFC003FE
FFC003FE
FFC00000
FFC00000
FFC00000
FFC00000
FFC00000
FFC00000
FFC00000
FFC1FFFE
FFC1FFFE
FFC1FFFE
FFC1FFFE
FFC1FFFE
FFC1FFFE
FFC1FFFE
FFC1FFFE
FFC1FFFE
FFC1FFFE
FFC1FFFE
FFC007FE
FFC007FE
FFC007FE
FFC007FE
FFC007FE
FFC007FE
FFFFFFFE
FFFFFFFE
FFFFFFFE
FFFFFFFE
FFFFFFFE
FFFFFFFE
FFFFFFFE
FFFFFFFE
FFFFFF7E
FFFFFE3E
ENDCHAR
STARTCHAR 0068
ENCODING 104
SWIDTH 570 0
DWIDTH 38 0
BBX 33 47 3 0
BITMAP
FFC001FF80
FFC001FF80
FFC001FF80
FFC001FF80
FFC001FF80
FFC001FF80
FFC001FF80
FFC001FF80
FFC001FF80
FFC001FF80
FFC001FF80
FFC001FF80
FFC001FF80
FFC001FF80
FFC001FF80
FFC001FF80
FFE003FF80
FFF007FF80
FFFFFFFF80
FFFFFFFF80
FFFFFFFF80
FFFFFFFF80
FFFFFFFF80
FFFFFFFF80
FFFFFFFF80
FFFFFFFF80
FFFFFFFF80
FFFFFFFF80
FFE007FF80
FFE003FF80
FFC001FF80
FFC001FF80
FFC001FF80
FFC001FF80
FFC001FF80
FFC001FF80
FFC001FF80
FFC001FF80
FFC001FF80
FFC001FF80
FFC001FF80
FFC001FF80
FFC001FF80
FFC001FF80
FFC001FF80
FFC001FF80
FFC001FF80
ENDCHAR
STARTCHAR 0069
ENCODING 105
SWIDTH 225 0
DWIDTH 15 0
BBX 10 47 3 0
BITMAP
FFC0
FFC0
FFC0
FFC0
FFC0
FFC0
FFC0
FFC0
FFC0
FFC0
FFC0
FFC0
FFC0
FFC0
FFC0
FFC0
FFC0
FFC0
FFC0
FFC0
FFC0
FFC0
FFC0
FFC0
FFC0
FFC0
FFC0
FFC0
FFC0
FFC0
FFC0
FFC0
FFC0
FFC0
FFC0
FFC0
FFC0
FFC0
FFC0
FFC0
FFC0
FFC0
FFC0
FFC0
FFC0
FFC0
FFC0
ENDCHAR
STARTCHAR 006A
ENCODING 106
SWIDTH 510 0
DWIDTH 34 0
BBX 28 47 3 0
BITMAP
07FFFFF0
07FFFFF0
07FFFFF0
07FFFFF0
07FFFFF0
07FFFFF0
07FFFFF0
07FFFFF0
07FFFFF0
07FFFFF0
07FFFFF0
00003FF0
00003FF0
00003FF0
00003FF0
00003FF0
00003FF0
00003FF0
00003FF0
00003FF0
00003FF0
00003FF0
00003FF0
00003FF0
00003FF0
00003FF0
00003FF0
00003FF0
00003FF0
00003FF0
00003FF0
00003FF0
00003FF0
00003FF0
FFC03FF0
FFE03FF0
FFF03FF0
FFFFFFF0
FFFFFFF0
FFFFFFF0
FFFFFFF0
7FFFFFF0
3FFFFFF0
3FFFFFF0
1FFFFFF0
0FFFFFF0
07FFFFF0
ENDCHAR
STARTCHAR 006B
ENCODING 107
SWIDTH 570 0
DWIDTH 38 0
BBX 33 47 3 0
BITMAP
FFC003FF80
FFC003FF80
FFC007FF80
FFC00FFF80
FFC00FFF80
FFC01FFF80
FFC03FFF00
FFC07FFE00
FFC07FFE00
FFC0FFFC00
FFC1FFF800
FFC1FFF000
FFC3FFF000
FFC7FFE000
FFC7FFC000
FFCFFF8000
FFDFFF8000
FFDFFF0000
FFFFFE0000
FFFFFE0000
FFFFFC0000
FFFFF80000
FFFFF00000
FFFFF00000
FFFFF00000
FFFFF80000
FFFFF80000
FFFFFC0000
FFFFFE0000
FFDFFF0000
FFDFFF0000
FFCFFF8000
FFC7FFC000
FFC7FFE000
FFC3FFE000
FFC1FFF000
FFC1FFF800
FFC0FFF800
FFC07FFC00
FFC03FFE00
FFC03FFF00
FFC01FFF00
FFC00FFF80
FFC00FFF80
FFC007FF80
FFC003FF80
FFC003FF80
ENDCHAR
STARTCHAR 006C
ENCODING 108
SWIDTH 405 0
DWIDTH 27 0
BBX 25 47 3 0
BITMAP
FFC00000
FFC00000
FFC00000
FFC00000
FFC00000
FFC00000
FFC00000
FFC00000
FFC00000
FFC00000
FFC00000
FFC00000
FFC00000
FFC00000
FFC00000
FFC00000
FFC00000
FFC00000
FFC00000
FFC00000
FFC00000
FFC00000
FFC00000
FFC00000
FFC00000
FFC00000
FFC00000
FFC00000
FFC00000
FFC00000
FFC00000
FFC00000
FFC00000
FFC00000
FFC00000
FFE00000
FFF00000
FFFFFF80
FFFFFF80
FFFFFF80
FFFFFF00
FFFFFE00
FFFFFE00
FFFFFC00
FFFFF800
FFFFF000
FFFFF000
ENDCHAR
STARTCHAR 006D
ENCODING 109
SWIDTH 690 0
DWIDTH 46 0
BBX 41 47 3 0
BITMAP
07FF00FFE000
0FFF00FFF000
1FFF00FFF800
1FFF80FFFC00
3FFF80FFFC00
7FFF81FFFE00
7FFF81FFFF00
FFFF81FFFF00
FFFF81FFFF80
FFFFC1FFFF80
FFFFC1FFFF80
FFFFC3FFFF80
FFFFC3FFFF80
FFFFC3FFFF80
FFFFC3FFFF80
FFCFC3FBFF80
FFCFE3F3FF80
FFCFE3F3FF80
FFCFE7F3FF80
FFCFE7F3FF80
FFCFE7F3FF80
FFC7E7F3FF80
FFC7F7F3FF80
FFC7F7E3FF80
FFC7F7E3FF80
FFC7FFE3FF80
FFC7FFE3FF80
FFC3FFE3FF80
FFC3FFE3FF80
FFC3FFE3FF80
FFC3FFC3FF80
FFC3FFC3FF80
FFC3FFC3FF80
FFC3FFC3FF80
FFC1FF83FF80
FFC0FF83FF80
FFC00003FF80
FFC00003FF80
FFC00003FF80
FFC00003FF80
FFC00003FF80
FFC00003FF80
FFC00003FF80
FFC00003FF80
FFC00003FF80
FFC00003FF80
FFC00003FF80
ENDCHAR
STARTCHAR 006E
ENCODING 110
SWIDTH 570 0
DWIDTH 38 0
BBX 32 47 3 0
BITMAP
07C003FF
0FE003FF
1FE003FF
1FE003FF
3FF003FF
7FF003FF
7FF803FF
FFF803FF
FFFC03FF
FFFC03FF
FFFE03FF
FFFE03FF
FFFE03FF
FFFF03FF
FFFF03FF
FFFF83FF
FFFF83FF
FFFFC3FF
FFFFC3FF
FFFFE3FF
FFFFE3FF
FFFFF3FF
FFFFF3FF
FFFFF3FF
FFCFFFFF
FFCFFFFF
FFC7FFFF
FFC7FFFF
FFC3FFFF
FFC3FFFF
FFC1FFFF
FFC1FFFF
FFC0FFFF
FFC0FFFF
FFC07FFF
FFC07FFF
FFC07FFF
FFC03FFF
FFC03FFF
FFC01FFF
FFC01FFF
FFC00FFE
FFC00FFC
FFC007FC
FFC007F8
FFC007F0
FFC003F0
ENDCHAR
STARTCHAR 006F
ENCODING 111
SWIDTH 615 0
DWIDTH 41 0
BBX 36 47 3 0
BITMAP
07FFFFFC00
0FFFFFFE00
1FFFFFFF00
1FFFFFFF80
3FFFFFFF80
7FFFFFFFC0
7FFFFFFFE0
FFFFFFFFE0
FFFFFFFFF0
FFFFFFFFF0
FFFFFFFFF0
FFE000FFF0
FFC0007FF0
FFC0007FF0
FFC0007FF0
FFC0007FF0
FFC0007FF0
FFC0007FF0
FFC0007FF0
FFC0007FF0
FFC0007FF0
FFC0007FF0
FFC0007FF0
FFC0007FF0
FFC0007FF0
FFC0007FF0
FFC0007FF0
FFC0007FF0
FFC0007FF0
FFC0007FF0
FFC0007FF0
FFC0007FF0
FFC0007FF0
FFC0007FF0
FFC0007FF0
FFE000FFF0
FFF000FFF0
FFFFFFFFF0
FFFFFFFFF0
FFFFFFFFF0
FFFFFFFFE0
7FFFFFFFC0
3FFFFFFFC0
3FFFFFFF80
1FFFFFFF00
0FFFFFFE00
07FFFFFE00
ENDCHAR
STARTCHAR 0070
ENCODING 112
SWIDTH 540 0
DWIDTH 36 0
BBX 30 47 3 0
BITMAP
FFFFFF80
FFFFFFC0
FFFFFFE0
FFFFFFE0
FFFFFFF0
FFFFFFF8
FFFFFFFC
FFFFFFFC
FFFFFFFC
FFFFFFFC
FFFFFFFC
FFC01FFC
FFC00FFC
FFC00FFC
FFC00FFC
FFC00FFC
FFC00FFC
FFC00FFC
FFC00FFC
FFC00FFC
FFC01FFC
FFFFFFFC
FFFFFFFC
FFFFFFFC
FFFFFFFC
FFFFFFFC
FFFFFFF8
FFFFFFF0
FFFFFFE0
FFFFFFE0
FFFFFFC0
FFFFFF80
FFC00000
FFC00000
FFC00000
FFC00000
FFC00000
FFC00000
FFC00000
FFC00000
FFC00000
FFC00000
FFC00000
FFC00000
FFC00000
FFC00000
FFC00000
ENDCHAR
STARTCHAR 0071
ENCODING 113
SWIDTH 645 0
DWIDTH 43 0
BBX 40 48 3 -1
BITMAP
07FFFFFC00
0FFFFFFE00
1FFFFFFF00
1FFFFFFF80
3FFFFFFF80
7FFFFFFFC0
7FFFFFFFE0
FFFFFFFFE0
FFFFFFFFF0
FFFFFFFFF0
FFFFFFFFF0
FFE000FFF0
FFC0007FF0
FFC0007FF0
FFC0007FF0
FFC0007FF0
FFC0007FF0
FFC0007FF0
FFC0007FF0
FFC0007FF0
FFC0007FF0
FFC0007FF0
FFC0007FF0
FFC0007FF0
FFC0007FF0
FFC0007FF0
FFC0007FF0
FFC0007FF0
FFC0007FF0
FFC0007FF0
FFC0007FF0
FFC0007FF0
FFC0007FF0
FFC0007FF0
FFC0007FF0
FFE000FFF0
FFF000FFFC
FFFFFFFFFF
FFFFFFFFFF
FFFFFFFFFF
FFFFFFFFFF
7FFFFFFFFF
3FFFFFFFFF
3FFFFFFFFE
1FFFFFFFFC
0FFFFFFEFC
07FFFFFE78
0000000010
ENDCHAR
STARTCHAR 0072
ENCODING 114
SWIDTH 540 0
DWIDTH 36 0
BBX 32 47 3 0
BITMAP
FFFFFF80
FFFFFFC0
FFFFFFE0
FFFFFFE0
FFFFFFF0
FFFFFFF8
FFFFFFF8
FFFFFFFC
FFFFFFFC
FFFFFFFC
FFFFFFFC
FFC01FFC
FFC00FFC
FFC00FFC
FFC00FFC
FFC00FFC
FFC00FFC
FFC00FFC
FFC01FFC
FFFFFFFC
FFFFFFF8
FFFFFFF8
FFFFFFF0
FFFFFFE0
FFFFFFE0
FFFFFFC0
FFFFFF80
FFFFFF80
FFFFFFC0
FFC1FFC0
FFC0FFE0
FFC0FFE0
FFC0FFF0
FFC07FF0
FFC07FF8
FFC07FF8
FFC03FF8
FFC03FFC
FFC03FFC
FFC01FFE
FFC01FFE
FFC01FFF
FFC00FFF
FFC00FFF
FFC007FF
FFC007FF
FFC007FF
ENDCHAR
STARTCHAR 0073
ENCODING 115
SWIDTH 540 0
DWIDTH 36 0
BBX 30 47 3 0
BITMAP
7FFFFF80
FFFFFFC0
FFFFFFE0
FFFFFFE0
FFFFFFF0
FFFFFFF8
FFFFFFFC
FFFFFFFC
FFFFFFFC
FFFFFFFC
FFFFFFFC
FFC007FC
FFE003FC
FFF00000
FFF80000
FFFC0000
7FFE0000
3FFF0000
1FFF8000
0FFFC000
07FFE000
03FFF000
01FFF800
00FFFC00
007FFE00
003FFF00
001FFF80
000FFFC0
0007FFE0
0003FFF0
0001FFF8
0000FFFC
00007FFC
00003FFC
FF001FFC
FF800FFC
FFC007FC
FFFFFFFC
FFFFFFFC
FFFFFFFC
FFFFFFFC
7FFFFFFC
3FFFFFFC
3FFFFFFC
1FFFFFFC
0FFFFFFC
07FFFFF8
ENDCHAR
STARTCHAR 0074
ENCODING 116
SWIDTH 525 0
DWIDTH 35 0
BBX 35 47 0 0
BITMAP
07FFFFFC00
0FFFFFFE00
0FFFFFFF00
1FFFFFFF00
3FFFFFFF80
3FFFFFFFC0
7FFFFFFFC0
FFFFFFFFE0
FFFFFFFFE0
FFE7FEFFE0
FFC7FE7FE0
FF87FE1FE0
FE07FE0FE0
FC07FE07E0
0007FE0000
0007FE0000
0007FE0000
0007FE0000
0007FE0000
0007FE0000
0007FE0000
0007FE0000
0007FE0000
0007FE0000
0007FE0000
0007FE0000
0007FE0000
0007FE0000
0007FE0000
0007FE0000
0007FE0000
0007FE0000
0007FE0000
0007FE0000
0007FE0000
0007FE0000
0007FE0000
0007FE0000
0007FE0000
0007FE0000
0007FE0000
0007FE0000
0007FE0000
0007FE0000
0007FE0000
0007FE0000
0007FE0000
ENDCHAR
STARTCHAR 0075
ENCODING 117
SWIDTH 600 0
DWIDTH 40 0
BBX 35 47 3 0
BITMAP
FFC0007FE0
FFC0007FE0
FFC0007FE0
FFC0007FE0
FFC0007FE0
FFC0007FE0
FFC0007FE0
FFC0007FE0
FFC0007FE0
FFC0007FE0
FFC0007FE0
FFC0007FE0
FFC0007FE0
FFC0007FE0
FFC0007FE0
FFC0007FE0
FFC0007FE0
FFC0007FE0
FFC0007FE0
FFC0007FE0
FFC0007FE0
FFC0007FE0
FFC0007FE0
FFC0007FE0
FFC0007FE0
FFC0007FE0
FFC0007FE0
FFC0007FE0
FFC0007FE0
FFC0007FE0
FFC0007FE0
FFC0007FE0
FFC0007FE0
FFC0007FE0
FFC0007FE0
FFE000FFE0
FFF001FFE0
FFFFFFFFE0
FFFFFFFFE0
FFFFFFFFE0
FFFFFFFFE0
7FFFFFFFC0
3FFFFFFF80
3FFFFFFF00
1FFFFFFF00
0FFFFFFE00
07FFFFFC00
ENDCHAR
STARTCHAR 0076
ENCODING 118
SWIDTH 570 0
DWIDTH 38 0
BBX 38 47 0 0
BITMAP
FFE0000FFC
7FE0000FFC
7FE0001FFC
7FE0001FF8
7FE0001FF8
7FE0001FF8
3FF0001FF8
3FF0001FF8
3FF0003FF0
3FF0003FF0
3FF0003FF0
1FF0003FF0
1FF8003FF0
1FF8003FE0
1FF8003FE0
1FF8007FE0
0FF8007FE0
0FF8007FE0
0FF8007FC0
0FFC007FC0
0FFC007FC0
07FC00FFC0
07FC00FFC0
07FC00FF80
07FC00FF80
07FE00FF80
03FE00FF80
03FE01FF80
03FE01FF00
03FE01FF00
03FE01FF00
01FE01FF00
01FF01FF00
01FF01FE00
01FF03FE00
01FF03FE00
00FF03FE00
00FFFFFE00
00FFFFFC00
00FFFFFC00
00FFFFFC00
007FFFFC00
007FFFFC00
007FFFF800
007FFFF800
003FFFF800
003FFFF000
ENDCHAR
STARTCHAR 0077
ENCODING 119
SWIDTH 870 0
DWIDTH 58 0
BBX 53 47 3 0
BITMAP
FFC00000001FF8
FFC00000001FF8
FFC00000003FF8
FFE00000003FF8
FFE00000003FF8
FFE00000003FF8
FFE00000003FF8
FFE00000003FF8
FFF00000007FF8
7FF00000007FF0
7FF00000007FF0
7FF00000007FF0
7FF00000007FF0
7FF00000007FF0
3FF803FE00FFE0
3FF807FF00FFE0
3FF807FF00FFE0
3FF80FFF80FFE0
3FF80FFF80FFE0
1FFC0FFF81FFC0
1FFC0FFFC1FFC0
1FFC1FFFC1FFC0
1FFC1FFFC1FFC0
1FFC1FFFC1FFC0
0FFC1FDFE1FF80
0FFE3FDFE3FF80
0FFE3FCFE3FF80
0FFE3FCFE3FF80
07FE3F8FF3FF80
07FE7F8FF3FF00
07FFFF8FFFFF00
07FFFF87FFFF00
07FFFF87FFFF00
03FFFF07FFFF00
03FFFF07FFFE00
03FFFF07FFFE00
03FFFF03FFFE00
03FFFF03FFFE00
01FFFE03FFFE00
01FFFE03FFFC00
01FFFE03FFFC00
01FFFE01FFFC00
00FFFC01FFFC00
00FFFC01FFFC00
00FFFC01FFF800
00FFFC01FFF800
00FFFC00FFF800
ENDCHAR
STARTCHAR 0078
ENCODING 120
SWIDTH 615 0
DWIDTH 41 0
BBX 35 47 3 0
BITMAP
FFC0007FE0
FFC0007FE0
FFE000FFE0
FFE000FFE0
FFE000FFE0
FFF001FFE0
FFF001FFE0
7FF803FFC0
7FF803FFC0
3FF807FF80
3FFC07FF80
1FFC07FF00
1FFE0FFF00
0FFE0FFE00
0FFF1FFE00
07FF1FFC00
07FF3FFC00
03FFBFF800
03FFBFF800
01FFFFF000
01FFFFF000
00FFFFE000
00FFFFE000
01FFFFF000
01FFFFF000
01FFFFF000
03FFFFF800
03FFFFF800
07FFFFFC00
07FFBFFC00
0FFF3FFE00
0FFF1FFE00
0FFF1FFE00
1FFE0FFF00
1FFE0FFF00
3FFC0FFF80
3FFC07FF80
7FFC07FFC0
7FF803FFC0
7FF803FFC0
FFF001FFE0
FFF001FFE0
FFF001FFE0
FFE000FFE0
FFE000FFE0
FFC0007FE0
FFC0007FE0
ENDCHAR
STARTCHAR 0079
ENCODING 121
SWIDTH 465 0
DWIDTH 31 0
BBX 31 47 0 0
BITMAP
FFC003FE
FFC007FE
FFC007FE
FFE007FE
FFE00FFE
FFE00FFE
7FF00FFE
7FF01FFC
3FF81FFC
3FF81FF8
1FF83FF8
1FFC3FF0
1FFC3FF0
0FFC7FF0
0FFE7FE0
07FE7FE0
07FEFFC0
03FFFFC0
03FFFF80
01FFFF80
01FFFF00
01FFFF00
00FFFF00
00FFFE00
007FFE00
007FFC00
003FFC00
003FF800
001FF800
001FF800
001FF800
001FF800
001FF800
001FF800
001FF800
001FF800
001FF800
001FF800
001FF800
001FF800
001FF800
001FF800
001FF800
001FF800
001FF800
001FF800
001FF800
ENDCHAR
STARTCHAR 007A
ENCODING 122
SWIDTH 555 0
DWIDTH 37 0
BBX 32 47 3 0
BITMAP
FFFFFFE0
FFFFFFF0
FFFFFFF0
FFFFFFF8
FFFFFFFC
FFFFFFFE
FFFFFFFE
FFFFFFFF
FFFFFFFF
FFFFFFFE
7FFFFFFE
00007FFC
0000FFF8
0000FFF8
0001FFF0
0003FFF0
0003FFE0
0007FFC0
0007FFC0
000FFF80
001FFF00
001FFF00
003FFE00
007FFE00
007FFC00
00FFF800
00FFF800
01FFF000
03FFF000
03FFE000
07FFC000
07FFC000
0FFF8000
1FFF0000
1FFF0000
3FFE0000
3FFE0000
7FFFFFFE
FFFFFFFF
FFFFFFFF
FFFFFFFF
7FFFFFFF
3FFFFFFF
3FFFFFFF
1FFFFFFF
0FFFFFFF
07FFFFFF
ENDCHAR
STARTCHAR 007B
ENCODING 123
SWIDTH 285 0
DWIDTH 19 0
BBX 17 52 1 -3
BITMAP
07FF80
07FF80
07FF80
07FF80
07FF80
07FF00
07E000
07E000
07E000
07E000
07E000
07E000
07E000
07E000
07E000
07E000
07E000
07E000
07E000
07E000
0FE000
1FE000
3FC000
FF8000
FF0000
FE0000
FE0000
FF0000
7F8000
3FC000
1FE000
0FE000
07E000
07E000
07E000
07E000
07E000
07E000
07E000
07E000
07E000
07E000
07E000
07E000
07E000
07E000
07FF00
07FF80
07FF80
07FF80
07FF80
07FF80
ENDCHAR
STARTCHAR 007C
ENCODING 124
SWIDTH 135 0
DWIDTH 9 0
BBX 7 52 1 -3
BITMAP
FE
FE
FE
FE
FE
FE
FE
FE
FE
FE
FE
FE
FE
FE
FE
FE
FE
FE
FE
FE
FE
FE
FE
FE
FE
FE
FE
FE
FE
FE
FE
FE
FE
FE
FE
FE
FE
FE
FE
FE
FE
FE
FE
FE
FE
FE
FE
FE
FE
FE
FE
FE
ENDCHAR
STARTCHAR 007D
ENCODING 125
SWIDTH 285 0
DWIDTH 19 0
BBX 17 52 1 -3
BITMAP
FFF800
FFF800
FFF800
FFF800
7FF800
7FF800
03F800
03F800
03F800
03F800
03F800
03F800
03F800
03F800
03F800
03F800
03F800
03F800
03F800
03F800
03F800
03FC00
01FF00
00FF80
003F80
003F80
003F80
003F80
00FF80
01FF00
03FC00
03F800
03F800
03F800
03F800
03F800
03F800
03F800
03F800
03F800
03F800
03F800
03F800
03F800
03F800
03F800
7FF800
7FF800
FFF800
FFF800
FFF800
FFF800
ENDCHAR
STARTCHAR 007E
ENCODING 126
SWIDTH 450 0
DWIDTH 30 0
BBX 27 10 2 18
BITMAP
00800000
03F00000
0FFE0060
3FFFC1E0
FFFFFFE0
FF7FFFE0
FE0FFFE0
F801FF80
F0003E00
C0000000
ENDCHAR
STARTCHAR 00A1
ENCODING 161
SWIDTH 165 0
DWIDTH 11 0
BBX 9 47 1 0
BITMAP
7F80
7F80
7F80
7F80
7F80
7F80
7F80
7F80
0000
0000
0000
0000
1E00
1E00
3E00
3E00
3E00
3E00
3F00
3F00
3F00
3F00
3F00
3F00
3F00
3F00
3F00
3F00
7F00
7F00
7F00
7F00
7F80
7F80
7F80
7F80
7F80
7F80
7F80
7F80
7F80
7F80
FF80
FF80
FF80
7F80
3F00
ENDCHAR
STARTCHAR 00A2
ENCODING 162
SWIDTH 540 0
DWIDTH 36 0
BBX 31 59 3 -6
BITMAP
001F8000
001F8000
001F8000
001F8000
001F8000
001F8000
FFFFFFC0
FFFFFFC0
FFFFFFE0
FFFFFFF0
FFFFFFF0
FFFFFFF8
FFFFFFFC
FFFFFFFE
FFFFFFFE
FFFFFFFE
FFFFFFFE
FFC00FFE
FFC007FE
FFC00000
FFC00000
FFC00000
FFC00000
FFC00000
FFC00000
FFC00000
FFC00000
FFC00000
FFC00000
FFC00000
FFC00000
FFC00000
FFC00000
FFC00000
FFC00000
FFC00000
FFC00000
FFC00000
FFC00000
FFC00000
FFC007FE
FFC00FFE
FFC01FFE
FFFFFFFE
FFFFFFFE
FFFFFFFE
FFFFFFFC
FFFFFFF8
FFFFFFF8
FFFFFFF0
FFFFFFE0
FFFFFFE0
FFFFFFC0
001F8000
001F8000
001F8000
001F8000
001F8000
001F8000
ENDCHAR
STARTCHAR 00A3
ENCODING 163
SWIDTH 495 0
DWIDTH 33 0
BBX 28 47 3 0
BITMAP
7FFFFFC0
FFFFFFE0
FFFFFFF0
FFFFFFF0
FFFFFFF0
FFFFFFF0
FFFFFFF0
FFFFFFF0
FFFFFFF0
FFFFFFF0
FFFFFFF0
FFE07FF0
FFE03FF0
7FE01FF0
7FE00000
7FE00000
3FE00000
3FF00000
3FF00000
FFFFFFF0
FFFFFFF0
FFFFFFF0
FFFFFFF0
FFFFFFF0
FFFFFFF0
07FE0000
07FE0000
07FF0000
07FF0000
07FF0000
07FE0000
0FFE0000
1FFC0000
3FF80000
3FF00000
7FF00000
FFE00000
FFFFFFE0
FFFFFFE0
FFFFFFF0
FFFFFFF0
FFFFFFF0
FFFFFFF0
FFFFFFF0
FFFFFFF0
FFFFFFF0
FFFFFFF0
ENDCHAR
STARTCHAR 00A4
ENCODING 164
SWIDTH 330 0
DWIDTH 22 0
BBX 19 19 2 14
BITMAP
E001C0
F003E0
FFFFC0
7FFF80
3FFF00
3FFF00
3FFF00
3E0F00
3E0F00
3E0F00
3E0F00
3E0F00
3FFF00
3FFF00
7FFF80
FFFFC0
F003E0
E001C0
400080
ENDCHAR
STARTCHAR 00A5
ENCODING 165
SWIDTH 465 0
DWIDTH 31 0
BBX 31 47 0 0
BITMAP
FFC003FE
FFC007FE
FFC007FE
FFE007FE
FFE00FFE
FFE00FFE
7FF00FFE
7FF01FFC
3FF81FFC
3FF81FF8
1FF83FF8
1FFC3FF0
1FFC3FF0
0FFC7FF0
0FFE7FE0
07FE7FE0
07FEFFC0
03FFFFC0
03FFFF80
01FFFF80
01FFFF80
01FFFF00
00FFFF00
00FFFE00
0FFFFFF0
0FFFFFF0
0FFFFFF0
0FFFFFF0
0FFFFFF0
0FFFFFF0
0FFFFFF0
001FF800
001FF800
0FFFFFF0
0FFFFFF0
0FFFFFF0
0FFFFFF0
0FFFFFF0
0FFFFFF0
0FFFFFF0
001FF800
001FF800
001FF800
001FF800
001FF800
001FF800
001FF800
ENDCHAR
STARTCHAR 00A6
ENCODING 166
SWIDTH 135 0
DWIDTH 9 0
BBX 7 51 1 -2
BITMAP
FE
FE
FE
FE
FE
FE
FE
FE
FE
FE
FE
FE
FE
FE
FE
FE
FE
FE
FE
FE
FE
FE
FE
00
00
00
00
00
FE
FE
FE
FE
FE
FE
FE
FE
FE
FE
FE
FE
FE
FE
FE
FE
FE
FE
FE
FE
FE
FE
FE
ENDCHAR
STARTCHAR 00A7
ENCODING 167
SWIDTH 420 0
DWIDTH 28 0
BBX 23 47 3 0
BITMAP
3FFFF0
3FFFF0
7FFFF8
7FFFFC
7FFFFC
7FFFFE
7FFFFE
7FFFFE
7F807E
7FC000
7FE000
3FF000
1FF800
0FFC00
FFFE00
FFFF00
FFFF80
FFFFC0
FFFFE0
FFFFF0
FFFFF8
FE0FFC
FF07FE
FF83FE
FFC1FE
7FE0FE
3FFFFE
1FFFFE
0FFFFE
07FFFE
03FFFE
01FFFE
00FFFE
007FE0
003FF0
001FF0
000FF8
0007FC
FC03FC
FE01FC
FFFFFC
FFFFFC
FFFFFC
7FFFFC
3FFFFC
3FFFF8
1FFFF8
ENDCHAR
STARTCHAR 00A8
ENCODING 168
SWIDTH 285 0
DWIDTH 19 0
BBX 18 6 1 49
BITMAP
FE1FC0
FE1FC0
FE1FC0
FE1FC0
FE1FC0
FE1FC0
ENDCHAR
STARTCHAR 00A9
ENCODING 169
SWIDTH 720 0
DWIDTH 48 0
BBX 46 52 1 -3
BITMAP
3FFFFFFFFFF8
7FFFFFFFFFFC
FFFFFFFFFFFC
FFFFFFFFFFFC
FFFFFFFFFFFC
FFFFFFFFFFFC
FE00000000FC
FE00000000FC
FE00000000FC
FE00000000FC
FE00000000FC
FE00000000FC
FE03FFFC00FC
FE03FFFE00FC
FE03FFFF00FC
FE03FFFF00FC
FE03FFFF80FC
FE03FFFF80FC
FE03F03F80FC
FE03F00000FC
FE03F00000FC
FE03F00000FC
FE03F00000FC
FE03F00000FC
FE03F00000FC
FE03F00000FC
FE03F00000FC
FE03F00000FC
FE03F00000FC
FE03F00000FC
FE03F00000FC
FE03F00000FC
FE03F01F80FC
FE03FFFF80FC
FE03FFFF80FC
FE03FFFF80FC
FE03FFFF00FC
FE03FFFE00FC
FE03FFFC00FC
FE03FFFC00FC
FE00000000FC
FE00000000FC
FE00000000FC
FE00000000FC
FE00000000FC
FFFFFFFFFFFC
FFFFFFFFFFFC
FFFFFFFFFFFC
FFFFFFFFFFFC
7FFFFFFFFFFC
3FFFFFFFFFF8
1FFFFFFFFFF0
ENDCHAR
STARTCHAR 00AB
ENCODING 171
SWIDTH 465 0
DWIDTH 31 0
BBX 28 28 2 8
BITMAP
00000010
000C0030
001C0070
003C00F0
007C03F0
01FC07F0
03FC0FF0
07F81FE0
0FF07FC0
3FE0FF00
7F81FE00
FF03FC00
FE07F000
FC07F000
FC07F000
FC07F000
FE07F800
7F83FC00
3FC1FF00
1FE07F80
0FF83FC0
03FC1FF0
01FC07F0
00FC03F0
007C01F0
001C00F0
000C0030
00040010
ENDCHAR
STARTCHAR 00AC
ENCODING 172
SWIDTH 555 0
DWIDTH 37 0
BBX 35 18 1 8
BITMAP
FFFFFFFFE0
FFFFFFFFE0
FFFFFFFFE0
FFFFFFFFE0
FFFFFFFFE0
FFFFFFFFE0
FFFFFFFFE0
0000000FE0
0000000FE0
0000000FE0
0000000FE0
0000000FE0
0000000FE0
0000000FE0
0000000FE0
0000000FE0
0000000FE0
0000000FE0
ENDCHAR
STARTCHAR 00AE
ENCODING 174
SWIDTH 375 0
DWIDTH 25 0
BBX 23 26 1 21
BITMAP
7FFFFC
FFFFFE
FFFFFE
FFFFFE
F0000E
F0000E
F1FE0E
F1FF0E
F1FF0E
F1C78E
F1C78E
F1C78E
F1FF0E
F1FE0E
F1FE0E
F1CF0E
F1CF0E
F1C70E
F1C78E
F1C38E
F0000E
F0000E
F0000E
FFFFFE
FFFFFE
7FFFFE
ENDCHAR
STARTCHAR 00AF
ENCODING 175
SWIDTH 420 0
DWIDTH 28 0
BBX 26 7 1 49
BITMAP
FFFFFFC0
FFFFFFC0
FFFFFFC0
FFFFFFC0
FFFFFFC0
FFFFFFC0
FFFFFFC0
ENDCHAR
STARTCHAR 00B0
ENCODING 176
SWIDTH 240 0
DWIDTH 16 0
BBX 13 14 2 33
BITMAP
7FF0
FFF8
FFF8
FFF8
FFF8
F078
F078
F078
F0F8
FFF8
FFF8
FFF8
FFF8
7FF0
ENDCHAR
STARTCHAR 00B1
ENCODING 177
SWIDTH 420 0
DWIDTH 28 0
BBX 26 35 1 1
BITMAP
003F8000
003F8000
003F8000
003F8000
003F8000
003F8000
003F8000
003F8000
003F8000
FFFFFFC0
FFFFFFC0
FFFFFFC0
FFFFFFC0
FFFFFFC0
FFFFFFC0
FFFFFFC0
003F8000
003F8000
003F8000
003F8000
003F8000
003F8000
003F8000
003F8000
003F8000
003F8000
00000000
00000000
FFFFFFC0
FFFFFFC0
FFFFFFC0
FFFFFFC0
FFFFFFC0
FFFFFFC0
FFFFFFC0
ENDCHAR
STARTCHAR 00B4
ENCODING 180
SWIDTH 390 0
DWIDTH 26 0
BBX 24 7 1 49
BITMAP
0003FF
1FFFFF
FFFFFF
FFFFF8
FFFF00
FFE000
FC0000
ENDCHAR
STARTCHAR 00B6
ENCODING 182
SWIDTH 420 0
DWIDTH 28 0
BBX 22 47 3 0
BITMAP
7FFF1C
FFFF1C
FFFF1C
FFFF1C
FFFF1C
FFFF1C
FFFF1C
FFFF1C
FFFF1C
FFFF1C
FFFF1C
FFFF1C
FFFF1C
FFFF1C
FFFF1C
FFFF1C
FFFF1C
FFFF1C
FFFF1C
FFFF1C
FFFF1C
7FFF1C
00071C
00071C
00071C
00071C
00071C
00071C
00071C
00071C
00071C
00071C
00071C
00071C
00071C
00071C
00071C
00071C
00071C
00071C
00071C
00071C
00071C
00071C
00071C
00071C
00071C
ENDCHAR
STARTCHAR 00B7
ENCODING 183
SWIDTH 165 0
DWIDTH 11 0
BBX 9 9 1 21
BITMAP
FF80
FF80
FF80
FF80
FF80
FF80
FF80
FF80
FF80
ENDCHAR
STARTCHAR 00B8
ENCODING 184
SWIDTH 195 0
DWIDTH 13 0
BBX 11 10 1 -10
BITMAP
01E0
01C0
0FC0
0FC0
0FC0
03C0
03C0
7F80
7F80
FF00
ENDCHAR
STARTCHAR 00BB
ENCODING 187
SWIDTH 465 0
DWIDTH 31 0
BBX 28 28 2 8
BITMAP
00040000
80060000
C0070000
F0078000
F807E000
FC07F000
FE07F800
7F83FC00
3FC1FF00
1FE07F80
0FF83FC0
03FC1FE0
01FC07F0
01FC07F0
01FC07F0
01FC07F0
03FC0FF0
07F81FE0
0FF07FC0
3FE0FF00
7F81FE00
FF07FC00
FE07F000
FC07E000
F007C000
E0078000
C0060000
80040000
ENDCHAR
STARTCHAR 00BC
ENCODING 188
SWIDTH 585 0
DWIDTH 39 0
BBX 34 47 3 0
BITMAP
07C000FC00
0FC000FC00
1FC001F800
7FC001F800
FFC001F000
FFC003F000
FFC003E000
FFC007E000
F7C007E000
C7C00FC000
07C00FC000
07C01F8000
07C01F8000
07C03F0000
07C03F0000
07C07E0000
07C07E0000
07C0FC0000
07C0FC0000
07C1F80000
07C1F80000
07C1F00000
07C3F00000
07C3F00000
0007E0FE00
0007E1FE00
000FC1FE00
000FC3FE00
001F87FE00
001F87FE00
003F0FFE00
003F0FFE00
007E1FBE00
007E3F3E00
00FC3F3E00
00FC7E3E00
01F87E3E00
01F87FFF80
03F87FFFC0
03F07FFFC0
03F07FFFC0
07E07FFFC0
07E03FFFC0
0FC0003E00
0FC0003E00
1F80003E00
1F80003E00
ENDCHAR
STARTCHAR 00BD
ENCODING 189
SWIDTH 630 0
DWIDTH 42 0
BBX 37 47 3 0
BITMAP
07C000FC00
0FC000FC00
1FC001F800
7FC001F800
FFC001F000
FFC003F000
FFC003E000
FFC007E000
F7C007E000
C7C00FC000
07C00FC000
07C01F8000
07C01F8000
07C03F0000
07C03F0000
07C07E0000
07C07E0000
07C0FC0000
07C0FC0000
07C1F80000
07C1F80000
07C1F00000
07C3F00000
07C3F00000
0007E1FFF8
0007E3FFF8
000FC3FFF8
000FC7FFF8
001F87FFF8
001F87E0F8
003F07C0F8
003F0001F8
007E0003F8
007E0007F0
00FC000FE0
00FC001FC0
01F8003F80
01F8007F00
03F800FE00
03F001FC00
03F003FC00
07E007F800
07E007FFF0
0FC007FFF8
0FC007FFF8
1F8007FFF8
1F8007FFF8
ENDCHAR
STARTCHAR 00BE
ENCODING 190
SWIDTH 630 0
DWIDTH 42 0
BBX 37 47 3 0
BITMAP
FFFC000F80
FFFE001F80
FFFE001F80
7FFE003F00
3FFE003F00
007E007E00
007E007E00
007E00FC00
007E00FC00
1FFE00F800
1FFE01F800
1FFE01F000
1FFE03F000
1FFE03F000
1FFE07E000
007E07E000
007E0FC000
007E0FC000
1FFE1F8000
3FFE1F8000
7FFE3F0000
FFFE3F0000
FFFE7E0000
FFFC7E0000
0000FC1FC0
0000FC1FC0
0000F83FC0
0001F87FC0
0001F87FC0
0003F0FFC0
0003F0FFC0
0007E1FFC0
0007E3F7C0
000FC3F7C0
000FC7E7C0
001F8FE7C0
001F8FC7C0
003F0FFFF0
003F0FFFF8
007E0FFFF8
007E0FFFF8
00FC0FFFF8
00FC07FFF8
01FC0007C0
01F80007C0
01F80007C0
03F00007C0
ENDCHAR
STARTCHAR 00BF
ENCODING 191
SWIDTH 525 0
DWIDTH 35 0
BBX 30 47 3 0
BITMAP
00FFE000
00FFE000
00FFE000
00FFE000
00FFE000
00FFE000
00FFE000
00FFE000
00000000
00000000
00000000
00000000
00000000
00FFE000
00FFE000
00FFE000
00FFE000
00FFE000
00FFE000
00FFE000
00FFE000
00FFC000
01FFC000
01FF8000
03FF0000
07FF0000
0FFE0000
0FFC0000
1FFC0000
3FF80000
3FF80000
7FF00000
FFE00000
FFE007FC
FFE007FC
FFE00FFC
FFE00FFC
FFFFFFFC
FFFFFFFC
FFFFFFFC
FFFFFFFC
FFFFFFF8
FFFFFFF0
FFFFFFE0
FFFFFFE0
FFFFFFC0
7FFFFF80
ENDCHAR
STARTCHAR 00C0
ENCODING 192
SWIDTH 585 0
DWIDTH 39 0
BBX 37 56 1 0
BITMAP
03FC000000
03FFE00000
03FFFF0000
03FFFFF800
00FFFFFC00
0007FFFC00
0000003C00
0000000000
0000000000
003FFFE000
007FFFF000
007FFFF000
00FFFFF800
00FFFFF800
00FFFFF800
00FFFFF800
00FFFFFC00
01FFFFFC00
01FFFFFC00
01FFFFFC00
01FE03FC00
01FE03FE00
03FE03FE00
03FE03FE00
03FE03FE00
03FE03FE00
03FE03FF00
07FC01FF00
07FC01FF00
07FC01FF00
07FC01FF00
07FC01FF80
0FFC01FF80
0FF800FF80
0FF800FF80
0FF800FF80
0FF800FFC0
1FF800FFC0
1FFC01FFC0
1FFFFFFFC0
1FFFFFFFC0
1FFFFFFFE0
3FFFFFFFE0
3FFFFFFFE0
3FFFFFFFE0
3FF7FF7FE0
3FF3FE7FF0
7FE0003FF0
7FE0003FF0
7FE0003FF0
7FE0003FF0
7FE0003FF8
FFE0003FF8
FFC0001FF8
FFC0001FF8
FFC0001FF8
ENDCHAR
STARTCHAR 00C1
ENCODING 193
SWIDTH 585 0
DWIDTH 39 0
BBX 37 56 1 0
BITMAP
00000FFC00
007FFFFC00
03FFFFFC00
03FFFFC000
03FFFC0000
03FF800000
03F0000000
0000000000
0000000000
003FFFE000
007FFFF000
007FFFF000
00FFFFF800
00FFFFF800
00FFFFF800
00FFFFF800
00FFFFFC00
01FFFFFC00
01FFFFFC00
01FFFFFC00
01FE03FC00
01FE03FE00
03FE03FE00
03FE03FE00
03FE03FE00
03FE03FE00
03FE03FF00
07FC01FF00
07FC01FF00
07FC01FF00
07FC01FF00
07FC01FF80
0FFC01FF80
0FF800FF80
0FF800FF80
0FF800FF80
0FF800FFC0
1FF800FFC0
1FFC01FFC0
1FFFFFFFC0
1FFFFFFFC0
1FFFFFFFE0
3FFFFFFFE0
3FFFFFFFE0
3FFFFFFFE0
3FF7FF7FE0
3FF3FE7FF0
7FE0003FF0
7FE0003FF0
7FE0003FF0
7FE0003FF0
7FE0003FF8
FFE0003FF8
FFC0001FF8
FFC0001FF8
FFC0001FF8
ENDCHAR
STARTCHAR 00C2
ENCODING 194
SWIDTH 585 0
DWIDTH 39 0
BBX 37 57 1 0
BITMAP
007FFFF000
00FFFFF800
01FFFFFC00
03FFFFFE00
07FFFFFF00
07F000FF00
07E0007F00
07C0001F00
0000000000
0000000000
003FFFE000
007FFFF000
007FFFF000
00FFFFF800
00FFFFF800
00FFFFF800
00FFFFF800
00FFFFFC00
01FFFFFC00
01FFFFFC00
01FFFFFC00
01FE03FC00
01FE03FE00
03FE03FE00
03FE03FE00
03FE03FE00
03FE03FE00
03FE03FF00
07FC01FF00
07FC01FF00
07FC01FF00
07FC01FF00
07FC01FF80
0FFC01FF80
0FF800FF80
0FF800FF80
0FF800FF80
0FF800FFC0
1FF800FFC0
1FFC01FFC0
1FFFFFFFC0
1FFFFFFFC0
1FFFFFFFE0
3FFFFFFFE0
3FFFFFFFE0
3FFFFFFFE0
3FF7FF7FE0
3FF3FE7FF0
7FE0003FF0
7FE0003FF0
7FE0003FF0
7FE0003FF0
7FE0003FF8
FFE0003FF8
FFC0001FF8
FFC0001FF8
FFC0001FF8
ENDCHAR
STARTCHAR 00C3
ENCODING 195
SWIDTH 585 0
DWIDTH 39 0
BBX 37 58 1 0
BITMAP
000F800000
003FE00300
00FFFC0F00
03FFFFBF00
07FFFFFF00
07F0FFFF00
07E01FFE00
078003F800
0700006000
0000000000
0000000000
003FFFE000
007FFFF000
007FFFF000
00FFFFF800
00FFFFF800
00FFFFF800
00FFFFF800
00FFFFFC00
01FFFFFC00
01FFFFFC00
01FFFFFC00
01FE03FC00
01FE03FE00
03FE03FE00
03FE03FE00
03FE03FE00
03FE03FE00
03FE03FF00
07FC01FF00
07FC01FF00
07FC01FF00
07FC01FF00
07FC01FF80
0FFC01FF80
0FF800FF80
0FF800FF80
0FF800FF80
0FF800FFC0
1FF800FFC0
1FFC01FFC0
1FFFFFFFC0
1FFFFFFFC0
1FFFFFFFE0
3FFFFFFFE0
3FFFFFFFE0
3FFFFFFFE0
3FF7FF7FE0
3FF3FE7FF0
7FE0003FF0
7FE0003FF0
7FE0003FF0
7FE0003FF0
7FE0003FF8
FFE0003FF8
FFC0001FF8
FFC0001FF8
FFC0001FF8
ENDCHAR
STARTCHAR 00C4
ENCODING 196
SWIDTH 585 0
DWIDTH 39 0
BBX 37 55 1 0
BITMAP
003F07E000
003F07E000
003F07E000
003F07E000
003F07E000
003F07E000
0000000000
0000000000
003FFFE000
007FFFF000
007FFFF000
00FFFFF800
00FFFFF800
00FFFFF800
00FFFFF800
00FFFFFC00
01FFFFFC00
01FFFFFC00
01FFFFFC00
01FE03FC00
01FE03FE00
03FE03FE00
03FE03FE00
03FE03FE00
03FE03FE00
03FE03FF00
07FC01FF00
07FC01FF00
07FC01FF00
07FC01FF00
07FC01FF80
0FFC01FF80
0FF800FF80
0FF800FF80
0FF800FF80
0FF800FFC0
1FF800FFC0
1FFC01FFC0
1FFFFFFFC0
1FFFFFFFC0
1FFFFFFFE0
3FFFFFFFE0
3FFFFFFFE0
3FFFFFFFE0
3FF7FF7FE0
3FF3FE7FF0
7FE0003FF0
7FE0003FF0
7FE0003FF0
7FE0003FF0
7FE0003FF8
FFE0003FF8
FFC0001FF8
FFC0001FF8
FFC0001FF8
ENDCHAR
STARTCHAR 00C5
ENCODING 197
SWIDTH 585 0
DWIDTH 39 0
BBX 37 59 1 0
BITMAP
0001FC0000
0003FE0000
0003FE0000
00038E0000
00038E0000
00038E0000
00038E0000
0003FE0000
0003FE0000
0001FC0000
0000000000
0000000000
003FFFE000
007FFFF000
007FFFF000
00FFFFF800
00FFFFF800
00FFFFF800
00FFFFF800
00FFFFFC00
01FFFFFC00
01FFFFFC00
01FFFFFC00
01FE03FC00
01FE03FE00
03FE03FE00
03FE03FE00
03FE03FE00
03FE03FE00
03FE03FF00
07FC01FF00
07FC01FF00
07FC01FF00
07FC01FF00
07FC01FF80
0FFC01FF80
0FF800FF80
0FF800FF80
0FF800FF80
0FF800FFC0
1FF800FFC0
1FFC01FFC0
1FFFFFFFC0
1FFFFFFFC0
1FFFFFFFE0
3FFFFFFFE0
3FFFFFFFE0
3FFFFFFFE0
3FF7FF7FE0
3FF3FE7FF0
7FE0003FF0
7FE0003FF0
7FE0003FF0
7FE0003FF0
7FE0003FF8
FFE0003FF8
FFC0001FF8
FFC0001FF8
FFC0001FF8
ENDCHAR
STARTCHAR 00C6
ENCODING 198
SWIDTH 840 0
DWIDTH 56 0
BBX 52 47 1 0
BITMAP
003FFFFFFFFE00
007FFFFFFFFF00
007FFFFFFFFF80
00FFFFFFFFFF80
00FFFFFFFFFFC0
00FFFFFFFFFFE0
00FFFFFFFFFFE0
00FFFFFFFFFFF0
01FFFFFFFFFFF0
01FFFFFFFFFFF0
01FFFFFFFFFFF0
01FE07FF001FF0
01FE07FF000FF0
03FE07FF000000
03FE07FF000000
03FE07FF000000
03FE07FF000000
03FE07FF000000
07FC07FF000000
07FC07FF000000
07FC07FFFFF000
07FC07FFFFF000
07FC07FFFFF000
0FFC07FFFFF000
0FF807FFFFF000
0FF807FFFFF000
0FF807FFFFF000
0FF807FFFFF000
1FF807FF000000
1FFC07FF000000
1FFFFFFF000000
1FFFFFFF000000
1FFFFFFF000000
3FFFFFFF000000
3FFFFFFF000FF0
3FFFFFFF001FF0
3FF7FFFF001FF0
3FF3FFFFFFFFF0
7FE007FFFFFFF0
7FE007FFFFFFF0
7FE007FFFFFFF0
7FE007FFFFFFE0
7FE007FFFFFFC0
FFE007FFFFFFC0
FFC007FFFFFF80
FFC007FFFFFF00
FFC007FFFFFE00
ENDCHAR
STARTCHAR 00C7
ENCODING 199
SWIDTH 540 0
DWIDTH 36 0
BBX 31 57 3 -10
BITMAP
FFFFFFC0
FFFFFFC0
FFFFFFE0
FFFFFFF0
FFFFFFF0
FFFFFFF8
FFFFFFFC
FFFFFFFE
FFFFFFFE
FFFFFFFE
FFFFFFFE
FFC00FFE
FFC007FE
FFC00000
FFC00000
FFC00000
FFC00000
FFC00000
FFC00000
FFC00000
FFC00000
FFC00000
FFC00000
FFC00000
FFC00000
FFC00000
FFC00000
FFC00000
FFC00000
FFC00000
FFC00000
FFC00000
FFC00000
FFC00000
FFC007FE
FFC00FFE
FFC01FFE
FFFFFFFE
FFFFFFFE
FFFFFFFE
FFFFFFFC
FFFFFFF8
FFFFFFF8
FFFFFFF0
FFFFFFE0
FFFFFFE0
FFFFFFC0
0001E000
0003C000
001F8000
001F8000
001F8000
00038000
00038000
007F8000
00FF0000
00FF0000
ENDCHAR
STARTCHAR 00C8
ENCODING 200
SWIDTH 540 0
DWIDTH 36 0
BBX 31 56 3 0
BITMAP
1FC00000
1FFE0000
1FFFF000
1FFFFF80
0FFFFFE0
007FFFE0
000001E0
00000000
00000000
FFFFFF80
FFFFFFC0
FFFFFFE0
FFFFFFF0
FFFFFFF0
FFFFFFF8
FFFFFFFC
FFFFFFFC
FFFFFFFE
FFFFFFFE
FFFFFFFE
FFC007FE
FFC003FE
FFC00000
FFC00000
FFC00000
FFC00000
FFC00000
FFC00000
FFC00000
FFFFFE00
FFFFFE00
FFFFFE00
FFFFFE00
FFFFFE00
FFFFFE00
FFFFFE00
FFFFFE00
FFC00000
FFC00000
FFC00000
FFC00000
FFC00000
FFC00000
FFC003FE
FFC003FE
FFC007FE
FFFFFFFE
FFFFFFFE
FFFFFFFE
FFFFFFFC
FFFFFFF8
FFFFFFF0
FFFFFFF0
FFFFFFE0
FFFFFFC0
FFFFFFC0
ENDCHAR
STARTCHAR 00C9
ENCODING 201
SWIDTH 540 0
DWIDTH 36 0
BBX 31 56 3 0
BITMAP
0000FFE0
03FFFFE0
1FFFFFE0
1FFFFE00
1FFFC000
1FF80000
1F000000
00000000
00000000
FFFFFF80
FFFFFFC0
FFFFFFE0
FFFFFFF0
FFFFFFF0
FFFFFFF8
FFFFFFFC
FFFFFFFC
FFFFFFFE
FFFFFFFE
FFFFFFFE
FFC007FE
FFC003FE
FFC00000
FFC00000
FFC00000
FFC00000
FFC00000
FFC00000
FFC00000
FFFFFE00
FFFFFE00
FFFFFE00
FFFFFE00
FFFFFE00
FFFFFE00
FFFFFE00
FFFFFE00
FFC00000
FFC00000
FFC00000
FFC00000
FFC00000
FFC00000
FFC003FE
FFC003FE
FFC007FE
FFFFFFFE
FFFFFFFE
FFFFFFFE
FFFFFFFC
FFFFFFF8
FFFFFFF0
FFFFFFF0
FFFFFFE0
FFFFFFC0
FFFFFFC0
ENDCHAR
STARTCHAR 00CA
ENCODING 202
SWIDTH 540 0
DWIDTH 36 0
BBX 31 57 3 0
BITMAP
0FFFFE00
1FFFFF00
3FFFFF80
7FFFFFC0
FFFFFFE0
FE001FE0
FC0007E0
F80003E0
00000000
00000000
FFFFFF80
FFFFFFC0
FFFFFFE0
FFFFFFF0
FFFFFFF0
FFFFFFF8
FFFFFFFC
FFFFFFFC
FFFFFFFE
FFFFFFFE
FFFFFFFE
FFC007FE
FFC003FE
FFC00000
FFC00000
FFC00000
FFC00000
FFC00000
FFC00000
FFC00000
FFFFFE00
FFFFFE00
FFFFFE00
FFFFFE00
FFFFFE00
FFFFFE00
FFFFFE00
FFFFFE00
FFC00000
FFC00000
FFC00000
FFC00000
FFC00000
FFC00000
FFC003FE
FFC003FE
FFC007FE
FFFFFFFE
FFFFFFFE
FFFFFFFE
FFFFFFFC
FFFFFFF8
FFFFFFF0
FFFFFFF0
FFFFFFE0
FFFFFFC0
FFFFFFC0
ENDCHAR
STARTCHAR 00CB
ENCODING 203
SWIDTH 540 0
DWIDTH 36 0
BBX 31 55 3 0
BITMAP
03F07E00
03F07E00
03F07E00
03F07E00
03F07E00
03F07E00
00000000
00000000
FFFFFF80
FFFFFFC0
FFFFFFE0
FFFFFFF0
FFFFFFF0
FFFFFFF8
FFFFFFFC
FFFFFFFC
FFFFFFFE
FFFFFFFE
FFFFFFFE
FFC007FE
FFC003FE
FFC00000
FFC00000
FFC00000
FFC00000
FFC00000
FFC00000
FFC00000
FFFFFE00
FFFFFE00
FFFFFE00
FFFFFE00
FFFFFE00
FFFFFE00
FFFFFE00
FFFFFE00
FFC00000
FFC00000
FFC00000
FFC00000
FFC00000
FFC00000
FFC003FE
FFC003FE
FFC007FE
FFFFFFFE
FFFFFFFE
FFFFFFFE
FFFFFFFC
FFFFFFF8
FFFFFFF0
FFFFFFF0
FFFFFFE0
FFFFFFC0
FFFFFFC0
ENDCHAR
STARTCHAR 00CC
ENCODING 204
SWIDTH 225 0
DWIDTH 15 0
BBX 24 56 -3 0
BITMAP
FF0000
FFF800
FFFFC0
FFFFFE
3FFFFF
01FFFF
00000F
000000
000000
03FF00
03FF00
03FF00
03FF00
03FF00
03FF00
03FF00
03FF00
03FF00
03FF00
03FF00
03FF00
03FF00
03FF00
03FF00
03FF00
03FF00
03FF00
03FF00
03FF00
03FF00
03FF00
03FF00
03FF00
03FF00
03FF00
03FF00
03FF00
03FF00
03FF00
03FF00
03FF00
03FF00
03FF00
03FF00
03FF00
03FF00
03FF00
03FF00
03FF00
03FF00
03FF00
03FF00
03FF00
03FF00
03FF00
03FF00
ENDCHAR
STARTCHAR 00CD
ENCODING 205
SWIDTH 225 0
DWIDTH 15 0
BBX 24 56 -4 0
BITMAP
0007FF
1FFFFF
FFFFFF
FFFFF0
FFFE00
FFC000
F80000
000000
000000
01FF80
01FF80
01FF80
01FF80
01FF80
01FF80
01FF80
01FF80
01FF80
01FF80
01FF80
01FF80
01FF80
01FF80
01FF80
01FF80
01FF80
01FF80
01FF80
01FF80
01FF80
01FF80
01FF80
01FF80
01FF80
01FF80
01FF80
01FF80
01FF80
01FF80
01FF80
01FF80
01FF80
01FF80
01FF80
01FF80
01FF80
01FF80
01FF80
01FF80
01FF80
01FF80
01FF80
01FF80
01FF80
01FF80
01FF80
ENDCHAR
STARTCHAR 00CE
ENCODING 206
SWIDTH 480 0
DWIDTH 32 0
BBX 27 57 3 0
BITMAP
0FFFFE00
1FFFFF00
3FFFFF80
7FFFFFC0
FFFFFFE0
FE001FE0
FC0007E0
F80003E0
00000000
00000000
00FFE000
00FFE000
00FFE000
00FFE000
00FFE000
00FFE000
00FFE000
00FFE000
00FFE000
00FFE000
00FFE000
00FFE000
00FFE000
00FFE000
00FFE000
00FFE000
00FFE000
00FFE000
00FFE000
00FFE000
00FFE000
00FFE000
00FFE000
00FFE000
00FFE000
00FFE000
00FFE000
00FFE000
00FFE000
00FFE000
00FFE000
00FFE000
00FFE000
00FFE000
00FFE000
00FFE000
00FFE000
00FFE000
00FFE000
00FFE000
00FFE000
00FFE000
00FFE000
00FFE000
00FFE000
00FFE000
00FFE000
ENDCHAR
STARTCHAR 00CF
ENCODING 207
SWIDTH 225 0
DWIDTH 15 0
BBX 17 55 -1 0
BITMAP
FC1F80
FC1F80
FC1F80
FC1F80
FC1F80
FC1F80
000000
000000
0FFC00
0FFC00
0FFC00
0FFC00
0FFC00
0FFC00
0FFC00
0FFC00
0FFC00
0FFC00
0FFC00
0FFC00
0FFC00
0FFC00
0FFC00
0FFC00
0FFC00
0FFC00
0FFC00
0FFC00
0FFC00
0FFC00
0FFC00
0FFC00
0FFC00
0FFC00
0FFC00
0FFC00
0FFC00
0FFC00
0FFC00
0FFC00
0FFC00
0FFC00
0FFC00
0FFC00
0FFC00
0FFC00
0FFC00
0FFC00
0FFC00
0FFC00
0FFC00
0FFC00
0FFC00
0FFC00
0FFC00
ENDCHAR
STARTCHAR 00D0
ENCODING 208
SWIDTH 570 0
DWIDTH 38 0
BBX 37 47 -1 0
BITMAP
0FFFFFFF00
0FFFFFFF80
0FFFFFFF80
0FFFFFFFC0
0FFFFFFFE0
0FFFFFFFE0
0FFFFFFFF0
0FFFFFFFF8
0FFFFFFFF8
0FFFFFFFF8
0FFFFFFFF8
0FFC003FF8
0FFC003FF8
0FFC001FF8
0FFC001FF8
0FFC001FF8
0FFC001FF8
0FFC001FF8
0FFC001FF8
0FFC001FF8
0FFC001FF8
FFFFF01FF8
FFFFF01FF8
FFFFF01FF8
FFFFF01FF8
FFFFF01FF8
FFFFF01FF8
0FFC001FF8
0FFC001FF8
0FFC001FF8
0FFC001FF8
0FFC001FF8
0FFC001FF8
0FFC001FF8
0FFC001FF8
0FFC003FF8
0FFC007FF8
0FFFFFFFF8
0FFFFFFFF8
0FFFFFFFF8
0FFFFFFFF0
0FFFFFFFF0
0FFFFFFFE0
0FFFFFFFC0
0FFFFFFF80
0FFFFFFF80
0FFFFFFF00
ENDCHAR
STARTCHAR 00D1
ENCODING 209
SWIDTH 570 0
DWIDTH 38 0
BBX 32 58 3 0
BITMAP
003E0000
00FF800C
03FFF03C
0FFFFEFC
1FFFFFFC
1FC3FFFC
1F807FF8
1E000FE0
1C000180
00000000
00000000
07C003FF
0FE003FF
1FE003FF
1FE003FF
3FF003FF
7FF003FF
7FF803FF
FFF803FF
FFFC03FF
FFFC03FF
FFFE03FF
FFFE03FF
FFFE03FF
FFFF03FF
FFFF03FF
FFFF83FF
FFFF83FF
FFFFC3FF
FFFFC3FF
FFFFE3FF
FFFFE3FF
FFFFF3FF
FFFFF3FF
FFFFF3FF
FFCFFFFF
FFCFFFFF
FFC7FFFF
FFC7FFFF
FFC3FFFF
FFC3FFFF
FFC1FFFF
FFC1FFFF
FFC0FFFF
FFC0FFFF
FFC07FFF
FFC07FFF
FFC07FFF
FFC03FFF
FFC03FFF
FFC01FFF
FFC01FFF
FFC00FFE
FFC00FFC
FFC007FC
FFC007F8
FFC007F0
FFC003F0
ENDCHAR
STARTCHAR 00D2
ENCODING 210
SWIDTH 615 0
DWIDTH 41 0
BBX 36 56 3 0
BITMAP
03FC000000
03FFE00000
03FFFF0000
03FFFFF800
00FFFFFC00
0007FFFC00
0000003C00
0000000000
0000000000
07FFFFFC00
0FFFFFFE00
1FFFFFFF00
1FFFFFFF80
3FFFFFFF80
7FFFFFFFC0
7FFFFFFFE0
FFFFFFFFE0
FFFFFFFFF0
FFFFFFFFF0
FFFFFFFFF0
FFE000FFF0
FFC0007FF0
FFC0007FF0
FFC0007FF0
FFC0007FF0
FFC0007FF0
FFC0007FF0
FFC0007FF0
FFC0007FF0
FFC0007FF0
FFC0007FF0
FFC0007FF0
FFC0007FF0
FFC0007FF0
FFC0007FF0
FFC0007FF0
FFC0007FF0
FFC0007FF0
FFC0007FF0
FFC0007FF0
FFC0007FF0
FFC0007FF0
FFC0007FF0
FFC0007FF0
FFE000FFF0
FFF000FFF0
FFFFFFFFF0
FFFFFFFFF0
FFFFFFFFF0
FFFFFFFFE0
7FFFFFFFC0
3FFFFFFFC0
3FFFFFFF80
1FFFFFFF00
0FFFFFFE00
07FFFFFE00
ENDCHAR
STARTCHAR 00D3
ENCODING 211
SWIDTH 615 0
DWIDTH 41 0
BBX 36 56 3 0
BITMAP
00000FFC00
007FFFFC00
03FFFFFC00
03FFFFE000
03FFFC0000
03FF800000
03F0000000
0000000000
0000000000
07FFFFFC00
0FFFFFFE00
1FFFFFFF00
1FFFFFFF80
3FFFFFFF80
7FFFFFFFC0
7FFFFFFFE0
FFFFFFFFE0
FFFFFFFFF0
FFFFFFFFF0
FFFFFFFFF0
FFE000FFF0
FFC0007FF0
FFC0007FF0
FFC0007FF0
FFC0007FF0
FFC0007FF0
FFC0007FF0
FFC0007FF0
FFC0007FF0
FFC0007FF0
FFC0007FF0
FFC0007FF0
FFC0007FF0
FFC0007FF0
FFC0007FF0
FFC0007FF0
FFC0007FF0
FFC0007FF0
FFC0007FF0
FFC0007FF0
FFC0007FF0
FFC0007FF0
FFC0007FF0
FFC0007FF0
FFE000FFF0
FFF000FFF0
FFFFFFFFF0
FFFFFFFFF0
FFFFFFFFF0
FFFFFFFFE0
7FFFFFFFC0
3FFFFFFFC0
3FFFFFFF80
1FFFFFFF00
0FFFFFFE00
07FFFFFE00
ENDCHAR
STARTCHAR 00D4
ENCODING 212
SWIDTH 615 0
DWIDTH 41 0
BBX 36 57 3 0
BITMAP
00FFFFE000
01FFFFF000
03FFFFF800
07FFFFFC00
0FFFFFFE00
0FF000FE00
0FC0007E00
0F80003E00
0000000000
0000000000
07FFFFFC00
0FFFFFFE00
1FFFFFFF00
1FFFFFFF80
3FFFFFFF80
7FFFFFFFC0
7FFFFFFFE0
FFFFFFFFE0
FFFFFFFFF0
FFFFFFFFF0
FFFFFFFFF0
FFE000FFF0
FFC0007FF0
FFC0007FF0
FFC0007FF0
FFC0007FF0
FFC0007FF0
FFC0007FF0
FFC0007FF0
FFC0007FF0
FFC0007FF0
FFC0007FF0
FFC0007FF0
FFC0007FF0
FFC0007FF0
FFC0007FF0
FFC0007FF0
FFC0007FF0
FFC0007FF0
FFC0007FF0
FFC0007FF0
FFC0007FF0
FFC0007FF0
FFC0007FF0
FFC0007FF0
FFE000FFF0
FFF000FFF0
FFFFFFFFF0
FFFFFFFFF0
FFFFFFFFF0
FFFFFFFFE0
7FFFFFFFC0
3FFFFFFFC0
3FFFFFFF80
1FFFFFFF00
0FFFFFFE00
07FFFFFE00
ENDCHAR
STARTCHAR 00D5
ENCODING 213
SWIDTH 615 0
DWIDTH 41 0
BBX 36 58 3 0
BITMAP
001F000000
007FE00200
01FFFC0E00
07FFFF3E00
0FFFFFFE00
0FF0FFFE00
0FC01FFE00
0F0007F000
0E0000C000
0000000000
0000000000
07FFFFFC00
0FFFFFFE00
1FFFFFFF00
1FFFFFFF80
3FFFFFFF80
7FFFFFFFC0
7FFFFFFFE0
FFFFFFFFE0
FFFFFFFFF0
FFFFFFFFF0
FFFFFFFFF0
FFE000FFF0
FFC0007FF0
FFC0007FF0
FFC0007FF0
FFC0007FF0
FFC0007FF0
FFC0007FF0
FFC0007FF0
FFC0007FF0
FFC0007FF0
FFC0007FF0
FFC0007FF0
FFC0007FF0
FFC0007FF0
FFC0007FF0
FFC0007FF0
FFC0007FF0
FFC0007FF0
FFC0007FF0
FFC0007FF0
FFC0007FF0
FFC0007FF0
FFC0007FF0
FFC0007FF0
FFE000FFF0
FFF000FFF0
FFFFFFFFF0
FFFFFFFFF0
FFFFFFFFF0
FFFFFFFFE0
7FFFFFFFC0
3FFFFFFFC0
3FFFFFFF80
1FFFFFFF00
0FFFFFFE00
07FFFFFE00
ENDCHAR
STARTCHAR 00D6
ENCODING 214
SWIDTH 615 0
DWIDTH 41 0
BBX 36 55 3 0
BITMAP
007E0FC000
007E0FC000
007E0FC000
007E0FC000
007E0FC000
007E0FC000
0000000000
0000000000
07FFFFFC00
0FFFFFFE00
1FFFFFFF00
1FFFFFFF80
3FFFFFFF80
7FFFFFFFC0
7FFFFFFFE0
FFFFFFFFE0
FFFFFFFFF0
FFFFFFFFF0
FFFFFFFFF0
FFE000FFF0
FFC0007FF0
FFC0007FF0
FFC0007FF0
FFC0007FF0
FFC0007FF0
FFC0007FF0
FFC0007FF0
FFC0007FF0
FFC0007FF0
FFC0007FF0
FFC0007FF0
FFC0007FF0
FFC0007FF0
FFC0007FF0
FFC0007FF0
FFC0007FF0
FFC0007FF0
FFC0007FF0
FFC0007FF0
FFC0007FF0
FFC0007FF0
FFC0007FF0
FFC0007FF0
FFE000FFF0
FFF000FFF0
FFFFFFFFF0
FFFFFFFFF0
FFFFFFFFF0
FFFFFFFFE0
7FFFFFFFC0
3FFFFFFFC0
3FFFFFFF80
1FFFFFFF00
0FFFFFFE00
07FFFFFE00
ENDCHAR
STARTCHAR 00D7
ENCODING 215
SWIDTH 405 0
DWIDTH 27 0
BBX 25 22 1 11
BITMAP
0C001800
1E003C00
3F007E00
3F80FF00
7FE1FF00
7FF7FF00
1FFFFE00
0FFFF800
07FFF000
03FFE000
01FFC000
03FFE000
07FFF000
0FFFF800
1FFFFE00
3FF7FF00
FFE1FF80
7FC0FF00
3F007E00
1E003E00
0C001C00
08000000
ENDCHAR
STARTCHAR 00D8
ENCODING 216
SWIDTH 615 0
DWIDTH 41 0
BBX 36 57 3 -5
BITMAP
0000001FC0
0000001FC0
0000003FC0
0000003F80
0000007F80
07FFFFFF00
0FFFFFFF00
1FFFFFFF00
1FFFFFFF80
3FFFFFFF80
7FFFFFFFC0
7FFFFFFFE0
FFFFFFFFE0
FFFFFFFFF0
FFFFFFFFF0
FFFFFFFFF0
FFE00FFFF0
FFC01FFFF0
FFC01FFFF0
FFC03FFFF0
FFC03FFFF0
FFC07FFFF0
FFC07F7FF0
FFC0FF7FF0
FFC0FE7FF0
FFC1FE7FF0
FFC1FC7FF0
FFC1FC7FF0
FFC3F87FF0
FFC3F87FF0
FFC7F07FF0
FFC7F07FF0
FFCFF07FF0
FFCFE07FF0
FFDFE07FF0
FFDFC07FF0
FFFFC07FF0
FFFF807FF0
FFFF807FF0
FFFF007FF0
FFFF00FFF0
FFFE00FFF0
FFFFFFFFF0
FFFFFFFFF0
FFFFFFFFF0
FFFFFFFFE0
7FFFFFFFC0
3FFFFFFFC0
1FFFFFFF80
1FFFFFFF00
0FFFFFFE00
1FFFFFFE00
1FC0000000
3FC0000000
3F80000000
7F80000000
7F00000000
ENDCHAR
STARTCHAR 00D9
ENCODING 217
SWIDTH 600 0
DWIDTH 40 0
BBX 35 56 3 0
BITMAP
03FC000000
03FFE00000
03FFFF0000
03FFFFF000
01FFFFFC00
000FFFFC00
0000003C00
0000000000
0000000000
FFC0007FE0
FFC0007FE0
FFC0007FE0
FFC0007FE0
FFC0007FE0
FFC0007FE0
FFC0007FE0
FFC0007FE0
FFC0007FE0
FFC0007FE0
FFC0007FE0
FFC0007FE0
FFC0007FE0
FFC0007FE0
FFC0007FE0
FFC0007FE0
FFC0007FE0
FFC0007FE0
FFC0007FE0
FFC0007FE0
FFC0007FE0
FFC0007FE0
FFC0007FE0
FFC0007FE0
FFC0007FE0
FFC0007FE0
FFC0007FE0
FFC0007FE0
FFC0007FE0
FFC0007FE0
FFC0007FE0
FFC0007FE0
FFC0007FE0
FFC0007FE0
FFC0007FE0
FFE000FFE0
FFF001FFE0
FFFFFFFFE0
FFFFFFFFE0
FFFFFFFFE0
FFFFFFFFE0
7FFFFFFFC0
3FFFFFFF80
3FFFFFFF00
1FFFFFFF00
0FFFFFFE00
07FFFFFC00
ENDCHAR
STARTCHAR 00DA
ENCODING 218
SWIDTH 600 0
DWIDTH 40 0
BBX 35 56 3 0
BITMAP
00001FFC00
007FFFFC00
03FFFFFC00
03FFFFC000
03FFF80000
03FF000000
03E0000000
0000000000
0000000000
FFC0007FE0
FFC0007FE0
FFC0007FE0
FFC0007FE0
FFC0007FE0
FFC0007FE0
FFC0007FE0
FFC0007FE0
FFC0007FE0
FFC0007FE0
FFC0007FE0
FFC0007FE0
FFC0007FE0
FFC0007FE0
FFC0007FE0
FFC0007FE0
FFC0007FE0
FFC0007FE0
FFC0007FE0
FFC0007FE0
FFC0007FE0
FFC0007FE0
FFC0007FE0
FFC0007FE0
FFC0007FE0
FFC0007FE0
FFC0007FE0
FFC0007FE0
FFC0007FE0
FFC0007FE0
FFC0007FE0
FFC0007FE0
FFC0007FE0
FFC0007FE0
FFC0007FE0
FFE000FFE0
FFF001FFE0
FFFFFFFFE0
FFFFFFFFE0
FFFFFFFFE0
FFFFFFFFE0
7FFFFFFFC0
3FFFFFFF80
3FFFFFFF00
1FFFFFFF00
0FFFFFFE00
07FFFFFC00
ENDCHAR
STARTCHAR 00DB
ENCODING 219
SWIDTH 600 0
DWIDTH 40 0
BBX 35 57 3 0
BITMAP
00FFFFE000
01FFFFF000
03FFFFF800
07FFFFFC00
0FFFFFFE00
0FE000FE00
0FC0007E00
0F80003E00
0000000000
0000000000
FFC0007FE0
FFC0007FE0
FFC0007FE0
FFC0007FE0
FFC0007FE0
FFC0007FE0
FFC0007FE0
FFC0007FE0
FFC0007FE0
FFC0007FE0
FFC0007FE0
FFC0007FE0
FFC0007FE0
FFC0007FE0
FFC0007FE0
FFC0007FE0
FFC0007FE0
FFC0007FE0
FFC0007FE0
FFC0007FE0
FFC0007FE0
FFC0007FE0
FFC0007FE0
FFC0007FE0
FFC0007FE0
FFC0007FE0
FFC0007FE0
FFC0007FE0
FFC0007FE0
FFC0007FE0
FFC0007FE0
FFC0007FE0
FFC0007FE0
FFC0007FE0
FFC0007FE0
FFE000FFE0
FFF001FFE0
FFFFFFFFE0
FFFFFFFFE0
FFFFFFFFE0
FFFFFFFFE0
7FFFFFFFC0
3FFFFFFF80
3FFFFFFF00
1FFFFFFF00
0FFFFFFE00
07FFFFFC00
ENDCHAR
STARTCHAR 00DC
ENCODING 220
SWIDTH 600 0
DWIDTH 40 0
BBX 35 55 3 0
BITMAP
007E0FC000
007E0FC000
007E0FC000
007E0FC000
007E0FC000
007E0FC000
0000000000
0000000000
FFC0007FE0
FFC0007FE0
FFC0007FE0
FFC0007FE0
FFC0007FE0
FFC0007FE0
FFC0007FE0
FFC0007FE0
FFC0007FE0
FFC0007FE0
FFC0007FE0
FFC0007FE0
FFC0007FE0
FFC0007FE0
FFC0007FE0
FFC0007FE0
FFC0007FE0
FFC0007FE0
FFC0007FE0
FFC0007FE0
FFC0007FE0
FFC0007FE0
FFC0007FE0
FFC0007FE0
FFC0007FE0
FFC0007FE0
FFC0007FE0
FFC0007FE0
FFC0007FE0
FFC0007FE0
FFC0007FE0
FFC0007FE0
FFC0007FE0
FFC0007FE0
FFC0007FE0
FFE000FFE0
FFF001FFE0
FFFFFFFFE0
FFFFFFFFE0
FFFFFFFFE0
FFFFFFFFE0
7FFFFFFFC0
3FFFFFFF80
3FFFFFFF00
1FFFFFFF00
0FFFFFFE00
07FFFFFC00
ENDCHAR
STARTCHAR 00DD
ENCODING 221
SWIDTH 465 0
DWIDTH 31 0
BBX 31 56 0 0
BITMAP
00007FF0
01FFFFF0
0FFFFFF0
0FFFFF00
0FFFE000
0FFC0000
0F800000
00000000
00000000
FFC003FE
FFC007FE
FFC007FE
FFE007FE
FFE00FFE
FFE00FFE
7FF00FFE
7FF01FFC
3FF81FFC
3FF81FF8
1FF83FF8
1FFC3FF0
1FFC3FF0
0FFC7FF0
0FFE7FE0
07FE7FE0
07FEFFC0
03FFFFC0
03FFFF80
01FFFF80
01FFFF00
01FFFF00
00FFFF00
00FFFE00
007FFE00
007FFC00
003FFC00
003FF800
001FF800
001FF800
001FF800
001FF800
001FF800
001FF800
001FF800
001FF800
001FF800
001FF800
001FF800
001FF800
001FF800
001FF800
001FF800
001FF800
001FF800
001FF800
001FF800
ENDCHAR
STARTCHAR 00DE
ENCODING 222
SWIDTH 540 0
DWIDTH 36 0
BBX 30 54 3 0
BITMAP
FFC00000
FFC00000
FFC00000
FFC00000
FFC00000
FFC00000
FFC00000
FFFFFF80
FFFFFFC0
FFFFFFE0
FFFFFFE0
FFFFFFF0
FFFFFFF8
FFFFFFFC
FFFFFFFC
FFFFFFFC
FFFFFFFC
FFFFFFFC
FFC01FFC
FFC00FFC
FFC00FFC
FFC00FFC
FFC00FFC
FFC00FFC
FFC00FFC
FFC00FFC
FFC00FFC
FFC01FFC
FFFFFFFC
FFFFFFFC
FFFFFFFC
FFFFFFFC
FFFFFFFC
FFFFFFF8
FFFFFFF0
FFFFFFE0
FFFFFFE0
FFFFFFC0
FFFFFF80
FFC00000
FFC00000
FFC00000
FFC00000
FFC00000
FFC00000
FFC00000
FFC00000
FFC00000
FFC00000
FFC00000
FFC00000
FFC00000
FFC00000
FFC00000
ENDCHAR
STARTCHAR 00DF
ENCODING 223
SWIDTH 570 0
DWIDTH 38 0
BBX 33 47 3 0
BITMAP
07FFFFF000
0FFFFFF800
1FFFFFF800
1FFFFFFC00
3FFFFFFE00
7FFFFFFE00
7FFFFFFF00
FFFFFFFF80
FFFFFFFF80
FFC007FF80
FFC003FF80
FFC001FF80
FFC001FF80
FFC001FF80
FFC001FF80
FFC001FF80
FFC001FF80
FFC001FF80
FFC1FFFF80
FFC3FFFF80
FFC3FFFF00
FFC7FFFE00
FFC7FFFC00
FFC7FFFC00
FFC7FFFE00
FFC7FFFF00
FFC7FFFF80
FFC3FFFF80
FFC1FFFF80
FFC001FF80
FFC001FF80
FFC001FF80
FFC001FF80
FFC001FF80
FFC001FF80
FFC001FF80
FFC003FF80
FFC007FF80
FFC7FFFF80
FFC7FFFF80
FFC7FFFF00
FFC7FFFF00
FFC7FFFE00
FFC7FFFC00
FFC7FFF800
FFC7FFF800
FFC7FFF000
ENDCHAR
STARTCHAR 00E0
ENCODING 224
SWIDTH 585 0
DWIDTH 39 0
BBX 37 56 1 0
BITMAP
03FC000000
03FFE00000
03FFFF0000
03FFFFF800
00FFFFFC00
0007FFFC00
0000003C00
0000000000
0000000000
003FFFE000
007FFFF000
007FFFF000
00FFFFF800
00FFFFF800
00FFFFF800
00FFFFF800
00FFFFFC00
01FFFFFC00
01FFFFFC00
01FFFFFC00
01FE03FC00
01FE03FE00
03FE03FE00
03FE03FE00
03FE03FE00
03FE03FE00
03FE03FF00
07FC01FF00
07FC01FF00
07FC01FF00
07FC01FF00
07FC01FF80
0FFC01FF80
0FF800FF80
0FF800FF80
0FF800FF80
0FF800FFC0
1FF800FFC0
1FFC01FFC0
1FFFFFFFC0
1FFFFFFFC0
1FFFFFFFE0
3FFFFFFFE0
3FFFFFFFE0
3FFFFFFFE0
3FF7FF7FE0
3FF3FE7FF0
7FE0003FF0
7FE0003FF0
7FE0003FF0
7FE0003FF0
7FE0003FF8
FFE0003FF8
FFC0001FF8
FFC0001FF8
FFC0001FF8
ENDCHAR
STARTCHAR 00E1
ENCODING 225
SWIDTH 585 0
DWIDTH 39 0
BBX 37 56 1 0
BITMAP
00000FFC00
007FFFFC00
03FFFFFC00
03FFFFC000
03FFFC0000
03FF800000
03F0000000
0000000000
0000000000
003FFFE000
007FFFF000
007FFFF000
00FFFFF800
00FFFFF800
00FFFFF800
00FFFFF800
00FFFFFC00
01FFFFFC00
01FFFFFC00
01FFFFFC00
01FE03FC00
01FE03FE00
03FE03FE00
03FE03FE00
03FE03FE00
03FE03FE00
03FE03FF00
07FC01FF00
07FC01FF00
07FC01FF00
07FC01FF00
07FC01FF80
0FFC01FF80
0FF800FF80
0FF800FF80
0FF800FF80
0FF800FFC0
1FF800FFC0
1FFC01FFC0
1FFFFFFFC0
1FFFFFFFC0
1FFFFFFFE0
3FFFFFFFE0
3FFFFFFFE0
3FFFFFFFE0
3FF7FF7FE0
3FF3FE7FF0
7FE0003FF0
7FE0003FF0
7FE0003FF0
7FE0003FF0
7FE0003FF8
FFE0003FF8
FFC0001FF8
FFC0001FF8
FFC0001FF8
ENDCHAR
STARTCHAR 00E2
ENCODING 226
SWIDTH 585 0
DWIDTH 39 0
BBX 37 57 1 0
BITMAP
007FFFF000
00FFFFF800
01FFFFFC00
03FFFFFE00
07FFFFFF00
07F000FF00
07E0007F00
07C0001F00
0000000000
0000000000
003FFFE000
007FFFF000
007FFFF000
00FFFFF800
00FFFFF800
00FFFFF800
00FFFFF800
00FFFFFC00
01FFFFFC00
01FFFFFC00
01FFFFFC00
01FE03FC00
01FE03FE00
03FE03FE00
03FE03FE00
03FE03FE00
03FE03FE00
03FE03FF00
07FC01FF00
07FC01FF00
07FC01FF00
07FC01FF00
07FC01FF80
0FFC01FF80
0FF800FF80
0FF800FF80
0FF800FF80
0FF800FFC0
1FF800FFC0
1FFC01FFC0
1FFFFFFFC0
1FFFFFFFC0
1FFFFFFFE0
3FFFFFFFE0
3FFFFFFFE0
3FFFFFFFE0
3FF7FF7FE0
3FF3FE7FF0
7FE0003FF0
7FE0003FF0
7FE0003FF0
7FE0003FF0
7FE0003FF8
FFE0003FF8
FFC0001FF8
FFC0001FF8
FFC0001FF8
ENDCHAR
STARTCHAR 00E3
ENCODING 227
SWIDTH 585 0
DWIDTH 39 0
BBX 37 58 1 0
BITMAP
000F800000
003FE00300
00FFFC0F00
03FFFFBF00
07FFFFFF00
07F0FFFF00
07E01FFE00
078003F800
0700006000
0000000000
0000000000
003FFFE000
007FFFF000
007FFFF000
00FFFFF800
00FFFFF800
00FFFFF800
00FFFFF800
00FFFFFC00
01FFFFFC00
01FFFFFC00
01FFFFFC00
01FE03FC00
01FE03FE00
03FE03FE00
03FE03FE00
03FE03FE00
03FE03FE00
03FE03FF00
07FC01FF00
07FC01FF00
07FC01FF00
07FC01FF00
07FC01FF80
0FFC01FF80
0FF800FF80
0FF800FF80
0FF800FF80
0FF800FFC0
1FF800FFC0
1FFC01FFC0
1FFFFFFFC0
1FFFFFFFC0
1FFFFFFFE0
3FFFFFFFE0
3FFFFFFFE0
3FFFFFFFE0
3FF7FF7FE0
3FF3FE7FF0
7FE0003FF0
7FE0003FF0
7FE0003FF0
7FE0003FF0
7FE0003FF8
FFE0003FF8
FFC0001FF8
FFC0001FF8
FFC0001FF8
ENDCHAR
STARTCHAR 00E4
ENCODING 228
SWIDTH 585 0
DWIDTH 39 0
BBX 37 55 1 0
BITMAP
003F07E000
003F07E000
003F07E000
003F07E000
003F07E000
003F07E000
0000000000
0000000000
003FFFE000
007FFFF000
007FFFF000
00FFFFF800
00FFFFF800
00FFFFF800
00FFFFF800
00FFFFFC00
01FFFFFC00
01FFFFFC00
01FFFFFC00
01FE03FC00
01FE03FE00
03FE03FE00
03FE03FE00
03FE03FE00
03FE03FE00
03FE03FF00
07FC01FF00
07FC01FF00
07FC01FF00
07FC01FF00
07FC01FF80
0FFC01FF80
0FF800FF80
0FF800FF80
0FF800FF80
0FF800FFC0
1FF800FFC0
1FFC01FFC0
1FFFFFFFC0
1FFFFFFFC0
1FFFFFFFE0
3FFFFFFFE0
3FFFFFFFE0
3FFFFFFFE0
3FF7FF7FE0
3FF3FE7FF0
7FE0003FF0
7FE0003FF0
7FE0003FF0
7FE0003FF0
7FE0003FF8
FFE0003FF8
FFC0001FF8
FFC0001FF8
FFC0001FF8
ENDCHAR
STARTCHAR 00E5
ENCODING 229
SWIDTH 585 0
DWIDTH 39 0
BBX 37 59 1 0
BITMAP
0001FC0000
0003FE0000
0003FE0000
00038E0000
00038E0000
00038E0000
00038E0000
0003FE0000
0003FE0000
0001FC0000
0000000000
0000000000
003FFFE000
007FFFF000
007FFFF000
00FFFFF800
00FFFFF800
00FFFFF800
00FFFFF800
00FFFFFC00
01FFFFFC00
01FFFFFC00
01FFFFFC00
01FE03FC00
01FE03FE00
03FE03FE00
03FE03FE00
03FE03FE00
03FE03FE00
03FE03FF00
07FC01FF00
07FC01FF00
07FC01FF00
07FC01FF00
07FC01FF80
0FFC01FF80
0FF800FF80
0FF800FF80
0FF800FF80
0FF800FFC0
1FF800FFC0
1FFC01FFC0
1FFFFFFFC0
1FFFFFFFC0
1FFFFFFFE0
3FFFFFFFE0
3FFFFFFFE0
3FFFFFFFE0
3FF7FF7FE0
3FF3FE7FF0
7FE0003FF0
7FE0003FF0
7FE0003FF0
7FE0003FF0
7FE0003FF8
FFE0003FF8
FFC0001FF8
FFC0001FF8
FFC0001FF8
ENDCHAR
STARTCHAR 00E6
ENCODING 230
SWIDTH 840 0
DWIDTH 56 0
BBX 52 47 1 0
BITMAP
003FFFFFFFFE00
007FFFFFFFFF00
007FFFFFFFFF80
00FFFFFFFFFF80
00FFFFFFFFFFC0
00FFFFFFFFFFE0
00FFFFFFFFFFE0
00FFFFFFFFFFF0
01FFFFFFFFFFF0
01FFFFFFFFFFF0
01FFFFFFFFFFF0
01FE07FF001FF0
01FE07FF000FF0
03FE07FF000000
03FE07FF000000
03FE07FF000000
03FE07FF000000
03FE07FF000000
07FC07FF000000
07FC07FF000000
07FC07FFFFF000
07FC07FFFFF000
07FC07FFFFF000
0FFC07FFFFF000
0FF807FFFFF000
0FF807FFFFF000
0FF807FFFFF000
0FF807FFFFF000
1FF807FF000000
1FFC07FF000000
1FFFFFFF000000
1FFFFFFF000000
1FFFFFFF000000
3FFFFFFF000000
3FFFFFFF000FF0
3FFFFFFF001FF0
3FF7FFFF001FF0
3FF3FFFFFFFFF0
7FE007FFFFFFF0
7FE007FFFFFFF0
7FE007FFFFFFF0
7FE007FFFFFFE0
7FE007FFFFFFC0
FFE007FFFFFFC0
FFC007FFFFFF80
FFC007FFFFFF00
FFC007FFFFFE00
ENDCHAR
STARTCHAR 00E7
ENCODING 231
SWIDTH 540 0
DWIDTH 36 0
BBX 31 57 3 -10
BITMAP
FFFFFFC0
FFFFFFC0
FFFFFFE0
FFFFFFF0
FFFFFFF0
FFFFFFF8
FFFFFFFC
FFFFFFFE
FFFFFFFE
FFFFFFFE
FFFFFFFE
FFC00FFE
FFC007FE
FFC00000
FFC00000
FFC00000
FFC00000
FFC00000
FFC00000
FFC00000
FFC00000
FFC00000
FFC00000
FFC00000
FFC00000
FFC00000
FFC00000
FFC00000
FFC00000
FFC00000
FFC00000
FFC00000
FFC00000
FFC00000
FFC007FE
FFC00FFE
FFC01FFE
FFFFFFFE
FFFFFFFE
FFFFFFFE
FFFFFFFC
FFFFFFF8
FFFFFFF8
FFFFFFF0
FFFFFFE0
FFFFFFE0
FFFFFFC0
0001E000
0003C000
001F8000
001F8000
001F8000
00038000
00038000
007F8000
00FF0000
00FF0000
ENDCHAR
STARTCHAR 00E8
ENCODING 232
SWIDTH 540 0
DWIDTH 36 0
BBX 31 56 3 0
BITMAP
1FC00000
1FFE0000
1FFFF000
1FFFFF80
0FFFFFE0
007FFFE0
000001E0
00000000
00000000
FFFFFF80
FFFFFFC0
FFFFFFE0
FFFFFFF0
FFFFFFF0
FFFFFFF8
FFFFFFFC
FFFFFFFC
FFFFFFFE
FFFFFFFE
FFFFFFFE
FFC007FE
FFC003FE
FFC00000
FFC00000
FFC00000
FFC00000
FFC00000
FFC00000
FFC00000
FFFFFE00
FFFFFE00
FFFFFE00
FFFFFE00
FFFFFE00
FFFFFE00
FFFFFE00
FFFFFE00
FFC00000
FFC00000
FFC00000
FFC00000
FFC00000
FFC00000
FFC003FE
FFC003FE
FFC007FE
FFFFFFFE
FFFFFFFE
FFFFFFFE
FFFFFFFC
FFFFFFF8
FFFFFFF0
FFFFFFF0
FFFFFFE0
FFFFFFC0
FFFFFFC0
ENDCHAR
STARTCHAR 00E9
ENCODING 233
SWIDTH 540 0
DWIDTH 36 0
BBX 31 56 3 0
BITMAP
0000FFE0
03FFFFE0
1FFFFFE0
1FFFFE00
1FFFC000
1FF80000
1F000000
00000000
00000000
FFFFFF80
FFFFFFC0
FFFFFFE0
FFFFFFF0
FFFFFFF0
FFFFFFF8
FFFFFFFC
FFFFFFFC
FFFFFFFE
FFFFFFFE
FFFFFFFE
FFC007FE
FFC003FE
FFC00000
FFC00000
FFC00000
FFC00000
FFC00000
FFC00000
FFC00000
FFFFFE00
FFFFFE00
FFFFFE00
FFFFFE00
FFFFFE00
FFFFFE00
FFFFFE00
FFFFFE00
FFC00000
FFC00000
FFC00000
FFC00000
FFC00000
FFC00000
FFC003FE
FFC003FE
FFC007FE
FFFFFFFE
FFFFFFFE
FFFFFFFE
FFFFFFFC
FFFFFFF8
FFFFFFF0
FFFFFFF0
FFFFFFE0
FFFFFFC0
FFFFFFC0
ENDCHAR
STARTCHAR 00EA
ENCODING 234
SWIDTH 540 0
DWIDTH 36 0
BBX 31 57 3 0
BITMAP
0FFFFE00
1FFFFF00
3FFFFF80
7FFFFFC0
FFFFFFE0
FE001FE0
FC0007E0
F80003E0
00000000
00000000
FFFFFF80
FFFFFFC0
FFFFFFE0
FFFFFFF0
FFFFFFF0
FFFFFFF8
FFFFFFFC
FFFFFFFC
FFFFFFFE
FFFFFFFE
FFFFFFFE
FFC007FE
FFC003FE
FFC00000
FFC00000
FFC00000
FFC00000
FFC00000
FFC00000
FFC00000
FFFFFE00
FFFFFE00
FFFFFE00
FFFFFE00
FFFFFE00
FFFFFE00
FFFFFE00
FFFFFE00
FFC00000
FFC00000
FFC00000
FFC00000
FFC00000
FFC00000
FFC003FE
FFC003FE
FFC007FE
FFFFFFFE
FFFFFFFE
FFFFFFFE
FFFFFFFC
FFFFFFF8
FFFFFFF0
FFFFFFF0
FFFFFFE0
FFFFFFC0
FFFFFFC0
ENDCHAR
STARTCHAR 00EB
ENCODING 235
SWIDTH 540 0
DWIDTH 36 0
BBX 31 55 3 0
BITMAP
07E0FC00
07E0FC00
07E0FC00
07E0FC00
07E0FC00
07E0FC00
00000000
00000000
FFFFFF80
FFFFFFC0
FFFFFFE0
FFFFFFF0
FFFFFFF0
FFFFFFF8
FFFFFFFC
FFFFFFFC
FFFFFFFE
FFFFFFFE
FFFFFFFE
FFC007FE
FFC003FE
FFC00000
FFC00000
FFC00000
FFC00000
FFC00000
FFC00000
FFC00000
FFFFFE00
FFFFFE00
FFFFFE00
FFFFFE00
FFFFFE00
FFFFFE00
FFFFFE00
FFFFFE00
FFC00000
FFC00000
FFC00000
FFC00000
FFC00000
FFC00000
FFC003FE
FFC003FE
FFC007FE
FFFFFFFE
FFFFFFFE
FFFFFFFE
FFFFFFFC
FFFFFFF8
FFFFFFF0
FFFFFFF0
FFFFFFE0
FFFFFFC0
FFFFFFC0
ENDCHAR
STARTCHAR 00EC
ENCODING 236
SWIDTH 225 0
DWIDTH 15 0
BBX 24 56 -4 0
BITMAP
FF0000
FFF800
FFFF80
FFFFFC
7FFFFF
03FFFF
00000F
000000
000000
01FF80
01FF80
01FF80
01FF80
01FF80
01FF80
01FF80
01FF80
01FF80
01FF80
01FF80
01FF80
01FF80
01FF80
01FF80
01FF80
01FF80
01FF80
01FF80
01FF80
01FF80
01FF80
01FF80
01FF80
01FF80
01FF80
01FF80
01FF80
01FF80
01FF80
01FF80
01FF80
01FF80
01FF80
01FF80
01FF80
01FF80
01FF80
01FF80
01FF80
01FF80
01FF80
01FF80
01FF80
01FF80
01FF80
01FF80
ENDCHAR
STARTCHAR 00ED
ENCODING 237
SWIDTH 225 0
DWIDTH 15 0
BBX 24 56 -4 0
BITMAP
0007FF
1FFFFF
FFFFFF
FFFFF0
FFFE00
FFC000
F80000
000000
000000
01FF80
01FF80
01FF80
01FF80
01FF80
01FF80
01FF80
01FF80
01FF80
01FF80
01FF80
01FF80
01FF80
01FF80
01FF80
01FF80
01FF80
01FF80
01FF80
01FF80
01FF80
01FF80
01FF80
01FF80
01FF80
01FF80
01FF80
01FF80
01FF80
01FF80
01FF80
01FF80
01FF80
01FF80
01FF80
01FF80
01FF80
01FF80
01FF80
01FF80
01FF80
01FF80
01FF80
01FF80
01FF80
01FF80
01FF80
ENDCHAR
STARTCHAR 00EE
ENCODING 238
SWIDTH 480 0
DWIDTH 32 0
BBX 27 58 3 -1
BITMAP
0FFFFE00
1FFFFF00
3FFFFF80
7FFFFFC0
FFFFFFE0
FE001FE0
FC0007E0
F80003E0
00000000
00000000
00000000
007FE000
007FE000
007FE000
007FE000
007FE000
007FE000
007FE000
007FE000
007FE000
007FE000
007FE000
007FE000
007FE000
007FE000
007FE000
007FE000
007FE000
007FE000
007FE000
007FE000
007FE000
007FE000
007FE000
007FE000
007FE000
007FE000
007FE000
007FE000
007FE000
007FE000
007FE000
007FE000
007FE000
007FE000
007FE000
007FE000
007FE000
007FE000
007FE000
007FE000
007FE000
007FE000
007FE000
007FE000
007FE000
007FE000
007FE000
ENDCHAR
STARTCHAR 00EF
ENCODING 239
SWIDTH 225 0
DWIDTH 15 0
BBX 17 55 -1 0
BITMAP
FC1F80
FC1F80
FC1F80
FC1F80
FC1F80
FC1F80
000000
000000
0FFC00
0FFC00
0FFC00
0FFC00
0FFC00
0FFC00
0FFC00
0FFC00
0FFC00
0FFC00
0FFC00
0FFC00
0FFC00
0FFC00
0FFC00
0FFC00
0FFC00
0FFC00
0FFC00
0FFC00
0FFC00
0FFC00
0FFC00
0FFC00
0FFC00
0FFC00
0FFC00
0FFC00
0FFC00
0FFC00
0FFC00
0FFC00
0FFC00
0FFC00
0FFC00
0FFC00
0FFC00
0FFC00
0FFC00
0FFC00
0FFC00
0FFC00
0FFC00
0FFC00
0FFC00
0FFC00
0FFC00
ENDCHAR
STARTCHAR 00F0
ENCODING 240
SWIDTH 570 0
DWIDTH 38 0
BBX 37 47 -1 0
BITMAP
0FFFFFFF00
0FFFFFFF80
0FFFFFFF80
0FFFFFFFC0
0FFFFFFFE0
0FFFFFFFE0
0FFFFFFFF0
0FFFFFFFF8
0FFFFFFFF8
0FFFFFFFF8
0FFFFFFFF8
0FFC003FF8
0FFC003FF8
0FFC001FF8
0FFC001FF8
0FFC001FF8
0FFC001FF8
0FFC001FF8
0FFC001FF8
0FFC001FF8
0FFC001FF8
FFFFF01FF8
FFFFF01FF8
FFFFF01FF8
FFFFF01FF8
FFFFF01FF8
FFFFF01FF8
0FFC001FF8
0FFC001FF8
0FFC001FF8
0FFC001FF8
0FFC001FF8
0FFC001FF8
0FFC001FF8
0FFC001FF8
0FFC003FF8
0FFC007FF8
0FFFFFFFF8
0FFFFFFFF8
0FFFFFFFF8
0FFFFFFFF0
0FFFFFFFF0
0FFFFFFFE0
0FFFFFFFC0
0FFFFFFF80
0FFFFFFF80
0FFFFFFF00
ENDCHAR
STARTCHAR 00F1
ENCODING 241
SWIDTH 570 0
DWIDTH 38 0
BBX 32 58 3 0
BITMAP
003E0000
00FF800C
03FFF03C
0FFFFEFC
1FFFFFFC
1FC3FFFC
1F807FF8
1E000FE0
1C000180
00000000
00000000
07C003FF
0FE003FF
1FE003FF
1FE003FF
3FF003FF
7FF003FF
7FF803FF
FFF803FF
FFFC03FF
FFFC03FF
FFFE03FF
FFFE03FF
FFFE03FF
FFFF03FF
FFFF03FF
FFFF83FF
FFFF83FF
FFFFC3FF
FFFFC3FF
FFFFE3FF
FFFFE3FF
FFFFF3FF
FFFFF3FF
FFFFF3FF
FFCFFFFF
FFCFFFFF
FFC7FFFF
FFC7FFFF
FFC3FFFF
FFC3FFFF
FFC1FFFF
FFC1FFFF
FFC0FFFF
FFC0FFFF
FFC07FFF
FFC07FFF
FFC07FFF
FFC03FFF
FFC03FFF
FFC01FFF
FFC01FFF
FFC00FFE
FFC00FFC
FFC007FC
FFC007F8
FFC007F0
FFC003F0
ENDCHAR
STARTCHAR 00F2
ENCODING 242
SWIDTH 615 0
DWIDTH 41 0
BBX 36 56 3 0
BITMAP
07F8000000
07FFC00000
07FFFE0000
07FFFFF000
03FFFFF800
001FFFF800
0000007800
0000000000
0000000000
07FFFFFC00
0FFFFFFE00
1FFFFFFF00
1FFFFFFF80
3FFFFFFF80
7FFFFFFFC0
7FFFFFFFE0
FFFFFFFFE0
FFFFFFFFF0
FFFFFFFFF0
FFFFFFFFF0
FFE000FFF0
FFC0007FF0
FFC0007FF0
FFC0007FF0
FFC0007FF0
FFC0007FF0
FFC0007FF0
FFC0007FF0
FFC0007FF0
FFC0007FF0
FFC0007FF0
FFC0007FF0
FFC0007FF0
FFC0007FF0
FFC0007FF0
FFC0007FF0
FFC0007FF0
FFC0007FF0
FFC0007FF0
FFC0007FF0
FFC0007FF0
FFC0007FF0
FFC0007FF0
FFC0007FF0
FFE000FFF0
FFF000FFF0
FFFFFFFFF0
FFFFFFFFF0
FFFFFFFFF0
FFFFFFFFE0
7FFFFFFFC0
3FFFFFFFC0
3FFFFFFF80
1FFFFFFF00
0FFFFFFE00
07FFFFFE00
ENDCHAR
STARTCHAR 00F3
ENCODING 243
SWIDTH 615 0
DWIDTH 41 0
BBX 36 56 3 0
BITMAP
00003FF800
00FFFFF800
07FFFFF800
07FFFF8000
07FFF00000
07FE000000
07E0000000
0000000000
0000000000
07FFFFFC00
0FFFFFFE00
1FFFFFFF00
1FFFFFFF80
3FFFFFFF80
7FFFFFFFC0
7FFFFFFFE0
FFFFFFFFE0
FFFFFFFFF0
FFFFFFFFF0
FFFFFFFFF0
FFE000FFF0
FFC0007FF0
FFC0007FF0
FFC0007FF0
FFC0007FF0
FFC0007FF0
FFC0007FF0
FFC0007FF0
FFC0007FF0
FFC0007FF0
FFC0007FF0
FFC0007FF0
FFC0007FF0
FFC0007FF0
FFC0007FF0
FFC0007FF0
FFC0007FF0
FFC0007FF0
FFC0007FF0
FFC0007FF0
FFC0007FF0
FFC0007FF0
FFC0007FF0
FFC0007FF0
FFE000FFF0
FFF000FFF0
FFFFFFFFF0
FFFFFFFFF0
FFFFFFFFF0
FFFFFFFFE0
7FFFFFFFC0
3FFFFFFFC0
3FFFFFFF80
1FFFFFFF00
0FFFFFFE00
07FFFFFE00
ENDCHAR
STARTCHAR 00F4
ENCODING 244
SWIDTH 615 0
DWIDTH 41 0
BBX 36 57 3 0
BITMAP
00FFFFE000
01FFFFF000
03FFFFF800
07FFFFFC00
0FFFFFFE00
0FF000FE00
0FC0007E00
0F80003E00
0000000000
0000000000
07FFFFFC00
0FFFFFFE00
1FFFFFFF00
1FFFFFFF80
3FFFFFFF80
7FFFFFFFC0
7FFFFFFFE0
FFFFFFFFE0
FFFFFFFFF0
FFFFFFFFF0
FFFFFFFFF0
FFE000FFF0
FFC0007FF0
FFC0007FF0
FFC0007FF0
FFC0007FF0
FFC0007FF0
FFC0007FF0
FFC0007FF0
FFC0007FF0
FFC0007FF0
FFC0007FF0
FFC0007FF0
FFC0007FF0
FFC0007FF0
FFC0007FF0
FFC0007FF0
FFC0007FF0
FFC0007FF0
FFC0007FF0
FFC0007FF0
FFC0007FF0
FFC0007FF0
FFC0007FF0
FFC0007FF0
FFE000FFF0
FFF000FFF0
FFFFFFFFF0
FFFFFFFFF0
FFFFFFFFF0
FFFFFFFFE0
7FFFFFFFC0
3FFFFFFFC0
3FFFFFFF80
1FFFFFFF00
0FFFFFFE00
07FFFFFE00
ENDCHAR
STARTCHAR 00F5
ENCODING 245
SWIDTH 615 0
DWIDTH 41 0
BBX 36 58 3 0
BITMAP
001F000000
007FE00200
01FFFC0E00
07FFFF3E00
0FFFFFFE00
0FF0FFFE00
0FC01FFE00
0F0007F000
0E0000C000
0000000000
0000000000
07FFFFFC00
0FFFFFFE00
1FFFFFFF00
1FFFFFFF80
3FFFFFFF80
7FFFFFFFC0
7FFFFFFFE0
FFFFFFFFE0
FFFFFFFFF0
FFFFFFFFF0
FFFFFFFFF0
FFE000FFF0
FFC0007FF0
FFC0007FF0
FFC0007FF0
FFC0007FF0
FFC0007FF0
FFC0007FF0
FFC0007FF0
FFC0007FF0
FFC0007FF0
FFC0007FF0
FFC0007FF0
FFC0007FF0
FFC0007FF0
FFC0007FF0
FFC0007FF0
FFC0007FF0
FFC0007FF0
FFC0007FF0
FFC0007FF0
FFC0007FF0
FFC0007FF0
FFC0007FF0
FFC0007FF0
FFE000FFF0
FFF000FFF0
FFFFFFFFF0
FFFFFFFFF0
FFFFFFFFF0
FFFFFFFFE0
7FFFFFFFC0
3FFFFFFFC0
3FFFFFFF80
1FFFFFFF00
0FFFFFFE00
07FFFFFE00
ENDCHAR
STARTCHAR 00F6
ENCODING 246
SWIDTH 615 0
DWIDTH 41 0
BBX 36 55 3 0
BITMAP
007E0FC000
007E0FC000
007E0FC000
007E0FC000
007E0FC000
007E0FC000
0000000000
0000000000
07FFFFFC00
0FFFFFFE00
1FFFFFFF00
1FFFFFFF80
3FFFFFFF80
7FFFFFFFC0
7FFFFFFFE0
FFFFFFFFE0
FFFFFFFFF0
FFFFFFFFF0
FFFFFFFFF0
FFE000FFF0
FFC0007FF0
FFC0007FF0
FFC0007FF0
FFC0007FF0
FFC0007FF0
FFC0007FF0
FFC0007FF0
FFC0007FF0
FFC0007FF0
FFC0007FF0
FFC0007FF0
FFC0007FF0
FFC0007FF0
FFC0007FF0
FFC0007FF0
FFC0007FF0
FFC0007FF0
FFC0007FF0
FFC0007FF0
FFC0007FF0
FFC0007FF0
FFC0007FF0
FFC0007FF0
FFE000FFF0
FFF000FFF0
FFFFFFFFF0
FFFFFFFFF0
FFFFFFFFF0
FFFFFFFFE0
7FFFFFFFC0
3FFFFFFFC0
3FFFFFFF80
1FFFFFFF00
0FFFFFFE00
07FFFFFE00
ENDCHAR
STARTCHAR 00F7
ENCODING 247
SWIDTH 420 0
DWIDTH 28 0
BBX 26 25 1 11
BITMAP
003F8000
003F8000
003F8000
003F8000
003F8000
003F8000
003F8000
00000000
00000000
FFFFFFC0
FFFFFFC0
FFFFFFC0
FFFFFFC0
FFFFFFC0
FFFFFFC0
FFFFFFC0
00000000
00000000
003F8000
003F8000
003F8000
003F8000
003F8000
003F8000
003F8000
ENDCHAR
STARTCHAR 00F8
ENCODING 248
SWIDTH 615 0
DWIDTH 41 0
BBX 36 57 3 -5
BITMAP
0000001FC0
0000001FC0
0000003FC0
0000003F80
0000007F80
07FFFFFF00
0FFFFFFF00
1FFFFFFF00
1FFFFFFF80
3FFFFFFF80
7FFFFFFFC0
7FFFFFFFE0
FFFFFFFFE0
FFFFFFFFF0
FFFFFFFFF0
FFFFFFFFF0
FFE00FFFF0
FFC01FFFF0
FFC01FFFF0
FFC03FFFF0
FFC03FFFF0
FFC07FFFF0
FFC07F7FF0
FFC0FF7FF0
FFC0FE7FF0
FFC1FE7FF0
FFC1FC7FF0
FFC1FC7FF0
FFC3F87FF0
FFC3F87FF0
FFC7F07FF0
FFC7F07FF0
FFCFF07FF0
FFCFE07FF0
FFDFE07FF0
FFDFC07FF0
FFFFC07FF0
FFFF807FF0
FFFF807FF0
FFFF007FF0
FFFF00FFF0
FFFE00FFF0
FFFFFFFFF0
FFFFFFFFF0
FFFFFFFFF0
FFFFFFFFE0
7FFFFFFFC0
3FFFFFFFC0
1FFFFFFF80
1FFFFFFF00
0FFFFFFE00
1FFFFFFE00
1FC0000000
3FC0000000
3F80000000
7F80000000
7F00000000
ENDCHAR
STARTCHAR 00F9
ENCODING 249
SWIDTH 600 0
DWIDTH 40 0
BBX 35 56 3 0
BITMAP
03FC000000
03FFE00000
03FFFF0000
03FFFFF000
01FFFFFC00
000FFFFC00
0000003C00
0000000000
0000000000
FFC0007FE0
FFC0007FE0
FFC0007FE0
FFC0007FE0
FFC0007FE0
FFC0007FE0
FFC0007FE0
FFC0007FE0
FFC0007FE0
FFC0007FE0
FFC0007FE0
FFC0007FE0
FFC0007FE0
FFC0007FE0
FFC0007FE0
FFC0007FE0
FFC0007FE0
FFC0007FE0
FFC0007FE0
FFC0007FE0
FFC0007FE0
FFC0007FE0
FFC0007FE0
FFC0007FE0
FFC0007FE0
FFC0007FE0
FFC0007FE0
FFC0007FE0
FFC0007FE0
FFC0007FE0
FFC0007FE0
FFC0007FE0
FFC0007FE0
FFC0007FE0
FFC0007FE0
FFE000FFE0
FFF001FFE0
FFFFFFFFE0
FFFFFFFFE0
FFFFFFFFE0
FFFFFFFFE0
7FFFFFFFC0
3FFFFFFF80
3FFFFFFF00
1FFFFFFF00
0FFFFFFE00
07FFFFFC00
ENDCHAR
STARTCHAR 00FA
ENCODING 250
SWIDTH 600 0
DWIDTH 40 0
BBX 35 56 3 0
BITMAP
00001FFC00
007FFFFC00
03FFFFFC00
03FFFFC000
03FFF80000
03FF000000
03E0000000
0000000000
0000000000
FFC0007FE0
FFC0007FE0
FFC0007FE0
FFC0007FE0
FFC0007FE0
FFC0007FE0
FFC0007FE0
FFC0007FE0
FFC0007FE0
FFC0007FE0
FFC0007FE0
FFC0007FE0
FFC0007FE0
FFC0007FE0
FFC0007FE0
FFC0007FE0
FFC0007FE0
FFC0007FE0
FFC0007FE0
FFC0007FE0
FFC0007FE0
FFC0007FE0
FFC0007FE0
FFC0007FE0
FFC0007FE0
FFC0007FE0
FFC0007FE0
FFC0007FE0
FFC0007FE0
FFC0007FE0
FFC0007FE0
FFC0007FE0
FFC0007FE0
FFC0007FE0
FFC0007FE0
FFE000FFE0
FFF001FFE0
FFFFFFFFE0
FFFFFFFFE0
FFFFFFFFE0
FFFFFFFFE0
7FFFFFFFC0
3FFFFFFF80
3FFFFFFF00
1FFFFFFF00
0FFFFFFE00
07FFFFFC00
ENDCHAR
STARTCHAR 00FB
ENCODING 251
SWIDTH 600 0
DWIDTH 40 0
BBX 35 57 3 0
BITMAP
00FFFFE000
01FFFFF000
03FFFFF800
07FFFFFC00
0FFFFFFE00
0FE000FE00
0FC0007E00
0F80003E00
0000000000
0000000000
FFC0007FE0
FFC0007FE0
FFC0007FE0
FFC0007FE0
FFC0007FE0
FFC0007FE0
FFC0007FE0
FFC0007FE0
FFC0007FE0
FFC0007FE0
FFC0007FE0
FFC0007FE0
FFC0007FE0
FFC0007FE0
FFC0007FE0
FFC0007FE0
FFC0007FE0
FFC0007FE0
FFC0007FE0
FFC0007FE0
FFC0007FE0
FFC0007FE0
FFC0007FE0
FFC0007FE0
FFC0007FE0
FFC0007FE0
FFC0007FE0
FFC0007FE0
FFC0007FE0
FFC0007FE0
FFC0007FE0
FFC0007FE0
FFC0007FE0
FFC0007FE0
FFC0007FE0
FFE000FFE0
FFF001FFE0
FFFFFFFFE0
FFFFFFFFE0
FFFFFFFFE0
FFFFFFFFE0
7FFFFFFFC0
3FFFFFFF80
3FFFFFFF00
1FFFFFFF00
0FFFFFFE00
07FFFFFC00
ENDCHAR
STARTCHAR 00FC
ENCODING 252
SWIDTH 600 0
DWIDTH 40 0
BBX 35 55 3 0
BITMAP
007E0FC000
007E0FC000
007E0FC000
007E0FC000
007E0FC000
007E0FC000
0000000000
0000000000
FFC0007FE0
FFC0007FE0
FFC0007FE0
FFC0007FE0
FFC0007FE0
FFC0007FE0
FFC0007FE0
FFC0007FE0
FFC0007FE0
FFC0007FE0
FFC0007FE0
FFC0007FE0
FFC0007FE0
FFC0007FE0
FFC0007FE0
FFC0007FE0
FFC0007FE0
FFC0007FE0
FFC0007FE0
FFC0007FE0
FFC0007FE0
FFC0007FE0
FFC0007FE0
FFC0007FE0
FFC0007FE0
FFC0007FE0
FFC0007FE0
FFC0007FE0
FFC0007FE0
FFC0007FE0
FFC0007FE0
FFC0007FE0
FFC0007FE0
FFC0007FE0
FFC0007FE0
FFE000FFE0
FFF001FFE0
FFFFFFFFE0
FFFFFFFFE0
FFFFFFFFE0
FFFFFFFFE0
7FFFFFFFC0
3FFFFFFF80
3FFFFFFF00
1FFFFFFF00
0FFFFFFE00
07FFFFFC00
ENDCHAR
STARTCHAR 00FD
ENCODING 253
SWIDTH 465 0
DWIDTH 31 0
BBX 31 56 0 0
BITMAP
00007FF0
01FFFFF0
0FFFFFF0
0FFFFF00
0FFFE000
0FFC0000
0F800000
00000000
00000000
FFC003FE
FFC007FE
FFC007FE
FFE007FE
FFE00FFE
FFE00FFE
7FF00FFE
7FF01FFC
3FF81FFC
3FF81FF8
1FF83FF8
1FFC3FF0
1FFC3FF0
0FFC7FF0
0FFE7FE0
07FE7FE0
07FEFFC0
03FFFFC0
03FFFF80
01FFFF80
01FFFF00
01FFFF00
00FFFF00
00FFFE00
007FFE00
007FFC00
003FFC00
003FF800
001FF800
001FF800
001FF800
001FF800
001FF800
001FF800
001FF800
001FF800
001FF800
001FF800
001FF800
001FF800
001FF800
001FF800
001FF800
001FF800
001FF800
001FF800
001FF800
ENDCHAR
STARTCHAR 00FE
ENCODING 254
SWIDTH 540 0
DWIDTH 36 0
BBX 30 54 3 0
BITMAP
FFC00000
FFC00000
FFC00000
FFC00000
FFC00000
FFC00000
FFC00000
FFFFFF80
FFFFFFC0
FFFFFFE0
FFFFFFE0
FFFFFFF0
FFFFFFF8
FFFFFFFC
FFFFFFFC
FFFFFFFC
FFFFFFFC
FFFFFFFC
FFC01FFC
FFC00FFC
FFC00FFC
FFC00FFC
FFC00FFC
FFC00FFC
FFC00FFC
FFC00FFC
FFC00FFC
FFC01FFC
FFFFFFFC
FFFFFFFC
FFFFFFFC
FFFFFFFC
FFFFFFFC
FFFFFFF8
FFFFFFF0
FFFFFFE0
FFFFFFE0
FFFFFFC0
FFFFFF80
FFC00000
FFC00000
FFC00000
FFC00000
FFC00000
FFC00000
FFC00000
FFC00000
FFC00000
FFC00000
FFC00000
FFC00000
FFC00000
FFC00000
FFC00000
ENDCHAR
STARTCHAR 00FF
ENCODING 255
SWIDTH 465 0
DWIDTH 31 0
BBX 31 55 0 0
BITMAP
01F83F00
01F83F00
01F83F00
01F83F00
01F83F00
01F83F00
00000000
00000000
FFC003FE
FFC007FE
FFC007FE
FFE007FE
FFE00FFE
FFE00FFE
7FF00FFE
7FF01FFC
3FF81FFC
3FF81FF8
1FF83FF8
1FFC3FF0
1FFC3FF0
0FFC7FF0
0FFE7FE0
07FE7FE0
07FEFFC0
03FFFFC0
03FFFF80
01FFFF80
01FFFF00
01FFFF00
00FFFF00
00FFFE00
007FFE00
007FFC00
003FFC00
003FF800
001FF800
001FF800
001FF800
001FF800
001FF800
001FF800
001FF800
001FF800
001FF800
001FF800
001FF800
001FF800
001FF800
001FF800
001FF800
001FF800
001FF800
001FF800
001FF800
ENDCHAR
STARTCHAR 0100
ENCODING 256
SWIDTH 585 0
DWIDTH 39 0
BBX 37 56 1 0
BITMAP
07FFFFFE00
07FFFFFE00
07FFFFFE00
07FFFFFE00
07FFFFFE00
07FFFFFE00
07FFFFFE00
0000000000
0000000000
003FFFE000
007FFFF000
007FFFF000
00FFFFF800
00FFFFF800
00FFFFF800
00FFFFF800
00FFFFFC00
01FFFFFC00
01FFFFFC00
01FFFFFC00
01FE03FC00
01FE03FE00
03FE03FE00
03FE03FE00
03FE03FE00
03FE03FE00
03FE03FF00
07FC01FF00
07FC01FF00
07FC01FF00
07FC01FF00
07FC01FF80
0FFC01FF80
0FF800FF80
0FF800FF80
0FF800FF80
0FF800FFC0
1FF800FFC0
1FFC01FFC0
1FFFFFFFC0
1FFFFFFFC0
1FFFFFFFE0
3FFFFFFFE0
3FFFFFFFE0
3FFFFFFFE0
3FF7FF7FE0
3FF3FE7FF0
7FE0003FF0
7FE0003FF0
7FE0003FF0
7FE0003FF0
7FE0003FF8
FFE0003FF8
FFC0001FF8
FFC0001FF8
FFC0001FF8
ENDCHAR
STARTCHAR 0101
ENCODING 257
SWIDTH 585 0
DWIDTH 39 0
BBX 37 56 1 0
BITMAP
07FFFFFE00
07FFFFFE00
07FFFFFE00
07FFFFFE00
07FFFFFE00
07FFFFFE00
07FFFFFE00
0000000000
0000000000
003FFFE000
007FFFF000
007FFFF000
00FFFFF800
00FFFFF800
00FFFFF800
00FFFFF800
00FFFFFC00
01FFFFFC00
01FFFFFC00
01FFFFFC00
01FE03FC00
01FE03FE00
03FE03FE00
03FE03FE00
03FE03FE00
03FE03FE00
03FE03FF00
07FC01FF00
07FC01FF00
07FC01FF00
07FC01FF00
07FC01FF80
0FFC01FF80
0FF800FF80
0FF800FF80
0FF800FF80
0FF800FFC0
1FF800FFC0
1FFC01FFC0
1FFFFFFFC0
1FFFFFFFC0
1FFFFFFFE0
3FFFFFFFE0
3FFFFFFFE0
3FFFFFFFE0
3FF7FF7FE0
3FF3FE7FF0
7FE0003FF0
7FE0003FF0
7FE0003FF0
7FE0003FF0
7FE0003FF8
FFE0003FF8
FFC0001FF8
FFC0001FF8
FFC0001FF8
ENDCHAR
STARTCHAR 0102
ENCODING 258
SWIDTH 585 0
DWIDTH 39 0
BBX 37 57 1 0
BITMAP
07E0003F00
07F0007F00
07F801FF00
07FFFFFE00
03FFFFFC00
01FFFFF800
00FFFFF000
007FFFE000
0000000000
0000000000
003FFFE000
007FFFF000
007FFFF000
00FFFFF800
00FFFFF800
00FFFFF800
00FFFFF800
00FFFFFC00
01FFFFFC00
01FFFFFC00
01FFFFFC00
01FE03FC00
01FE03FE00
03FE03FE00
03FE03FE00
03FE03FE00
03FE03FE00
03FE03FF00
07FC01FF00
07FC01FF00
07FC01FF00
07FC01FF00
07FC01FF80
0FFC01FF80
0FF800FF80
0FF800FF80
0FF800FF80
0FF800FFC0
1FF800FFC0
1FFC01FFC0
1FFFFFFFC0
1FFFFFFFC0
1FFFFFFFE0
3FFFFFFFE0
3FFFFFFFE0
3FFFFFFFE0
3FF7FF7FE0
3FF3FE7FF0
7FE0003FF0
7FE0003FF0
7FE0003FF0
7FE0003FF0
7FE0003FF8
FFE0003FF8
FFC0001FF8
FFC0001FF8
FFC0001FF8
ENDCHAR
STARTCHAR 0103
ENCODING 259
SWIDTH 585 0
DWIDTH 39 0
BBX 37 57 1 0
BITMAP
07E0003F00
07F0007F00
07F801FF00
07FFFFFE00
03FFFFFC00
01FFFFF800
00FFFFF000
007FFFE000
0000000000
0000000000
003FFFE000
007FFFF000
007FFFF000
00FFFFF800
00FFFFF800
00FFFFF800
00FFFFF800
00FFFFFC00
01FFFFFC00
01FFFFFC00
01FFFFFC00
01FE03FC00
01FE03FE00
03FE03FE00
03FE03FE00
03FE03FE00
03FE03FE00
03FE03FF00
07FC01FF00
07FC01FF00
07FC01FF00
07FC01FF00
07FC01FF80
0FFC01FF80
0FF800FF80
0FF800FF80
0FF800FF80
0FF800FFC0
1FF800FFC0
1FFC01FFC0
1FFFFFFFC0
1FFFFFFFC0
1FFFFFFFE0
3FFFFFFFE0
3FFFFFFFE0
3FFFFFFFE0
3FF7FF7FE0
3FF3FE7FF0
7FE0003FF0
7FE0003FF0
7FE0003FF0
7FE0003FF0
7FE0003FF8
FFE0003FF8
FFC0001FF8
FFC0001FF8
FFC0001FF8
ENDCHAR
STARTCHAR 0104
ENCODING 260
SWIDTH 585 0
DWIDTH 39 0
BBX 41 57 1 -10
BITMAP
003FFFE00000
007FFFF00000
007FFFF00000
00FFFFF80000
00FFFFF80000
00FFFFF80000
00FFFFF80000
00FFFFFC0000
01FFFFFC0000
01FFFFFC0000
01FFFFFC0000
01FE03FC0000
01FE03FE0000
03FE03FE0000
03FE03FE0000
03FE03FE0000
03FE03FE0000
03FE03FF0000
07FC01FF0000
07FC01FF0000
07FC01FF0000
07FC01FF0000
07FC01FF8000
0FFC01FF8000
0FF800FF8000
0FF800FF8000
0FF800FF8000
0FF800FFC000
1FF800FFC000
1FFC01FFC000
1FFFFFFFC000
1FFFFFFFC000
1FFFFFFFE000
3FFFFFFFE000
3FFFFFFFE000
3FFFFFFFE000
3FF7FF7FE000
3FF3FE7FF000
7FE0003FF000
7FE0003FF000
7FE0003FF000
7FE0003FF000
7FE0003FF800
FFE0003FF800
FFC0001FF800
FFC0001FF800
FFC0001FF800
00000000F800
00000000F000
00000001F000
00000001E000
00000003E000
00000003C780
00000003FF80
00000003FF80
00000003FF80
00000003FF00
ENDCHAR
STARTCHAR 0105
ENCODING 261
SWIDTH 585 0
DWIDTH 39 0
BBX 41 57 1 -10
BITMAP
003FFFE00000
007FFFF00000
007FFFF00000
00FFFFF80000
00FFFFF80000
00FFFFF80000
00FFFFF80000
00FFFFFC0000
01FFFFFC0000
01FFFFFC0000
01FFFFFC0000
01FE03FC0000
01FE03FE0000
03FE03FE0000
03FE03FE0000
03FE03FE0000
03FE03FE0000
03FE03FF0000
07FC01FF0000
07FC01FF0000
07FC01FF0000
07FC01FF0000
07FC01FF8000
0FFC01FF8000
0FF800FF8000
0FF800FF8000
0FF800FF8000
0FF800FFC000
1FF800FFC000
1FFC01FFC000
1FFFFFFFC000
1FFFFFFFC000
1FFFFFFFE000
3FFFFFFFE000
3FFFFFFFE000
3FFFFFFFE000
3FF7FF7FE000
3FF3FE7FF000
7FE0003FF000
7FE0003FF000
7FE0003FF000
7FE0003FF000
7FE0003FF800
FFE0003FF800
FFC0001FF800
FFC0001FF800
FFC0001FF800
00000000F800
00000000F000
00000001F000
00000001E000
00000003E000
00000003C780
00000003FF80
00000003FF80
00000003FF80
00000003FF00
ENDCHAR
STARTCHAR 0106
ENCODING 262
SWIDTH 540 0
DWIDTH 36 0
BBX 31 56 3 0
BITMAP
00007FE0
03FFFFE0
1FFFFFE0
1FFFFF00
1FFFE000
1FFC0000
1F800000
00000000
00000000
FFFFFFC0
FFFFFFC0
FFFFFFE0
FFFFFFF0
FFFFFFF0
FFFFFFF8
FFFFFFFC
FFFFFFFE
FFFFFFFE
FFFFFFFE
FFFFFFFE
FFC00FFE
FFC007FE
FFC00000
FFC00000
FFC00000
FFC00000
FFC00000
FFC00000
FFC00000
FFC00000
FFC00000
FFC00000
FFC00000
FFC00000
FFC00000
FFC00000
FFC00000
FFC00000
FFC00000
FFC00000
FFC00000
FFC00000
FFC00000
FFC007FE
FFC00FFE
FFC01FFE
FFFFFFFE
FFFFFFFE
FFFFFFFE
FFFFFFFC
FFFFFFF8
FFFFFFF8
FFFFFFF0
FFFFFFE0
FFFFFFE0
FFFFFFC0
ENDCHAR
STARTCHAR 0107
ENCODING 263
SWIDTH 540 0
DWIDTH 36 0
BBX 31 56 3 0
BITMAP
00007FE0
03FFFFE0
1FFFFFE0
1FFFFF00
1FFFE000
1FFC0000
1F800000
00000000
00000000
FFFFFFC0
FFFFFFC0
FFFFFFE0
FFFFFFF0
FFFFFFF0
FFFFFFF8
FFFFFFFC
FFFFFFFE
FFFFFFFE
FFFFFFFE
FFFFFFFE
FFC00FFE
FFC007FE
FFC00000
FFC00000
FFC00000
FFC00000
FFC00000
FFC00000
FFC00000
FFC00000
FFC00000
FFC00000
FFC00000
FFC00000
FFC00000
FFC00000
FFC00000
FFC00000
FFC00000
FFC00000
FFC00000
FFC00000
FFC00000
FFC007FE
FFC00FFE
FFC01FFE
FFFFFFFE
FFFFFFFE
FFFFFFFE
FFFFFFFC
FFFFFFF8
FFFFFFF8
FFFFFFF0
FFFFFFE0
FFFFFFE0
FFFFFFC0
ENDCHAR
STARTCHAR 0108
ENCODING 264
SWIDTH 540 0
DWIDTH 36 0
BBX 31 57 3 0
BITMAP
0FFFFE00
1FFFFF00
3FFFFF80
7FFFFFC0
FFFFFFE0
FE001FE0
FC0007E0
F80003E0
00000000
00000000
FFFFFFC0
FFFFFFC0
FFFFFFE0
FFFFFFF0
FFFFFFF0
FFFFFFF8
FFFFFFFC
FFFFFFFE
FFFFFFFE
FFFFFFFE
FFFFFFFE
FFC00FFE
FFC007FE
FFC00000
FFC00000
FFC00000
FFC00000
FFC00000
FFC00000
FFC00000
FFC00000
FFC00000
FFC00000
FFC00000
FFC00000
FFC00000
FFC00000
FFC00000
FFC00000
FFC00000
FFC00000
FFC00000
FFC00000
FFC00000
FFC007FE
FFC00FFE
FFC01FFE
FFFFFFFE
FFFFFFFE
FFFFFFFE
FFFFFFFC
FFFFFFF8
FFFFFFF8
FFFFFFF0
FFFFFFE0
FFFFFFE0
FFFFFFC0
ENDCHAR
STARTCHAR 0109
ENCODING 265
SWIDTH 540 0
DWIDTH 36 0
BBX 31 57 3 0
BITMAP
0FFFFE00
1FFFFF00
3FFFFF80
7FFFFFC0
FFFFFFE0
FE001FE0
FC0007E0
F80003E0
00000000
00000000
FFFFFFC0
FFFFFFC0
FFFFFFE0
FFFFFFF0
FFFFFFF0
FFFFFFF8
FFFFFFFC
FFFFFFFE
FFFFFFFE
FFFFFFFE
FFFFFFFE
FFC00FFE
FFC007FE
FFC00000
FFC00000
FFC00000
FFC00000
FFC00000
FFC00000
FFC00000
FFC00000
FFC00000
FFC00000
FFC00000
FFC00000
FFC00000
FFC00000
FFC00000
FFC00000
FFC00000
FFC00000
FFC00000
FFC00000
FFC00000
FFC007FE
FFC00FFE
FFC01FFE
FFFFFFFE
FFFFFFFE
FFFFFFFE
FFFFFFFC
FFFFFFF8
FFFFFFF8
FFFFFFF0
FFFFFFE0
FFFFFFE0
FFFFFFC0
ENDCHAR
STARTCHAR 010A
ENCODING 266
SWIDTH 540 0
DWIDTH 36 0
BBX 31 57 3 0
BITMAP
000FC000
001FE000
001FE000
001FE000
001FE000
001FE000
000FE000
0007C000
00000000
00000000
FFFFFFC0
FFFFFFC0
FFFFFFE0
FFFFFFF0
FFFFFFF0
FFFFFFF8
FFFFFFFC
FFFFFFFE
FFFFFFFE
FFFFFFFE
FFFFFFFE
FFC00FFE
FFC007FE
FFC00000
FFC00000
FFC00000
FFC00000
FFC00000
FFC00000
FFC00000
FFC00000
FFC00000
FFC00000
FFC00000
FFC00000
FFC00000
FFC00000
FFC00000
FFC00000
FFC00000
FFC00000
FFC00000
FFC00000
FFC00000
FFC007FE
FFC00FFE
FFC01FFE
FFFFFFFE
FFFFFFFE
FFFFFFFE
FFFFFFFC
FFFFFFF8
FFFFFFF8
FFFFFFF0
FFFFFFE0
FFFFFFE0
FFFFFFC0
ENDCHAR
STARTCHAR 010B
ENCODING 267
SWIDTH 540 0
DWIDTH 36 0
BBX 31 57 3 0
BITMAP
000FC000
001FE000
001FE000
001FE000
001FE000
001FE000
000FE000
0007C000
00000000
00000000
FFFFFFC0
FFFFFFC0
FFFFFFE0
FFFFFFF0
FFFFFFF0
FFFFFFF8
FFFFFFFC
FFFFFFFE
FFFFFFFE
FFFFFFFE
FFFFFFFE
FFC00FFE
FFC007FE
FFC00000
FFC00000
FFC00000
FFC00000
FFC00000
FFC00000
FFC00000
FFC00000
FFC00000
FFC00000
FFC00000
FFC00000
FFC00000
FFC00000
FFC00000
FFC00000
FFC00000
FFC00000
FFC00000
FFC00000
FFC00000
FFC007FE
FFC00FFE
FFC01FFE
FFFFFFFE
FFFFFFFE
FFFFFFFE
FFFFFFFC
FFFFFFF8
FFFFFFF8
FFFFFFF0
FFFFFFE0
FFFFFFE0
FFFFFFC0
ENDCHAR
STARTCHAR 010C
ENCODING 268
SWIDTH 540 0
DWIDTH 36 0
BBX 31 58 3 0
BITMAP
07000E00
07801E00
07C03E00
07E07E00
07F0FC00
03FFF800
00FFF000
007FE000
003FC000
00000000
00000000
FFFFFFC0
FFFFFFC0
FFFFFFE0
FFFFFFF0
FFFFFFF0
FFFFFFF8
FFFFFFFC
FFFFFFFE
FFFFFFFE
FFFFFFFE
FFFFFFFE
FFC00FFE
FFC007FE
FFC00000
FFC00000
FFC00000
FFC00000
FFC00000
FFC00000
FFC00000
FFC00000
FFC00000
FFC00000
FFC00000
FFC00000
FFC00000
FFC00000
FFC00000
FFC00000
FFC00000
FFC00000
FFC00000
FFC00000
FFC00000
FFC007FE
FFC00FFE
FFC01FFE
FFFFFFFE
FFFFFFFE
FFFFFFFE
FFFFFFFC
FFFFFFF8
FFFFFFF8
FFFFFFF0
FFFFFFE0
FFFFFFE0
FFFFFFC0
ENDCHAR
STARTCHAR 010D
ENCODING 269
SWIDTH 540 0
DWIDTH 36 0
BBX 31 58 3 0
BITMAP
07000E00
07801E00
07C03E00
07E07E00
07F0FC00
03FFF800
00FFF000
007FE000
003FC000
00000000
00000000
FFFFFFC0
FFFFFFC0
FFFFFFE0
FFFFFFF0
FFFFFFF0
FFFFFFF8
FFFFFFFC
FFFFFFFE
FFFFFFFE
FFFFFFFE
FFFFFFFE
FFC00FFE
FFC007FE
FFC00000
FFC00000
FFC00000
FFC00000
FFC00000
FFC00000
FFC00000
FFC00000
FFC00000
FFC00000
FFC00000
FFC00000
FFC00000
FFC00000
FFC00000
FFC00000
FFC00000
FFC00000
FFC00000
FFC00000
FFC00000
FFC007FE
FFC00FFE
FFC01FFE
FFFFFFFE
FFFFFFFE
FFFFFFFE
FFFFFFFC
FFFFFFF8
FFFFFFF8
FFFFFFF0
FFFFFFE0
FFFFFFE0
FFFFFFC0
ENDCHAR
STARTCHAR 010E
ENCODING 270
SWIDTH 570 0
DWIDTH 38 0
BBX 33 58 3 0
BITMAP
01C0038000
01E0078000
01F00F8000
01F81F8000
00FC3F8000
007FFF0000
003FFE0000
001FFC0000
000FF80000
0000000000
0000000000
FFFFFFF000
FFFFFFF800
FFFFFFF800
FFFFFFFC00
FFFFFFFE00
FFFFFFFE00
FFFFFFFF00
FFFFFFFF80
FFFFFFFF80
FFFFFFFF80
FFFFFFFF80
FFC003FF80
FFC003FF80
FFC001FF80
FFC001FF80
FFC001FF80
FFC001FF80
FFC001FF80
FFC001FF80
FFC001FF80
FFC001FF80
FFC001FF80
FFC001FF80
FFC001FF80
FFC001FF80
FFC001FF80
FFC001FF80
FFC001FF80
FFC001FF80
FFC001FF80
FFC001FF80
FFC001FF80
FFC001FF80
FFC001FF80
FFC001FF80
FFC003FF80
FFC007FF80
FFFFFFFF80
FFFFFFFF80
FFFFFFFF80
FFFFFFFF00
FFFFFFFF00
FFFFFFFE00
FFFFFFFC00
FFFFFFF800
FFFFFFF800
FFFFFFF000
ENDCHAR
STARTCHAR 010F
ENCODING 271
SWIDTH 750 0
DWIDTH 50 0
BBX 47 47 3 0
BITMAP
FFFFFFF000F8
FFFFFFF800FC
FFFFFFF800FE
FFFFFFFC00FE
FFFFFFFE00FE
FFFFFFFE00FE
FFFFFFFF00FE
FFFFFFFF80FE
FFFFFFFF80FE
FFFFFFFF81FC
FFFFFFFF83FC
FFC003FF83F8
FFC003FF87F0
FFC001FF8FF0
FFC001FF8FE0
FFC001FF9FC0
FFC001FF8000
FFC001FF8000
FFC001FF8000
FFC001FF8000
FFC001FF8000
FFC001FF8000
FFC001FF8000
FFC001FF8000
FFC001FF8000
FFC001FF8000
FFC001FF8000
FFC001FF8000
FFC001FF8000
FFC001FF8000
FFC001FF8000
FFC001FF8000
FFC001FF8000
FFC001FF8000
FFC001FF8000
FFC003FF8000
FFC007FF8000
FFFFFFFF8000
FFFFFFFF8000
FFFFFFFF8000
FFFFFFFF0000
FFFFFFFF0000
FFFFFFFE0000
FFFFFFFC0000
FFFFFFF80000
FFFFFFF80000
FFFFFFF00000
ENDCHAR
STARTCHAR 0110
ENCODING 272
SWIDTH 570 0
DWIDTH 38 0
BBX 37 47 -1 0
BITMAP
0FFFFFFF00
0FFFFFFF80
0FFFFFFF80
0FFFFFFFC0
0FFFFFFFE0
0FFFFFFFE0
0FFFFFFFF0
0FFFFFFFF8
0FFFFFFFF8
0FFFFFFFF8
0FFFFFFFF8
0FFC003FF8
0FFC003FF8
0FFC001FF8
0FFC001FF8
0FFC001FF8
0FFC001FF8
0FFC001FF8
0FFC001FF8
0FFC001FF8
0FFC001FF8
FFFFF01FF8
FFFFF01FF8
FFFFF01FF8
FFFFF01FF8
FFFFF01FF8
FFFFF01FF8
0FFC001FF8
0FFC001FF8
0FFC001FF8
0FFC001FF8
0FFC001FF8
0FFC001FF8
0FFC001FF8
0FFC001FF8
0FFC003FF8
0FFC007FF8
0FFFFFFFF8
0FFFFFFFF8
0FFFFFFFF8
0FFFFFFFF0
0FFFFFFFF0
0FFFFFFFE0
0FFFFFFFC0
0FFFFFFF80
0FFFFFFF80
0FFFFFFF00
ENDCHAR
STARTCHAR 0111
ENCODING 273
SWIDTH 570 0
DWIDTH 38 0
BBX 37 47 -1 0
BITMAP
0FFFFFFF00
0FFFFFFF80
0FFFFFFF80
0FFFFFFFC0
0FFFFFFFE0
0FFFFFFFE0
0FFFFFFFF0
0FFFFFFFF8
0FFFFFFFF8
0FFFFFFFF8
0FFFFFFFF8
0FFC003FF8
0FFC003FF8
0FFC001FF8
0FFC001FF8
0FFC001FF8
0FFC001FF8
0FFC001FF8
0FFC001FF8
0FFC001FF8
0FFC001FF8
FFFFF01FF8
FFFFF01FF8
FFFFF01FF8
FFFFF01FF8
FFFFF01FF8
FFFFF01FF8
0FFC001FF8
0FFC001FF8
0FFC001FF8
0FFC001FF8
0FFC001FF8
0FFC001FF8
0FFC001FF8
0FFC001FF8
0FFC003FF8
0FFC007FF8
0FFFFFFFF8
0FFFFFFFF8
0FFFFFFFF8
0FFFFFFFF0
0FFFFFFFF0
0FFFFFFFE0
0FFFFFFFC0
0FFFFFFF80
0FFFFFFF80
0FFFFFFF00
ENDCHAR
STARTCHAR 0112
ENCODING 274
SWIDTH 540 0
DWIDTH 36 0
BBX 31 56 3 0
BITMAP
FFFFFFE0
FFFFFFE0
FFFFFFE0
FFFFFFE0
FFFFFFE0
FFFFFFE0
FFFFFFE0
00000000
00000000
FFFFFF80
FFFFFFC0
FFFFFFE0
FFFFFFF0
FFFFFFF0
FFFFFFF8
FFFFFFFC
FFFFFFFC
FFFFFFFE
FFFFFFFE
FFFFFFFE
FFC007FE
FFC003FE
FFC00000
FFC00000
FFC00000
FFC00000
FFC00000
FFC00000
FFC00000
FFFFFE00
FFFFFE00
FFFFFE00
FFFFFE00
FFFFFE00
FFFFFE00
FFFFFE00
FFFFFE00
FFC00000
FFC00000
FFC00000
FFC00000
FFC00000
FFC00000
FFC003FE
FFC003FE
FFC007FE
FFFFFFFE
FFFFFFFE
FFFFFFFE
FFFFFFFC
FFFFFFF8
FFFFFFF0
FFFFFFF0
FFFFFFE0
FFFFFFC0
FFFFFFC0
ENDCHAR
STARTCHAR 0113
ENCODING 275
SWIDTH 540 0
DWIDTH 36 0
BBX 31 56 3 0
BITMAP
FFFFFFE0
FFFFFFE0
FFFFFFE0
FFFFFFE0
FFFFFFE0
FFFFFFE0
FFFFFFE0
00000000
00000000
FFFFFF80
FFFFFFC0
FFFFFFE0
FFFFFFF0
FFFFFFF0
FFFFFFF8
FFFFFFFC
FFFFFFFC
FFFFFFFE
FFFFFFFE
FFFFFFFE
FFC007FE
FFC003FE
FFC00000
FFC00000
FFC00000
FFC00000
FFC00000
FFC00000
FFC00000
FFFFFE00
FFFFFE00
FFFFFE00
FFFFFE00
FFFFFE00
FFFFFE00
FFFFFE00
FFFFFE00
FFC00000
FFC00000
FFC00000
FFC00000
FFC00000
FFC00000
FFC003FE
FFC003FE
FFC007FE
FFFFFFFE
FFFFFFFE
FFFFFFFE
FFFFFFFC
FFFFFFF8
FFFFFFF0
FFFFFFF0
FFFFFFE0
FFFFFFC0
FFFFFFC0
ENDCHAR
STARTCHAR 0116
ENCODING 278
SWIDTH 540 0
DWIDTH 36 0
BBX 31 57 3 0
BITMAP
001F8000
003FC000
003FC000
003FC000
003FC000
003FC000
001FC000
001F8000
00000000
00000000
FFFFFF80
FFFFFFC0
FFFFFFE0
FFFFFFF0
FFFFFFF0
FFFFFFF8
FFFFFFFC
FFFFFFFC
FFFFFFFE
FFFFFFFE
FFFFFFFE
FFC007FE
FFC003FE
FFC00000
FFC00000
FFC00000
FFC00000
FFC00000
FFC00000
FFC00000
FFFFFE00
FFFFFE00
FFFFFE00
FFFFFE00
FFFFFE00
FFFFFE00
FFFFFE00
FFFFFE00
FFC00000
FFC00000
FFC00000
FFC00000
FFC00000
FFC00000
FFC003FE
FFC003FE
FFC007FE
FFFFFFFE
FFFFFFFE
FFFFFFFE
FFFFFFFC
FFFFFFF8
FFFFFFF0
FFFFFFF0
FFFFFFE0
FFFFFFC0
FFFFFFC0
ENDCHAR
STARTCHAR 0117
ENCODING 279
SWIDTH 540 0
DWIDTH 36 0
BBX 31 57 3 0
BITMAP
001F8000
003FC000
003FC000
003FC000
003FC000
003FC000
001FC000
001F8000
00000000
00000000
FFFFFF80
FFFFFFC0
FFFFFFE0
FFFFFFF0
FFFFFFF0
FFFFFFF8
FFFFFFFC
FFFFFFFC
FFFFFFFE
FFFFFFFE
FFFFFFFE
FFC007FE
FFC003FE
FFC00000
FFC00000
FFC00000
FFC00000
FFC00000
FFC00000
FFC00000
FFFFFE00
FFFFFE00
FFFFFE00
FFFFFE00
FFFFFE00
FFFFFE00
FFFFFE00
FFFFFE00
FFC00000
FFC00000
FFC00000
FFC00000
FFC00000
FFC00000
FFC003FE
FFC003FE
FFC007FE
FFFFFFFE
FFFFFFFE
FFFFFFFE
FFFFFFFC
FFFFFFF8
FFFFFFF0
FFFFFFF0
FFFFFFE0
FFFFFFC0
FFFFFFC0
ENDCHAR
STARTCHAR 0118
ENCODING 280
SWIDTH 540 0
DWIDTH 36 0
BBX 31 57 3 -10
BITMAP
FFFFFF80
FFFFFFC0
FFFFFFE0
FFFFFFF0
FFFFFFF0
FFFFFFF8
FFFFFFFC
FFFFFFFC
FFFFFFFE
FFFFFFFE
FFFFFFFE
FFC007FE
FFC003FE
FFC00000
FFC00000
FFC00000
FFC00000
FFC00000
FFC00000
FFC00000
FFFFFE00
FFFFFE00
FFFFFE00
FFFFFE00
FFFFFE00
FFFFFE00
FFFFFE00
FFFFFE00
FFC00000
FFC00000
FFC00000
FFC00000
FFC00000
FFC00000
FFC003FE
FFC003FE
FFC007FE
FFFFFFFE
FFFFFFFE
FFFFFFFE
FFFFFFFC
FFFFFFF8
FFFFFFF0
FFFFFFF0
FFFFFFE0
FFFFFFC0
FFFFFFC0
001F0000
001E0000
003E0000
003C0000
00780000
0078F000
007FF000
007FF000
007FE000
007FE000
ENDCHAR
STARTCHAR 0119
ENCODING 281
SWIDTH 540 0
DWIDTH 36 0
BBX 31 57 3 -10
BITMAP
FFFFFF80
FFFFFFC0
FFFFFFE0
FFFFFFF0
FFFFFFF0
FFFFFFF8
FFFFFFFC
FFFFFFFC
FFFFFFFE
FFFFFFFE
FFFFFFFE
FFC007FE
FFC003FE
FFC00000
FFC00000
FFC00000
FFC00000
FFC00000
FFC00000
FFC00000
FFFFFE00
FFFFFE00
FFFFFE00
FFFFFE00
FFFFFE00
FFFFFE00
FFFFFE00
FFFFFE00
FFC00000
FFC00000
FFC00000
FFC00000
FFC00000
FFC00000
FFC003FE
FFC003FE
FFC007FE
FFFFFFFE
FFFFFFFE
FFFFFFFE
FFFFFFFC
FFFFFFF8
FFFFFFF0
FFFFFFF0
FFFFFFE0
FFFFFFC0
FFFFFFC0
001F0000
001E0000
003E0000
003C0000
00780000
0078F000
007FF000
007FF000
007FE000
007FE000
ENDCHAR
STARTCHAR 011C
ENCODING 284
SWIDTH 555 0
DWIDTH 37 0
BBX 31 57 3 0
BITMAP
03FFFF00
07FFFFC0
1FFFFFE0
3FFFFFF0
7FFFFFF8
7F8007F8
7F0003F8
7E0001F8
00000000
00000000
FFFFFFC0
FFFFFFE0
FFFFFFF0
FFFFFFF0
FFFFFFF8
FFFFFFFC
FFFFFFFC
FFFFFFFE
FFFFFFFE
FFFFFFFE
FFFFFFFE
FFC003FE
FFC003FE
FFC00000
FFC00000
FFC00000
FFC00000
FFC00000
FFC00000
FFC00000
FFC1FFFE
FFC1FFFE
FFC1FFFE
FFC1FFFE
FFC1FFFE
FFC1FFFE
FFC1FFFE
FFC1FFFE
FFC1FFFE
FFC1FFFE
FFC1FFFE
FFC007FE
FFC007FE
FFC007FE
FFC007FE
FFC007FE
FFC007FE
FFFFFFFE
FFFFFFFE
FFFFFFFE
FFFFFFFE
FFFFFFFE
FFFFFFFE
FFFFFFFE
FFFFFFFE
FFFFFF7E
FFFFFE3E
ENDCHAR
STARTCHAR 011D
ENCODING 285
SWIDTH 555 0
DWIDTH 37 0
BBX 31 57 3 0
BITMAP
03FFFF00
07FFFFC0
1FFFFFE0
3FFFFFF0
7FFFFFF8
7F8007F8
7F0003F8
7E0001F8
00000000
00000000
FFFFFFC0
FFFFFFE0
FFFFFFF0
FFFFFFF0
FFFFFFF8
FFFFFFFC
FFFFFFFC
FFFFFFFE
FFFFFFFE
FFFFFFFE
FFFFFFFE
FFC003FE
FFC003FE
FFC00000
FFC00000
FFC00000
FFC00000
FFC00000
FFC00000
FFC00000
FFC1FFFE
FFC1FFFE
FFC1FFFE
FFC1FFFE
FFC1FFFE
FFC1FFFE
FFC1FFFE
FFC1FFFE
FFC1FFFE
FFC1FFFE
FFC1FFFE
FFC007FE
FFC007FE
FFC007FE
FFC007FE
FFC007FE
FFC007FE
FFFFFFFE
FFFFFFFE
FFFFFFFE
FFFFFFFE
FFFFFFFE
FFFFFFFE
FFFFFFFE
FFFFFFFE
FFFFFF7E
FFFFFE3E
ENDCHAR
STARTCHAR 011E
ENCODING 286
SWIDTH 555 0
DWIDTH 37 0
BBX 31 57 3 0
BITMAP
7E0001F8
7F8007F8
7FC00FF8
3FFFFFF0
1FFFFFE0
0FFFFFC0
07FFFF80
03FFFF00
00000000
00000000
FFFFFFC0
FFFFFFE0
FFFFFFF0
FFFFFFF0
FFFFFFF8
FFFFFFFC
FFFFFFFC
FFFFFFFE
FFFFFFFE
FFFFFFFE
FFFFFFFE
FFC003FE
FFC003FE
FFC00000
FFC00000
FFC00000
FFC00000
FFC00000
FFC00000
FFC00000
FFC1FFFE
FFC1FFFE
FFC1FFFE
FFC1FFFE
FFC1FFFE
FFC1FFFE
FFC1FFFE
FFC1FFFE
FFC1FFFE
FFC1FFFE
FFC1FFFE
FFC007FE
FFC007FE
FFC007FE
FFC007FE
FFC007FE
FFC007FE
FFFFFFFE
FFFFFFFE
FFFFFFFE
FFFFFFFE
FFFFFFFE
FFFFFFFE
FFFFFFFE
FFFFFFFE
FFFFFF7E
FFFFFE3E
ENDCHAR
STARTCHAR 011F
ENCODING 287
SWIDTH 555 0
DWIDTH 37 0
BBX 31 57 3 0
BITMAP
7E0001F8
7F8007F8
7FC00FF8
3FFFFFF0
1FFFFFE0
0FFFFFC0
07FFFF80
03FFFF00
00000000
00000000
FFFFFFC0
FFFFFFE0
FFFFFFF0
FFFFFFF0
FFFFFFF8
FFFFFFFC
FFFFFFFC
FFFFFFFE
FFFFFFFE
FFFFFFFE
FFFFFFFE
FFC003FE
FFC003FE
FFC00000
FFC00000
FFC00000
FFC00000
FFC00000
FFC00000
FFC00000
FFC1FFFE
FFC1FFFE
FFC1FFFE
FFC1FFFE
FFC1FFFE
FFC1FFFE
FFC1FFFE
FFC1FFFE
FFC1FFFE
FFC1FFFE
FFC1FFFE
FFC007FE
FFC007FE
FFC007FE
FFC007FE
FFC007FE
FFC007FE
FFFFFFFE
FFFFFFFE
FFFFFFFE
FFFFFFFE
FFFFFFFE
FFFFFFFE
FFFFFFFE
FFFFFFFE
FFFFFF7E
FFFFFE3E
ENDCHAR
STARTCHAR 0120
ENCODING 288
SWIDTH 555 0
DWIDTH 37 0
BBX 31 57 3 0
BITMAP
000FE000
000FF000
000FF000
000FF000
000FF000
000FF000
000FE000
0007C000
00000000
00000000
FFFFFFC0
FFFFFFE0
FFFFFFF0
FFFFFFF0
FFFFFFF8
FFFFFFFC
FFFFFFFC
FFFFFFFE
FFFFFFFE
FFFFFFFE
FFFFFFFE
FFC003FE
FFC003FE
FFC00000
FFC00000
FFC00000
FFC00000
FFC00000
FFC00000
FFC00000
FFC1FFFE
FFC1FFFE
FFC1FFFE
FFC1FFFE
FFC1FFFE
FFC1FFFE
FFC1FFFE
FFC1FFFE
FFC1FFFE
FFC1FFFE
FFC1FFFE
FFC007FE
FFC007FE
FFC007FE
FFC007FE
FFC007FE
FFC007FE
FFFFFFFE
FFFFFFFE
FFFFFFFE
FFFFFFFE
FFFFFFFE
FFFFFFFE
FFFFFFFE
FFFFFFFE
FFFFFF7E
FFFFFE3E
ENDCHAR
STARTCHAR 0121
ENCODING 289
SWIDTH 555 0
DWIDTH 37 0
BBX 31 57 3 0
BITMAP
000FE000
000FF000
000FF000
000FF000
000FF000
000FF000
000FE000
0007C000
00000000
00000000
FFFFFFC0
FFFFFFE0
FFFFFFF0
FFFFFFF0
FFFFFFF8
FFFFFFFC
FFFFFFFC
FFFFFFFE
FFFFFFFE
FFFFFFFE
FFFFFFFE
FFC003FE
FFC003FE
FFC00000
FFC00000
FFC00000
FFC00000
FFC00000
FFC00000
FFC00000
FFC1FFFE
FFC1FFFE
FFC1FFFE
FFC1FFFE
FFC1FFFE
FFC1FFFE
FFC1FFFE
FFC1FFFE
FFC1FFFE
FFC1FFFE
FFC1FFFE
FFC007FE
FFC007FE
FFC007FE
FFC007FE
FFC007FE
FFC007FE
FFFFFFFE
FFFFFFFE
FFFFFFFE
FFFFFFFE
FFFFFFFE
FFFFFFFE
FFFFFFFE
FFFFFFFE
FFFFFF7E
FFFFFE3E
ENDCHAR
STARTCHAR 0122
ENCODING 290
SWIDTH 555 0
DWIDTH 37 0
BBX 31 58 3 -11
BITMAP
FFFFFFC0
FFFFFFE0
FFFFFFF0
FFFFFFF0
FFFFFFF8
FFFFFFFC
FFFFFFFC
FFFFFFFE
FFFFFFFE
FFFFFFFE
FFFFFFFE
FFC003FE
FFC003FE
FFC00000
FFC00000
FFC00000
FFC00000
FFC00000
FFC00000
FFC00000
FFC1FFFE
FFC1FFFE
FFC1FFFE
FFC1FFFE
FFC1FFFE
FFC1FFFE
FFC1FFFE
FFC1FFFE
FFC1FFFE
FFC1FFFE
FFC1FFFE
FFC007FE
FFC007FE
FFC007FE
FFC007FE
FFC007FE
FFC007FE
FFFFFFFE
FFFFFFFE
FFFFFFFE
FFFFFFFE
FFFFFFFE
FFFFFFFE
FFFFFFFE
FFFFFFFE
FFFFFF7E
FFFFFE3E
00000000
00078000
00078000
0007C000
0007C000
0007C000
0007C000
00078000
000F0000
001F0000
001E0000
ENDCHAR
STARTCHAR 0123
ENCODING 291
SWIDTH 555 0
DWIDTH 37 0
BBX 31 58 3 -11
BITMAP
FFFFFFC0
FFFFFFE0
FFFFFFF0
FFFFFFF0
FFFFFFF8
FFFFFFFC
FFFFFFFC
FFFFFFFE
FFFFFFFE
FFFFFFFE
FFFFFFFE
FFC003FE
FFC003FE
FFC00000
FFC00000
FFC00000
FFC00000
FFC00000
FFC00000
FFC00000
FFC1FFFE
FFC1FFFE
FFC1FFFE
FFC1FFFE
FFC1FFFE
FFC1FFFE
FFC1FFFE
FFC1FFFE
FFC1FFFE
FFC1FFFE
FFC1FFFE
FFC007FE
FFC007FE
FFC007FE
FFC007FE
FFC007FE
FFC007FE
FFFFFFFE
FFFFFFFE
FFFFFFFE
FFFFFFFE
FFFFFFFE
FFFFFFFE
FFFFFFFE
FFFFFFFE
FFFFFF7E
FFFFFE3E
00000000
00078000
00078000
0007C000
0007C000
0007C000
0007C000
00078000
000F0000
001F0000
001E0000
ENDCHAR
STARTCHAR 0124
ENCODING 292
SWIDTH 570 0
DWIDTH 38 0
BBX 33 57 3 0
BITMAP
01FFFFC000
03FFFFE000
07FFFFF000
0FFFFFF800
1FFFFFFC00
1FC003FC00
1F8000FC00
1F00007C00
0000000000
0000000000
FFC001FF80
FFC001FF80
FFC001FF80
FFC001FF80
FFC001FF80
FFC001FF80
FFC001FF80
FFC001FF80
FFC001FF80
FFC001FF80
FFC001FF80
FFC001FF80
FFC001FF80
FFC001FF80
FFC001FF80
FFC001FF80
FFE003FF80
FFF007FF80
FFFFFFFF80
FFFFFFFF80
FFFFFFFF80
FFFFFFFF80
FFFFFFFF80
FFFFFFFF80
FFFFFFFF80
FFFFFFFF80
FFFFFFFF80
FFFFFFFF80
FFE007FF80
FFE003FF80
FFC001FF80
FFC001FF80
FFC001FF80
FFC001FF80
FFC001FF80
FFC001FF80
FFC001FF80
FFC001FF80
FFC001FF80
FFC001FF80
FFC001FF80
FFC001FF80
FFC001FF80
FFC001FF80
FFC001FF80
FFC001FF80
FFC001FF80
ENDCHAR
STARTCHAR 0125
ENCODING 293
SWIDTH 570 0
DWIDTH 38 0
BBX 33 57 3 0
BITMAP
01FFFFC000
03FFFFE000
07FFFFF000
0FFFFFF800
1FFFFFFC00
1FC003FC00
1F8000FC00
1F00007C00
0000000000
0000000000
FFC001FF80
FFC001FF80
FFC001FF80
FFC001FF80
FFC001FF80
FFC001FF80
FFC001FF80
FFC001FF80
FFC001FF80
FFC001FF80
FFC001FF80
FFC001FF80
FFC001FF80
FFC001FF80
FFC001FF80
FFC001FF80
FFE003FF80
FFF007FF80
FFFFFFFF80
FFFFFFFF80
FFFFFFFF80
FFFFFFFF80
FFFFFFFF80
FFFFFFFF80
FFFFFFFF80
FFFFFFFF80
FFFFFFFF80
FFFFFFFF80
FFE007FF80
FFE003FF80
FFC001FF80
FFC001FF80
FFC001FF80
FFC001FF80
FFC001FF80
FFC001FF80
FFC001FF80
FFC001FF80
FFC001FF80
FFC001FF80
FFC001FF80
FFC001FF80
FFC001FF80
FFC001FF80
FFC001FF80
FFC001FF80
FFC001FF80
ENDCHAR
STARTCHAR 0126
ENCODING 294
SWIDTH 570 0
DWIDTH 38 0
BBX 44 47 -3 0
BITMAP
03FF0007FE00
03FF0007FE00
03FF0007FE00
03FF0007FE00
03FF0007FE00
FFFFFFFFFFF0
FFFFFFFFFFF0
FFFFFFFFFFF0
FFFFFFFFFFF0
FFFFFFFFFFF0
FFFFFFFFFFF0
FFFFFFFFFFF0
03FF0007FE00
03FF0007FE00
03FF0007FE00
03FF0007FE00
03FF800FFE00
03FFC01FFE00
03FFFFFFFE00
03FFFFFFFE00
03FFFFFFFE00
03FFFFFFFE00
03FFFFFFFE00
03FFFFFFFE00
03FFFFFFFE00
03FFFFFFFE00
03FFFFFFFE00
03FFFFFFFE00
03FF801FFE00
03FF800FFE00
03FF0007FE00
03FF0007FE00
03FF0007FE00
03FF0007FE00
03FF0007FE00
03FF0007FE00
03FF0007FE00
03FF0007FE00
03FF0007FE00
03FF0007FE00
03FF0007FE00
03FF0007FE00
03FF0007FE00
03FF0007FE00
03FF0007FE00
03FF0007FE00
03FF0007FE00
ENDCHAR
STARTCHAR 0127
ENCODING 295
SWIDTH 570 0
DWIDTH 38 0
BBX 44 47 -3 0
BITMAP
03FF0007FE00
03FF0007FE00
03FF0007FE00
03FF0007FE00
03FF0007FE00
FFFFFFFFFFF0
FFFFFFFFFFF0
FFFFFFFFFFF0
FFFFFFFFFFF0
FFFFFFFFFFF0
FFFFFFFFFFF0
FFFFFFFFFFF0
03FF0007FE00
03FF0007FE00
03FF0007FE00
03FF0007FE00
03FF800FFE00
03FFC01FFE00
03FFFFFFFE00
03FFFFFFFE00
03FFFFFFFE00
03FFFFFFFE00
03FFFFFFFE00
03FFFFFFFE00
03FFFFFFFE00
03FFFFFFFE00
03FFFFFFFE00
03FFFFFFFE00
03FF801FFE00
03FF800FFE00
03FF0007FE00
03FF0007FE00
03FF0007FE00
03FF0007FE00
03FF0007FE00
03FF0007FE00
03FF0007FE00
03FF0007FE00
03FF0007FE00
03FF0007FE00
03FF0007FE00
03FF0007FE00
03FF0007FE00
03FF0007FE00
03FF0007FE00
03FF0007FE00
03FF0007FE00
ENDCHAR
STARTCHAR 0128
ENCODING 296
SWIDTH 225 0
DWIDTH 15 0
BBX 27 58 -6 0
BITMAP
01F00000
07FE0020
1FFFC0E0
7FFFF3E0
FFFFFFE0
FF0FFFE0
FC01FFC0
F0007F00
E0000C00
00000000
00000000
007FE000
007FE000
007FE000
007FE000
007FE000
007FE000
007FE000
007FE000
007FE000
007FE000
007FE000
007FE000
007FE000
007FE000
007FE000
007FE000
007FE000
007FE000
007FE000
007FE000
007FE000
007FE000
007FE000
007FE000
007FE000
007FE000
007FE000
007FE000
007FE000
007FE000
007FE000
007FE000
007FE000
007FE000
007FE000
007FE000
007FE000
007FE000
007FE000
007FE000
007FE000
007FE000
007FE000
007FE000
007FE000
007FE000
007FE000
ENDCHAR
STARTCHAR 0129
ENCODING 297
SWIDTH 225 0
DWIDTH 15 0
BBX 27 58 -6 0
BITMAP
01F00000
07FE0020
1FFFC0E0
7FFFFBE0
FFFFFFE0
FF0FFFE0
FC01FFE0
F8003F00
E0000C00
00000000
00000000
007FE000
007FE000
007FE000
007FE000
007FE000
007FE000
007FE000
007FE000
007FE000
007FE000
007FE000
007FE000
007FE000
007FE000
007FE000
007FE000
007FE000
007FE000
007FE000
007FE000
007FE000
007FE000
007FE000
007FE000
007FE000
007FE000
007FE000
007FE000
007FE000
007FE000
007FE000
007FE000
007FE000
007FE000
007FE000
007FE000
007FE000
007FE000
007FE000
007FE000
007FE000
007FE000
007FE000
007FE000
007FE000
007FE000
007FE000
ENDCHAR
STARTCHAR 012A
ENCODING 298
SWIDTH 225 0
DWIDTH 15 0
BBX 26 56 -5 0
BITMAP
FFFFFFC0
FFFFFFC0
FFFFFFC0
FFFFFFC0
FFFFFFC0
FFFFFFC0
FFFFFFC0
00000000
00000000
00FFC000
00FFC000
00FFC000
00FFC000
00FFC000
00FFC000
00FFC000
00FFC000
00FFC000
00FFC000
00FFC000
00FFC000
00FFC000
00FFC000
00FFC000
00FFC000
00FFC000
00FFC000
00FFC000
00FFC000
00FFC000
00FFC000
00FFC000
00FFC000
00FFC000
00FFC000
00FFC000
00FFC000
00FFC000
00FFC000
00FFC000
00FFC000
00FFC000
00FFC000
00FFC000
00FFC000
00FFC000
00FFC000
00FFC000
00FFC000
00FFC000
00FFC000
00FFC000
00FFC000
00FFC000
00FFC000
00FFC000
ENDCHAR
STARTCHAR 012B
ENCODING 299
SWIDTH 225 0
DWIDTH 15 0
BBX 26 56 -5 0
BITMAP
FFFFFFC0
FFFFFFC0
FFFFFFC0
FFFFFFC0
FFFFFFC0
FFFFFFC0
FFFFFFC0
00000000
00000000
00FFC000
00FFC000
00FFC000
00FFC000
00FFC000
00FFC000
00FFC000
00FFC000
00FFC000
00FFC000
00FFC000
00FFC000
00FFC000
00FFC000
00FFC000
00FFC000
00FFC000
00FFC000
00FFC000
00FFC000
00FFC000
00FFC000
00FFC000
00FFC000
00FFC000
00FFC000
00FFC000
00FFC000
00FFC000
00FFC000
00FFC000
00FFC000
00FFC000
00FFC000
00FFC000
00FFC000
00FFC000
00FFC000
00FFC000
00FFC000
00FFC000
00FFC000
00FFC000
00FFC000
00FFC000
00FFC000
00FFC000
ENDCHAR
STARTCHAR 012E
ENCODING 302
SWIDTH 225 0
DWIDTH 15 0
BBX 11 57 2 -10
BITMAP
7FE0
7FE0
7FE0
7FE0
7FE0
7FE0
7FE0
7FE0
7FE0
7FE0
7FE0
7FE0
7FE0
7FE0
7FE0
7FE0
7FE0
7FE0
7FE0
7FE0
7FE0
7FE0
7FE0
7FE0
7FE0
7FE0
7FE0
7FE0
7FE0
7FE0
7FE0
7FE0
7FE0
7FE0
7FE0
7FE0
7FE0
7FE0
7FE0
7FE0
7FE0
7FE0
7FE0
7FE0
7FE0
7FE0
7FE0
1E00
3E00
3C00
7C00
7800
F8E0
FFE0
FFE0
FFE0
FFC0
ENDCHAR
STARTCHAR 012F
ENCODING 303
SWIDTH 225 0
DWIDTH 15 0
BBX 11 57 2 -10
BITMAP
7FE0
7FE0
7FE0
7FE0
7FE0
7FE0
7FE0
7FE0
7FE0
7FE0
7FE0
7FE0
7FE0
7FE0
7FE0
7FE0
7FE0
7FE0
7FE0
7FE0
7FE0
7FE0
7FE0
7FE0
7FE0
7FE0
7FE0
7FE0
7FE0
7FE0
7FE0
7FE0
7FE0
7FE0
7FE0
7FE0
7FE0
7FE0
7FE0
7FE0
7FE0
7FE0
7FE0
7FE0
7FE0
7FE0
7FE0
1E00
3E00
3C00
7C00
7800
F8E0
FFE0
FFE0
FFE0
FFC0
ENDCHAR
STARTCHAR 0134
ENCODING 308
SWIDTH 510 0
DWIDTH 34 0
BBX 28 57 3 0
BITMAP
007FFF00
00FFFF80
01FFFFC0
03FFFFE0
07FFFFF0
07F007F0
07E003F0
07C001F0
00000000
00000000
07FFFFF0
07FFFFF0
07FFFFF0
07FFFFF0
07FFFFF0
07FFFFF0
07FFFFF0
07FFFFF0
07FFFFF0
07FFFFF0
07FFFFF0
00003FF0
00003FF0
00003FF0
00003FF0
00003FF0
00003FF0
00003FF0
00003FF0
00003FF0
00003FF0
00003FF0
00003FF0
00003FF0
00003FF0
00003FF0
00003FF0
00003FF0
00003FF0
00003FF0
00003FF0
00003FF0
00003FF0
00003FF0
FFC03FF0
FFE03FF0
FFF03FF0
FFFFFFF0
FFFFFFF0
FFFFFFF0
FFFFFFF0
7FFFFFF0
3FFFFFF0
3FFFFFF0
1FFFFFF0
0FFFFFF0
07FFFFF0
ENDCHAR
STARTCHAR 0135
ENCODING 309
SWIDTH 510 0
DWIDTH 34 0
BBX 28 57 3 0
BITMAP
007FFF00
00FFFF80
01FFFFC0
03FFFFE0
07FFFFF0
07F007F0
07E003F0
07C001F0
00000000
00000000
07FFFFF0
07FFFFF0
07FFFFF0
07FFFFF0
07FFFFF0
07FFFFF0
07FFFFF0
07FFFFF0
07FFFFF0
07FFFFF0
07FFFFF0
00003FF0
00003FF0
00003FF0
00003FF0
00003FF0
00003FF0
00003FF0
00003FF0
00003FF0
00003FF0
00003FF0
00003FF0
00003FF0
00003FF0
00003FF0
00003FF0
00003FF0
00003FF0
00003FF0
00003FF0
00003FF0
00003FF0
00003FF0
FFC03FF0
FFE03FF0
FFF03FF0
FFFFFFF0
FFFFFFF0
FFFFFFF0
FFFFFFF0
7FFFFFF0
3FFFFFF0
3FFFFFF0
1FFFFFF0
0FFFFFF0
07FFFFF0
ENDCHAR
STARTCHAR 0136
ENCODING 310
SWIDTH 570 0
DWIDTH 38 0
BBX 33 58 3 -11
BITMAP
FFC003FF80
FFC003FF80
FFC007FF80
FFC00FFF80
FFC00FFF80
FFC01FFF80
FFC03FFF00
FFC07FFE00
FFC07FFE00
FFC0FFFC00
FFC1FFF800
FFC1FFF000
FFC3FFF000
FFC7FFE000
FFC7FFC000
FFCFFF8000
FFDFFF8000
FFDFFF0000
FFFFFE0000
FFFFFE0000
FFFFFC0000
FFFFF80000
FFFFF00000
FFFFF00000
FFFFF00000
FFFFF80000
FFFFF80000
FFFFFC0000
FFFFFE0000
FFDFFF0000
FFDFFF0000
FFCFFF8000
FFC7FFC000
FFC7FFE000
FFC3FFE000
FFC1FFF000
FFC1FFF800
FFC0FFF800
FFC07FFC00
FFC03FFE00
FFC03FFF00
FFC01FFF00
FFC00FFF80
FFC00FFF80
FFC007FF80
FFC003FF80
FFC003FF80
0000000000
0003C00000
0003C00000
0003E00000
0003E00000
0003E00000
0003E00000
0003C00000
0007800000
000F000000
000F000000
ENDCHAR
STARTCHAR 0137
ENCODING 311
SWIDTH 570 0
DWIDTH 38 0
BBX 33 58 3 -11
BITMAP
FFC003FF80
FFC003FF80
FFC007FF80
FFC00FFF80
FFC00FFF80
FFC01FFF80
FFC03FFF00
FFC07FFE00
FFC07FFE00
FFC0FFFC00
FFC1FFF800
FFC1FFF000
FFC3FFF000
FFC7FFE000
FFC7FFC000
FFCFFF8000
FFDFFF8000
FFDFFF0000
FFFFFE0000
FFFFFE0000
FFFFFC0000
FFFFF80000
FFFFF00000
FFFFF00000
FFFFF00000
FFFFF80000
FFFFF80000
FFFFFC0000
FFFFFE0000
FFDFFF0000
FFDFFF0000
FFCFFF8000
FFC7FFC000
FFC7FFE000
FFC3FFE000
FFC1FFF000
FFC1FFF800
FFC0FFF800
FFC07FFC00
FFC03FFE00
FFC03FFF00
FFC01FFF00
FFC00FFF80
FFC00FFF80
FFC007FF80
FFC003FF80
FFC003FF80
0000000000
0003C00000
0003C00000
0003E00000
0003E00000
0003E00000
0003E00000
0003C00000
0007800000
000F000000
000F000000
ENDCHAR
STARTCHAR 0139
ENCODING 313
SWIDTH 405 0
DWIDTH 27 0
BBX 31 56 -3 0
BITMAP
0007FF00
1FFFFF00
FFFFFF00
FFFFF000
FFFE0000
FFC00000
F8000000
00000000
00000000
03FF0000
03FF0000
03FF0000
03FF0000
03FF0000
03FF0000
03FF0000
03FF0000
03FF0000
03FF0000
03FF0000
03FF0000
03FF0000
03FF0000
03FF0000
03FF0000
03FF0000
03FF0000
03FF0000
03FF0000
03FF0000
03FF0000
03FF0000
03FF0000
03FF0000
03FF0000
03FF0000
03FF0000
03FF0000
03FF0000
03FF0000
03FF0000
03FF0000
03FF0000
03FF0000
03FF8000
03FFC000
03FFFFFE
03FFFFFE
03FFFFFE
03FFFFFC
03FFFFF8
03FFFFF8
03FFFFF0
03FFFFE0
03FFFFC0
03FFFFC0
ENDCHAR
STARTCHAR 013A
ENCODING 314
SWIDTH 405 0
DWIDTH 27 0
BBX 31 56 -3 0
BITMAP
0007FF00
1FFFFF00
FFFFFF00
FFFFF000
FFFE0000
FFC00000
F8000000
00000000
00000000
03FF0000
03FF0000
03FF0000
03FF0000
03FF0000
03FF0000
03FF0000
03FF0000
03FF0000
03FF0000
03FF0000
03FF0000
03FF0000
03FF0000
03FF0000
03FF0000
03FF0000
03FF0000
03FF0000
03FF0000
03FF0000
03FF0000
03FF0000
03FF0000
03FF0000
03FF0000
03FF0000
03FF0000
03FF0000
03FF0000
03FF0000
03FF0000
03FF0000
03FF0000
03FF0000
03FF8000
03FFC000
03FFFFFE
03FFFFFE
03FFFFFE
03FFFFFC
03FFFFF8
03FFFFF8
03FFFFF0
03FFFFE0
03FFFFC0
03FFFFC0
ENDCHAR
STARTCHAR 013C
ENCODING 316
SWIDTH 405 0
DWIDTH 27 0
BBX 25 58 3 -11
BITMAP
FFC00000
FFC00000
FFC00000
FFC00000
FFC00000
FFC00000
FFC00000
FFC00000
FFC00000
FFC00000
FFC00000
FFC00000
FFC00000
FFC00000
FFC00000
FFC00000
FFC00000
FFC00000
FFC00000
FFC00000
FFC00000
FFC00000
FFC00000
FFC00000
FFC00000
FFC00000
FFC00000
FFC00000
FFC00000
FFC00000
FFC00000
FFC00000
FFC00000
FFC00000
FFC00000
FFE00000
FFF00000
FFFFFF80
FFFFFF80
FFFFFF80
FFFFFF00
FFFFFE00
FFFFFE00
FFFFFC00
FFFFF800
FFFFF000
FFFFF000
00000000
00380000
003C0000
003C0000
003C0000
003C0000
003C0000
007C0000
00780000
00F00000
01F00000
ENDCHAR
STARTCHAR 013D
ENCODING 317
SWIDTH 405 0
DWIDTH 27 0
BBX 29 58 -1 0
BITMAP
E001C000
F003C000
F807C000
FC0FC000
FE1F8000
7FFF0000
1FFE0000
0FFC0000
07F80000
00000000
00000000
0FFC0000
0FFC0000
0FFC0000
0FFC0000
0FFC0000
0FFC0000
0FFC0000
0FFC0000
0FFC0000
0FFC0000
0FFC0000
0FFC0000
0FFC0000
0FFC0000
0FFC0000
0FFC0000
0FFC0000
0FFC0000
0FFC0000
0FFC0000
0FFC0000
0FFC0000
0FFC0000
0FFC0000
0FFC0000
0FFC0000
0FFC0000
0FFC0000
0FFC0000
0FFC0000
0FFC0000
0FFC0000
0FFC0000
0FFC0000
0FFC0000
0FFE0000
0FFF0000
0FFFFFF8
0FFFFFF8
0FFFFFF8
0FFFFFF0
0FFFFFE0
0FFFFFE0
0FFFFFC0
0FFFFF80
0FFFFF00
0FFFFF00
ENDCHAR
STARTCHAR 013E
ENCODING 318
SWIDTH 405 0
DWIDTH 27 0
BBX 29 58 -1 0
BITMAP
E001C000
F003C000
F807C000
FC0FC000
FE1F8000
7FFF0000
1FFE0000
0FFC0000
07F80000
00000000
00000000
0FFC0000
0FFC0000
0FFC0000
0FFC0000
0FFC0000
0FFC0000
0FFC0000
0FFC0000
0FFC0000
0FFC0000
0FFC0000
0FFC0000
0FFC0000
0FFC0000
0FFC0000
0FFC0000
0FFC0000
0FFC0000
0FFC0000
0FFC0000
0FFC0000
0FFC0000
0FFC0000
0FFC0000
0FFC0000
0FFC0000
0FFC0000
0FFC0000
0FFC0000
0FFC0000
0FFC0000
0FFC0000
0FFC0000
0FFC0000
0FFC0000
0FFE0000
0FFF0000
0FFFFFF8
0FFFFFF8
0FFFFFF8
0FFFFFF0
0FFFFFE0
0FFFFFE0
0FFFFFC0
0FFFFF80
0FFFFF00
0FFFFF00
ENDCHAR
STARTCHAR 0141
ENCODING 321
SWIDTH 495 0
DWIDTH 33 0
BBX 31 47 3 0
BITMAP
03FF0000
03FF0000
03FF0000
03FF0000
03FF0000
03FF0000
03FF0000
03FF0000
03FF0000
03FF0000
03FF0000
03FF0300
03FF0F00
03FF3F00
03FFFF00
03FFFF00
03FFFF00
03FFFF00
03FFFE00
03FFF800
03FFE000
0FFFC000
1FFF0000
7FFF0000
FFFF0000
FFFF0000
FFFF0000
FFFF0000
FFFF0000
F3FF0000
C3FF0000
03FF0000
03FF0000
03FF0000
03FF0000
03FF8000
03FFC000
03FFFFFE
03FFFFFE
03FFFFFE
03FFFFFC
03FFFFF8
03FFFFF8
03FFFFF0
03FFFFE0
03FFFFC0
03FFFFC0
ENDCHAR
STARTCHAR 0142
ENCODING 322
SWIDTH 495 0
DWIDTH 33 0
BBX 31 47 3 0
BITMAP
03FF0000
03FF0000
03FF0000
03FF0000
03FF0000
03FF0000
03FF0000
03FF0000
03FF0000
03FF0000
03FF0000
03FF0300
03FF0F00
03FF3F00
03FFFF00
03FFFF00
03FFFF00
03FFFF00
03FFFE00
03FFF800
03FFE000
0FFFC000
1FFF0000
7FFF0000
FFFF0000
FFFF0000
FFFF0000
FFFF0000
FFFF0000
F3FF0000
C3FF0000
03FF0000
03FF0000
03FF0000
03FF0000
03FF8000
03FFC000
03FFFFFE
03FFFFFE
03FFFFFE
03FFFFFC
03FFFFF8
03FFFFF8
03FFFFF0
03FFFFE0
03FFFFC0
03FFFFC0
ENDCHAR
STARTCHAR 0143
ENCODING 323
SWIDTH 570 0
DWIDTH 38 0
BBX 32 56 3 0
BITMAP
00003FF0
01FFFFF0
0FFFFFF0
0FFFFF00
0FFFE000
0FFE0000
0FC00000
00000000
00000000
07C003FF
0FE003FF
1FE003FF
1FE003FF
3FF003FF
7FF003FF
7FF803FF
FFF803FF
FFFC03FF
FFFC03FF
FFFE03FF
FFFE03FF
FFFE03FF
FFFF03FF
FFFF03FF
FFFF83FF
FFFF83FF
FFFFC3FF
FFFFC3FF
FFFFE3FF
FFFFE3FF
FFFFF3FF
FFFFF3FF
FFFFF3FF
FFCFFFFF
FFCFFFFF
FFC7FFFF
FFC7FFFF
FFC3FFFF
FFC3FFFF
FFC1FFFF
FFC1FFFF
FFC0FFFF
FFC0FFFF
FFC07FFF
FFC07FFF
FFC07FFF
FFC03FFF
FFC03FFF
FFC01FFF
FFC01FFF
FFC00FFE
FFC00FFC
FFC007FC
FFC007F8
FFC007F0
FFC003F0
ENDCHAR
STARTCHAR 0144
ENCODING 324
SWIDTH 570 0
DWIDTH 38 0
BBX 32 56 3 0
BITMAP
00003FF0
01FFFFF0
0FFFFFF0
0FFFFF00
0FFFE000
0FFE0000
0FC00000
00000000
00000000
07C003FF
0FE003FF
1FE003FF
1FE003FF
3FF003FF
7FF003FF
7FF803FF
FFF803FF
FFFC03FF
FFFC03FF
FFFE03FF
FFFE03FF
FFFE03FF
FFFF03FF
FFFF03FF
FFFF83FF
FFFF83FF
FFFFC3FF
FFFFC3FF
FFFFE3FF
FFFFE3FF
FFFFF3FF
FFFFF3FF
FFFFF3FF
FFCFFFFF
FFCFFFFF
FFC7FFFF
FFC7FFFF
FFC3FFFF
FFC3FFFF
FFC1FFFF
FFC1FFFF
FFC0FFFF
FFC0FFFF
FFC07FFF
FFC07FFF
FFC07FFF
FFC03FFF
FFC03FFF
FFC01FFF
FFC01FFF
FFC00FFE
FFC00FFC
FFC007FC
FFC007F8
FFC007F0
FFC003F0
ENDCHAR
STARTCHAR 0145
ENCODING 325
SWIDTH 570 0
DWIDTH 38 0
BBX 32 58 3 -11
BITMAP
07C003FF
0FE003FF
1FE003FF
1FE003FF
3FF003FF
7FF003FF
7FF803FF
FFF803FF
FFFC03FF
FFFC03FF
FFFE03FF
FFFE03FF
FFFE03FF
FFFF03FF
FFFF03FF
FFFF83FF
FFFF83FF
FFFFC3FF
FFFFC3FF
FFFFE3FF
FFFFE3FF
FFFFF3FF
FFFFF3FF
FFFFF3FF
FFCFFFFF
FFCFFFFF
FFC7FFFF
FFC7FFFF
FFC3FFFF
FFC3FFFF
FFC1FFFF
FFC1FFFF
FFC0FFFF
FFC0FFFF
FFC07FFF
FFC07FFF
FFC07FFF
FFC03FFF
FFC03FFF
FFC01FFF
FFC01FFF
FFC00FFE
FFC00FFC
FFC007FC
FFC007F8
FFC007F0
FFC003F0
00000000
0001E000
0001E000
0001F000
0001F000
0001F000
0001F000
0001E000
0003C000
00078000
00078000
ENDCHAR
STARTCHAR 0146
ENCODING 326
SWIDTH 570 0
DWIDTH 38 0
BBX 32 58 3 -11
BITMAP
07C003FF
0FE003FF
1FE003FF
1FE003FF
3FF003FF
7FF003FF
7FF803FF
FFF803FF
FFFC03FF
FFFC03FF
FFFE03FF
FFFE03FF
FFFE03FF
FFFF03FF
FFFF03FF
FFFF83FF
FFFF83FF
FFFFC3FF
FFFFC3FF
FFFFE3FF
FFFFE3FF
FFFFF3FF
FFFFF3FF
FFFFF3FF
FFCFFFFF
FFCFFFFF
FFC7FFFF
FFC7FFFF
FFC3FFFF
FFC3FFFF
FFC1FFFF
FFC1FFFF
FFC0FFFF
FFC0FFFF
FFC07FFF
FFC07FFF
FFC07FFF
FFC03FFF
FFC03FFF
FFC01FFF
FFC01FFF
FFC00FFE
FFC00FFC
FFC007FC
FFC007F8
FFC007F0
FFC003F0
00000000
0001E000
0001E000
0001F000
0001F000
0001F000
0001F000
0001E000
0003C000
0007C000
00078000
ENDCHAR
STARTCHAR 0147
ENCODING 327
SWIDTH 570 0
DWIDTH 38 0
BBX 32 58 3 0
BITMAP
01C00380
01E00780
01F00F80
01F81F80
00FC3F80
007FFE00
003FFC00
001FF800
000FF000
00000000
00000000
07C003FF
0FE003FF
1FE003FF
1FE003FF
3FF003FF
7FF003FF
7FF803FF
FFF803FF
FFFC03FF
FFFC03FF
FFFE03FF
FFFE03FF
FFFE03FF
FFFF03FF
FFFF03FF
FFFF83FF
FFFF83FF
FFFFC3FF
FFFFC3FF
FFFFE3FF
FFFFE3FF
FFFFF3FF
FFFFF3FF
FFFFF3FF
FFCFFFFF
FFCFFFFF
FFC7FFFF
FFC7FFFF
FFC3FFFF
FFC3FFFF
FFC1FFFF
FFC1FFFF
FFC0FFFF
FFC0FFFF
FFC07FFF
FFC07FFF
FFC07FFF
FFC03FFF
FFC03FFF
FFC01FFF
FFC01FFF
FFC00FFE
FFC00FFC
FFC007FC
FFC007F8
FFC007F0
FFC003F0
ENDCHAR
STARTCHAR 0148
ENCODING 328
SWIDTH 570 0
DWIDTH 38 0
BBX 32 58 3 0
BITMAP
01C00380
01E00780
01F00F80
01F81F80
00FC3F80
007FFF00
003FFC00
001FF800
000FF000
00000000
00000000
07C003FF
0FE003FF
1FE003FF
1FE003FF
3FF003FF
7FF003FF
7FF803FF
FFF803FF
FFFC03FF
FFFC03FF
FFFE03FF
FFFE03FF
FFFE03FF
FFFF03FF
FFFF03FF
FFFF83FF
FFFF83FF
FFFFC3FF
FFFFC3FF
FFFFE3FF
FFFFE3FF
FFFFF3FF
FFFFF3FF
FFFFF3FF
FFCFFFFF
FFCFFFFF
FFC7FFFF
FFC7FFFF
FFC3FFFF
FFC3FFFF
FFC1FFFF
FFC1FFFF
FFC0FFFF
FFC0FFFF
FFC07FFF
FFC07FFF
FFC07FFF
FFC03FFF
FFC03FFF
FFC01FFF
FFC01FFF
FFC00FFE
FFC00FFC
FFC007FC
FFC007F8
FFC007F0
FFC003F0
ENDCHAR
STARTCHAR 014C
ENCODING 332
SWIDTH 615 0
DWIDTH 41 0
BBX 36 56 3 0
BITMAP
07FFFFFE00
07FFFFFE00
07FFFFFE00
07FFFFFE00
07FFFFFE00
07FFFFFE00
07FFFFFE00
0000000000
0000000000
07FFFFFC00
0FFFFFFE00
1FFFFFFF00
1FFFFFFF80
3FFFFFFF80
7FFFFFFFC0
7FFFFFFFE0
FFFFFFFFE0
FFFFFFFFF0
FFFFFFFFF0
FFFFFFFFF0
FFE000FFF0
FFC0007FF0
FFC0007FF0
FFC0007FF0
FFC0007FF0
FFC0007FF0
FFC0007FF0
FFC0007FF0
FFC0007FF0
FFC0007FF0
FFC0007FF0
FFC0007FF0
FFC0007FF0
FFC0007FF0
FFC0007FF0
FFC0007FF0
FFC0007FF0
FFC0007FF0
FFC0007FF0
FFC0007FF0
FFC0007FF0
FFC0007FF0
FFC0007FF0
FFC0007FF0
FFE000FFF0
FFF000FFF0
FFFFFFFFF0
FFFFFFFFF0
FFFFFFFFF0
FFFFFFFFE0
7FFFFFFFC0
3FFFFFFFC0
3FFFFFFF80
1FFFFFFF00
0FFFFFFE00
07FFFFFE00
ENDCHAR
STARTCHAR 014D
ENCODING 333
SWIDTH 615 0
DWIDTH 41 0
BBX 36 56 3 0
BITMAP
07FFFFFE00
07FFFFFE00
07FFFFFE00
07FFFFFE00
07FFFFFE00
07FFFFFE00
07FFFFFE00
0000000000
0000000000
07FFFFFC00
0FFFFFFE00
1FFFFFFF00
1FFFFFFF80
3FFFFFFF80
7FFFFFFFC0
7FFFFFFFE0
FFFFFFFFE0
FFFFFFFFF0
FFFFFFFFF0
FFFFFFFFF0
FFE000FFF0
FFC0007FF0
FFC0007FF0
FFC0007FF0
FFC0007FF0
FFC0007FF0
FFC0007FF0
FFC0007FF0
FFC0007FF0
FFC0007FF0
FFC0007FF0
FFC0007FF0
FFC0007FF0
FFC0007FF0
FFC0007FF0
FFC0007FF0
FFC0007FF0
FFC0007FF0
FFC0007FF0
FFC0007FF0
FFC0007FF0
FFC0007FF0
FFC0007FF0
FFC0007FF0
FFE000FFF0
FFF000FFF0
FFFFFFFFF0
FFFFFFFFF0
FFFFFFFFF0
FFFFFFFFE0
7FFFFFFFC0
3FFFFFFFC0
3FFFFFFF80
1FFFFFFF00
0FFFFFFE00
07FFFFFE00
ENDCHAR
STARTCHAR 0150
ENCODING 336
SWIDTH 615 0
DWIDTH 41 0
BBX 36 60 3 0
BITMAP
0001F3C000
0001F3C000
0001F3C000
0001F3C000
0001E7C000
0003E78000
0003CF8000
0007CF0000
000F9F0000
000F9E0000
000F1E0000
0000000000
0000000000
07FFFFFC00
0FFFFFFE00
1FFFFFFF00
1FFFFFFF80
3FFFFFFF80
7FFFFFFFC0
7FFFFFFFE0
FFFFFFFFE0
FFFFFFFFF0
FFFFFFFFF0
FFFFFFFFF0
FFE000FFF0
FFC0007FF0
FFC0007FF0
FFC0007FF0
FFC0007FF0
FFC0007FF0
FFC0007FF0
FFC0007FF0
FFC0007FF0
FFC0007FF0
FFC0007FF0
FFC0007FF0
FFC0007FF0
FFC0007FF0
FFC0007FF0
FFC0007FF0
FFC0007FF0
FFC0007FF0
FFC0007FF0
FFC0007FF0
FFC0007FF0
FFC0007FF0
FFC0007FF0
FFC0007FF0
FFE000FFF0
FFF000FFF0
FFFFFFFFF0
FFFFFFFFF0
FFFFFFFFF0
FFFFFFFFE0
7FFFFFFFC0
3FFFFFFFC0
3FFFFFFF80
1FFFFFFF00
0FFFFFFE00
07FFFFFE00
ENDCHAR
STARTCHAR 0151
ENCODING 337
SWIDTH 615 0
DWIDTH 41 0
BBX 36 60 3 0
BITMAP
0001F3C000
0001F3C000
0001F3C000
0001F3C000
0001E7C000
0003E78000
0003CF8000
0007CF0000
000F9F0000
000F9E0000
000F1E0000
0000000000
0000000000
07FFFFFC00
0FFFFFFE00
1FFFFFFF00
1FFFFFFF80
3FFFFFFF80
7FFFFFFFC0
7FFFFFFFE0
FFFFFFFFE0
FFFFFFFFF0
FFFFFFFFF0
FFFFFFFFF0
FFE000FFF0
FFC0007FF0
FFC0007FF0
FFC0007FF0
FFC0007FF0
FFC0007FF0
FFC0007FF0
FFC0007FF0
FFC0007FF0
FFC0007FF0
FFC0007FF0
FFC0007FF0
FFC0007FF0
FFC0007FF0
FFC0007FF0
FFC0007FF0
FFC0007FF0
FFC0007FF0
FFC0007FF0
FFC0007FF0
FFC0007FF0
FFC0007FF0
FFC0007FF0
FFC0007FF0
FFE000FFF0
FFF000FFF0
FFFFFFFFF0
FFFFFFFFF0
FFFFFFFFF0
FFFFFFFFE0
7FFFFFFFC0
3FFFFFFFC0
3FFFFFFF80
1FFFFFFF00
0FFFFFFE00
07FFFFFE00
ENDCHAR
STARTCHAR 0152
ENCODING 338
SWIDTH 855 0
DWIDTH 57 0
BBX 52 47 3 0
BITMAP
07FFFFFFFFFC00
0FFFFFFFFFFE00
1FFFFFFFFFFF00
1FFFFFFFFFFF80
3FFFFFFFFFFF80
7FFFFFFFFFFFC0
7FFFFFFFFFFFE0
FFFFFFFFFFFFE0
FFFFFFFFFFFFF0
FFFFFFFFFFFFF0
FFFFFFFFFFFFF0
FFE007FE001FF0
FFC007FE001FF0
FFC007FE000000
FFC007FE000000
FFC007FE000000
FFC007FE000000
FFC007FE000000
FFC007FE000000
FFC007FE000000
FFC007FFFFF000
FFC007FFFFF000
FFC007FFFFF000
FFC007FFFFF000
FFC007FFFFF000
FFC007FFFFF000
FFC007FFFFF000
FFC007FFFFF000
FFC007FE000000
FFC007FE000000
FFC007FE000000
FFC007FE000000
FFC007FE000000
FFC007FE000000
FFC007FE001FF0
FFE007FE001FF0
FFF007FE003FF0
FFFFFFFFFFFFF0
FFFFFFFFFFFFF0
FFFFFFFFFFFFF0
FFFFFFFFFFFFE0
7FFFFFFFFFFFC0
3FFFFFFFFFFFC0
3FFFFFFFFFFF80
1FFFFFFFFFFF00
0FFFFFFFFFFE00
07FFFFFFFFFE00
ENDCHAR
STARTCHAR 0153
ENCODING 339
SWIDTH 855 0
DWIDTH 57 0
BBX 52 47 3 0
BITMAP
07FFFFFFFFFC00
0FFFFFFFFFFE00
1FFFFFFFFFFF00
1FFFFFFFFFFF80
3FFFFFFFFFFF80
7FFFFFFFFFFFC0
7FFFFFFFFFFFE0
FFFFFFFFFFFFE0
FFFFFFFFFFFFF0
FFFFFFFFFFFFF0
FFFFFFFFFFFFF0
FFE007FE001FF0
FFC007FE001FF0
FFC007FE000000
FFC007FE000000
FFC007FE000000
FFC007FE000000
FFC007FE000000
FFC007FE000000
FFC007FE000000
FFC007FFFFF000
FFC007FFFFF000
FFC007FFFFF000
FFC007FFFFF000
FFC007FFFFF000
FFC007FFFFF000
FFC007FFFFF000
FFC007FFFFF000
FFC007FE000000
FFC007FE000000
FFC007FE000000
FFC007FE000000
FFC007FE000000
FFC007FE000000
FFC007FE001FF0
FFE007FE001FF0
FFF007FE003FF0
FFFFFFFFFFFFF0
FFFFFFFFFFFFF0
FFFFFFFFFFFFF0
FFFFFFFFFFFFE0
7FFFFFFFFFFFC0
3FFFFFFFFFFFC0
3FFFFFFFFFFF80
1FFFFFFFFFFF00
0FFFFFFFFFFE00
07FFFFFFFFFE00
ENDCHAR
STARTCHAR 0154
ENCODING 340
SWIDTH 540 0
DWIDTH 36 0
BBX 32 56 3 0
BITMAP
0000FFE0
03FFFFE0
1FFFFFE0
1FFFFE00
1FFFC000
1FF80000
1F800000
00000000
00000000
FFFFFF80
FFFFFFC0
FFFFFFE0
FFFFFFE0
FFFFFFF0
FFFFFFF8
FFFFFFF8
FFFFFFFC
FFFFFFFC
FFFFFFFC
FFFFFFFC
FFC01FFC
FFC00FFC
FFC00FFC
FFC00FFC
FFC00FFC
FFC00FFC
FFC00FFC
FFC01FFC
FFFFFFFC
FFFFFFF8
FFFFFFF8
FFFFFFF0
FFFFFFE0
FFFFFFE0
FFFFFFC0
FFFFFF80
FFFFFF80
FFFFFFC0
FFC1FFC0
FFC0FFE0
FFC0FFE0
FFC0FFF0
FFC07FF0
FFC07FF8
FFC07FF8
FFC03FF8
FFC03FFC
FFC03FFC
FFC01FFE
FFC01FFE
FFC01FFF
FFC00FFF
FFC00FFF
FFC007FF
FFC007FF
FFC007FF
ENDCHAR
STARTCHAR 0155
ENCODING 341
SWIDTH 540 0
DWIDTH 36 0
BBX 32 56 3 0
BITMAP
0000FFE0
03FFFFE0
1FFFFFE0
1FFFFE00
1FFFC000
1FF80000
1F800000
00000000
00000000
FFFFFF80
FFFFFFC0
FFFFFFE0
FFFFFFE0
FFFFFFF0
FFFFFFF8
FFFFFFF8
FFFFFFFC
FFFFFFFC
FFFFFFFC
FFFFFFFC
FFC01FFC
FFC00FFC
FFC00FFC
FFC00FFC
FFC00FFC
FFC00FFC
FFC00FFC
FFC01FFC
FFFFFFFC
FFFFFFF8
FFFFFFF8
FFFFFFF0
FFFFFFE0
FFFFFFE0
FFFFFFC0
FFFFFF80
FFFFFF80
FFFFFFC0
FFC1FFC0
FFC0FFE0
FFC0FFE0
FFC0FFF0
FFC07FF0
FFC07FF8
FFC07FF8
FFC03FF8
FFC03FFC
FFC03FFC
FFC01FFE
FFC01FFE
FFC01FFF
FFC00FFF
FFC00FFF
FFC007FF
FFC007FF
FFC007FF
ENDCHAR
STARTCHAR 0156
ENCODING 342
SWIDTH 540 0
DWIDTH 36 0
BBX 32 58 3 -11
BITMAP
FFFFFF80
FFFFFFC0
FFFFFFE0
FFFFFFE0
FFFFFFF0
FFFFFFF8
FFFFFFF8
FFFFFFFC
FFFFFFFC
FFFFFFFC
FFFFFFFC
FFC01FFC
FFC00FFC
FFC00FFC
FFC00FFC
FFC00FFC
FFC00FFC
FFC00FFC
FFC01FFC
FFFFFFFC
FFFFFFF8
FFFFFFF8
FFFFFFF0
FFFFFFE0
FFFFFFE0
FFFFFFC0
FFFFFF80
FFFFFF80
FFFFFFC0
FFC1FFC0
FFC0FFE0
FFC0FFE0
FFC0FFF0
FFC07FF0
FFC07FF8
FFC07FF8
FFC03FF8
FFC03FFC
FFC03FFC
FFC01FFE
FFC01FFE
FFC01FFF
FFC00FFF
FFC00FFF
FFC007FF
FFC007FF
FFC007FF
00000000
0003C000
0003C000
0003E000
0003E000
0003E000
0003C000
0007C000
00078000
000F0000
000F0000
ENDCHAR
STARTCHAR 0157
ENCODING 343
SWIDTH 540 0
DWIDTH 36 0
BBX 32 58 3 -11
BITMAP
FFFFFF80
FFFFFFC0
FFFFFFE0
FFFFFFE0
FFFFFFF0
FFFFFFF8
FFFFFFF8
FFFFFFFC
FFFFFFFC
FFFFFFFC
FFFFFFFC
FFC01FFC
FFC00FFC
FFC00FFC
FFC00FFC
FFC00FFC
FFC00FFC
FFC00FFC
FFC01FFC
FFFFFFFC
FFFFFFF8
FFFFFFF8
FFFFFFF0
FFFFFFE0
FFFFFFE0
FFFFFFC0
FFFFFF80
FFFFFF80
FFFFFFC0
FFC1FFC0
FFC0FFE0
FFC0FFE0
FFC0FFF0
FFC07FF0
FFC07FF8
FFC07FF8
FFC03FF8
FFC03FFC
FFC03FFC
FFC01FFE
FFC01FFE
FFC01FFF
FFC00FFF
FFC00FFF
FFC007FF
FFC007FF
FFC007FF
00000000
0003C000
0003C000
0003E000
0003E000
0003E000
0003C000
0007C000
00078000
000F0000
000F0000
ENDCHAR
STARTCHAR 0158
ENCODING 344
SWIDTH 540 0
DWIDTH 36 0
BBX 32 58 3 0
BITMAP
07000E00
07801E00
07C03E00
07E07E00
07F0FC00
01FFF800
00FFF000
007FE000
003FC000
00000000
00000000
FFFFFF80
FFFFFFC0
FFFFFFE0
FFFFFFE0
FFFFFFF0
FFFFFFF8
FFFFFFF8
FFFFFFFC
FFFFFFFC
FFFFFFFC
FFFFFFFC
FFC01FFC
FFC00FFC
FFC00FFC
FFC00FFC
FFC00FFC
FFC00FFC
FFC00FFC
FFC01FFC
FFFFFFFC
FFFFFFF8
FFFFFFF8
FFFFFFF0
FFFFFFE0
FFFFFFE0
FFFFFFC0
FFFFFF80
FFFFFF80
FFFFFFC0
FFC1FFC0
FFC0FFE0
FFC0FFE0
FFC0FFF0
FFC07FF0
FFC07FF8
FFC07FF8
FFC03FF8
FFC03FFC
FFC03FFC
FFC01FFE
FFC01FFE
FFC01FFF
FFC00FFF
FFC00FFF
FFC007FF
FFC007FF
FFC007FF
ENDCHAR
STARTCHAR 0159
ENCODING 345
SWIDTH 540 0
DWIDTH 36 0
BBX 32 58 3 0
BITMAP
07000E00
07801E00
07C03E00
07E07E00
07F0FC00
03FFF800
01FFF000
007FE000
003FC000
00000000
00000000
FFFFFF80
FFFFFFC0
FFFFFFE0
FFFFFFE0
FFFFFFF0
FFFFFFF8
FFFFFFF8
FFFFFFFC
FFFFFFFC
FFFFFFFC
FFFFFFFC
FFC01FFC
FFC00FFC
FFC00FFC
FFC00FFC
FFC00FFC
FFC00FFC
FFC00FFC
FFC01FFC
FFFFFFFC
FFFFFFF8
FFFFFFF8
FFFFFFF0
FFFFFFE0
FFFFFFE0
FFFFFFC0
FFFFFF80
FFFFFF80
FFFFFFC0
FFC1FFC0
FFC0FFE0
FFC0FFE0
FFC0FFF0
FFC07FF0
FFC07FF8
FFC07FF8
FFC03FF8
FFC03FFC
FFC03FFC
FFC01FFE
FFC01FFE
FFC01FFF
FFC00FFF
FFC00FFF
FFC007FF
FFC007FF
FFC007FF
ENDCHAR
STARTCHAR 015C
ENCODING 348
SWIDTH 540 0
DWIDTH 36 0
BBX 30 57 3 0
BITMAP
0FFFFE00
1FFFFF00
3FFFFF80
7FFFFFC0
FFFFFFE0
FE001FE0
FC0007E0
F80003E0
00000000
00000000
7FFFFF80
FFFFFFC0
FFFFFFE0
FFFFFFE0
FFFFFFF0
FFFFFFF8
FFFFFFFC
FFFFFFFC
FFFFFFFC
FFFFFFFC
FFFFFFFC
FFC007FC
FFE003FC
FFF00000
FFF80000
FFFC0000
7FFE0000
3FFF0000
1FFF8000
0FFFC000
07FFE000
03FFF000
01FFF800
00FFFC00
007FFE00
003FFF00
001FFF80
000FFFC0
0007FFE0
0003FFF0
0001FFF8
0000FFFC
00007FFC
00003FFC
FF001FFC
FF800FFC
FFC007FC
FFFFFFFC
FFFFFFFC
FFFFFFFC
FFFFFFFC
7FFFFFFC
3FFFFFFC
3FFFFFFC
1FFFFFFC
0FFFFFFC
07FFFFF8
ENDCHAR
STARTCHAR 015D
ENCODING 349
SWIDTH 540 0
DWIDTH 36 0
BBX 30 57 3 0
BITMAP
0FFFFE00
1FFFFF00
3FFFFF80
7FFFFFC0
FFFFFFE0
FE001FE0
FC0007E0
F80003E0
00000000
00000000
7FFFFF80
FFFFFFC0
FFFFFFE0
FFFFFFE0
FFFFFFF0
FFFFFFF8
FFFFFFFC
FFFFFFFC
FFFFFFFC
FFFFFFFC
FFFFFFFC
FFC007FC
FFE003FC
FFF00000
FFF80000
FFFC0000
7FFE0000
3FFF0000
1FFF8000
0FFFC000
07FFE000
03FFF000
01FFF800
00FFFC00
007FFE00
003FFF00
001FFF80
000FFFC0
0007FFE0
0003FFF0
0001FFF8
0000FFFC
00007FFC
00003FFC
FF001FFC
FF800FFC
FFC007FC
FFFFFFFC
FFFFFFFC
FFFFFFFC
FFFFFFFC
7FFFFFFC
3FFFFFFC
3FFFFFFC
1FFFFFFC
0FFFFFFC
07FFFFF8
ENDCHAR
STARTCHAR 015E
ENCODING 350
SWIDTH 540 0
DWIDTH 36 0
BBX 30 57 3 -10
BITMAP
7FFFFF80
FFFFFFC0
FFFFFFE0
FFFFFFE0
FFFFFFF0
FFFFFFF8
FFFFFFFC
FFFFFFFC
FFFFFFFC
FFFFFFFC
FFFFFFFC
FFC007FC
FFE003FC
FFF00000
FFF80000
FFFC0000
7FFE0000
3FFF0000
1FFF8000
0FFFC000
07FFE000
03FFF000
01FFF800
00FFFC00
007FFE00
003FFF00
001FFF80
000FFFC0
0007FFE0
0003FFF0
0001FFF8
0000FFFC
00007FFC
00003FFC
FF001FFC
FF800FFC
FFC007FC
FFFFFFFC
FFFFFFFC
FFFFFFFC
FFFFFFFC
7FFFFFFC
3FFFFFFC
3FFFFFFC
1FFFFFFC
0FFFFFFC
07FFFFF8
00007000
0000F000
0007E000
0007E000
0007E000
0001E000
0001E000
001FE000
003FC000
003F8000
ENDCHAR
STARTCHAR 015F
ENCODING 351
SWIDTH 540 0
DWIDTH 36 0
BBX 30 57 3 -10
BITMAP
7FFFFF80
FFFFFFC0
FFFFFFE0
FFFFFFE0
FFFFFFF0
FFFFFFF8
FFFFFFFC
FFFFFFFC
FFFFFFFC
FFFFFFFC
FFFFFFFC
FFC007FC
FFE003FC
FFF00000
FFF80000
FFFC0000
7FFE0000
3FFF0000
1FFF8000
0FFFC000
07FFE000
03FFF000
01FFF800
00FFFC00
007FFE00
003FFF00
001FFF80
000FFFC0
0007FFE0
0003FFF0
0001FFF8
0000FFFC
00007FFC
00003FFC
FF001FFC
FF800FFC
FFC007FC
FFFFFFFC
FFFFFFFC
FFFFFFFC
FFFFFFFC
7FFFFFFC
3FFFFFFC
3FFFFFFC
1FFFFFFC
0FFFFFFC
07FFFFF8
00007000
0000F000
0007E000
0007E000
0007E000
0001E000
0001E000
001FE000
003FC000
003F8000
ENDCHAR
STARTCHAR 0160
ENCODING 352
SWIDTH 540 0
DWIDTH 36 0
BBX 30 58 3 0
BITMAP
03000600
03800E00
03C01E00
03E07E00
03F0FE00
01FFFC00
00FFF800
007FF000
003FE000
00000000
00000000
7FFFFF80
FFFFFFC0
FFFFFFE0
FFFFFFE0
FFFFFFF0
FFFFFFF8
FFFFFFFC
FFFFFFFC
FFFFFFFC
FFFFFFFC
FFFFFFFC
FFC007FC
FFE003FC
FFF00000
FFF80000
FFFC0000
7FFE0000
3FFF0000
1FFF8000
0FFFC000
07FFE000
03FFF000
01FFF800
00FFFC00
007FFE00
003FFF00
001FFF80
000FFFC0
0007FFE0
0003FFF0
0001FFF8
0000FFFC
00007FFC
00003FFC
FF001FFC
FF800FFC
FFC007FC
FFFFFFFC
FFFFFFFC
FFFFFFFC
FFFFFFFC
7FFFFFFC
3FFFFFFC
3FFFFFFC
1FFFFFFC
0FFFFFFC
07FFFFF8
ENDCHAR
STARTCHAR 0161
ENCODING 353
SWIDTH 540 0
DWIDTH 36 0
BBX 30 58 3 0
BITMAP
07000E00
07801E00
07C03E00
07E07E00
03F0FE00
01FFFC00
00FFF800
007FF000
003FE000
00000000
00000000
7FFFFF80
FFFFFFC0
FFFFFFE0
FFFFFFE0
FFFFFFF0
FFFFFFF8
FFFFFFFC
FFFFFFFC
FFFFFFFC
FFFFFFFC
FFFFFFFC
FFC007FC
FFE003FC
FFF00000
FFF80000
FFFC0000
7FFE0000
3FFF0000
1FFF8000
0FFFC000
07FFE000
03FFF000
01FFF800
00FFFC00
007FFE00
003FFF00
001FFF80
000FFFC0
0007FFE0
0003FFF0
0001FFF8
0000FFFC
00007FFC
00003FFC
FF001FFC
FF800FFC
FFC007FC
FFFFFFFC
FFFFFFFC
FFFFFFFC
FFFFFFFC
7FFFFFFC
3FFFFFFC
3FFFFFFC
1FFFFFFC
0FFFFFFC
07FFFFF8
ENDCHAR
STARTCHAR 0162
ENCODING 354
SWIDTH 525 0
DWIDTH 35 0
BBX 35 57 0 -10
BITMAP
07FFFFFC00
0FFFFFFE00
0FFFFFFF00
1FFFFFFF00
3FFFFFFF80
3FFFFFFFC0
7FFFFFFFC0
FFFFFFFFE0
FFFFFFFFE0
FFE7FEFFE0
FFC7FE7FE0
FF87FE1FE0
FE07FE0FE0
FC07FE07E0
0007FE0000
0007FE0000
0007FE0000
0007FE0000
0007FE0000
0007FE0000
0007FE0000
0007FE0000
0007FE0000
0007FE0000
0007FE0000
0007FE0000
0007FE0000
0007FE0000
0007FE0000
0007FE0000
0007FE0000
0007FE0000
0007FE0000
0007FE0000
0007FE0000
0007FE0000
0007FE0000
0007FE0000
0007FE0000
0007FE0000
0007FE0000
0007FE0000
0007FE0000
0007FE0000
0007FE0000
0007FE0000
0007FE0000
00001E0000
00003C0000
0001F80000
0001F80000
0001F80000
0000380000
0000380000
0007F80000
000FF00000
000FF00000
ENDCHAR
STARTCHAR 0163
ENCODING 355
SWIDTH 525 0
DWIDTH 35 0
BBX 35 57 0 -10
BITMAP
07FFFFFC00
0FFFFFFE00
0FFFFFFF00
1FFFFFFF00
3FFFFFFF80
3FFFFFFFC0
7FFFFFFFC0
FFFFFFFFE0
FFFFFFFFE0
FFE7FEFFE0
FFC7FE7FE0
FF87FE1FE0
FE07FE0FE0
FC07FE07E0
0007FE0000
0007FE0000
0007FE0000
0007FE0000
0007FE0000
0007FE0000
0007FE0000
0007FE0000
0007FE0000
0007FE0000
0007FE0000
0007FE0000
0007FE0000
0007FE0000
0007FE0000
0007FE0000
0007FE0000
0007FE0000
0007FE0000
0007FE0000
0007FE0000
0007FE0000
0007FE0000
0007FE0000
0007FE0000
0007FE0000
0007FE0000
0007FE0000
0007FE0000
0007FE0000
0007FE0000
0007FE0000
0007FE0000
00001E0000
00003C0000
0001F80000
0001F80000
0001F80000
0000380000
0000380000
0007F80000
000FF00000
000FF00000
ENDCHAR
STARTCHAR 0164
ENCODING 356
SWIDTH 525 0
DWIDTH 35 0
BBX 35 58 0 0
BITMAP
007000E000
007801E000
007C03E000
007E07E000
007F0FC000
003FFF8000
001FFF0000
000FFE0000
0003FC0000
0000000000
0000000000
07FFFFFC00
0FFFFFFE00
0FFFFFFF00
1FFFFFFF00
3FFFFFFF80
3FFFFFFFC0
7FFFFFFFC0
FFFFFFFFE0
FFFFFFFFE0
FFE7FEFFE0
FFC7FE7FE0
FF87FE1FE0
FE07FE0FE0
FC07FE07E0
0007FE0000
0007FE0000
0007FE0000
0007FE0000
0007FE0000
0007FE0000
0007FE0000
0007FE0000
0007FE0000
0007FE0000
0007FE0000
0007FE0000
0007FE0000
0007FE0000
0007FE0000
0007FE0000
0007FE0000
0007FE0000
0007FE0000
0007FE0000
0007FE0000
0007FE0000
0007FE0000
0007FE0000
0007FE0000
0007FE0000
0007FE0000
0007FE0000
0007FE0000
0007FE0000
0007FE0000
0007FE0000
0007FE0000
ENDCHAR
STARTCHAR 0165
ENCODING 357
SWIDTH 525 0
DWIDTH 35 0
BBX 35 58 0 0
BITMAP
007000E000
007801E000
007C03E000
007E07E000
007F0FC000
003FFF8000
001FFF0000
000FFE0000
0003FC0000
0000000000
0000000000
07FFFFFC00
0FFFFFFE00
0FFFFFFF00
1FFFFFFF00
3FFFFFFF80
3FFFFFFFC0
7FFFFFFFC0
FFFFFFFFE0
FFFFFFFFE0
FFE7FEFFE0
FFC7FE7FE0
FF87FE1FE0
FE07FE0FE0
FC07FE07E0
0007FE0000
0007FE0000
0007FE0000
0007FE0000
0007FE0000
0007FE0000
0007FE0000
0007FE0000
0007FE0000
0007FE0000
0007FE0000
0007FE0000
0007FE0000
0007FE0000
0007FE0000
0007FE0000
0007FE0000
0007FE0000
0007FE0000
0007FE0000
0007FE0000
0007FE0000
0007FE0000
0007FE0000
0007FE0000
0007FE0000
0007FE0000
0007FE0000
0007FE0000
0007FE0000
0007FE0000
0007FE0000
0007FE0000
ENDCHAR
STARTCHAR 0166
ENCODING 358
SWIDTH 525 0
DWIDTH 35 0
BBX 35 47 0 0
BITMAP
07FFFFFC00
0FFFFFFE00
0FFFFFFF00
1FFFFFFF00
3FFFFFFF80
3FFFFFFFC0
7FFFFFFFC0
FFFFFFFFE0
FFFFFFFFE0
FFE7FEFFE0
FFC7FE7FE0
FF87FE1FE0
FE07FE0FE0
FC07FE07E0
0007FE0000
0007FE0000
0007FE0000
0007FE0000
0007FE0000
0007FE0000
0007FE0000
07FFFFFE00
07FFFFFE00
07FFFFFE00
07FFFFFE00
07FFFFFE00
07FFFFFE00
0007FE0000
0007FE0000
0007FE0000
0007FE0000
0007FE0000
0007FE0000
0007FE0000
0007FE0000
0007FE0000
0007FE0000
0007FE0000
0007FE0000
0007FE0000
0007FE0000
0007FE0000
0007FE0000
0007FE0000
0007FE0000
0007FE0000
0007FE0000
ENDCHAR
STARTCHAR 0167
ENCODING 359
SWIDTH 525 0
DWIDTH 35 0
BBX 35 47 0 0
BITMAP
07FFFFFC00
0FFFFFFE00
0FFFFFFF00
1FFFFFFF00
3FFFFFFF80
3FFFFFFFC0
7FFFFFFFC0
FFFFFFFFE0
FFFFFFFFE0
FFE7FEFFE0
FFC7FE7FE0
FF87FE1FE0
FE07FE0FE0
FC07FE07E0
0007FE0000
0007FE0000
0007FE0000
0007FE0000
0007FE0000
0007FE0000
0007FE0000
07FFFFFE00
07FFFFFE00
07FFFFFE00
07FFFFFE00
07FFFFFE00
07FFFFFE00
0007FE0000
0007FE0000
0007FE0000
0007FE0000
0007FE0000
0007FE0000
0007FE0000
0007FE0000
0007FE0000
0007FE0000
0007FE0000
0007FE0000
0007FE0000
0007FE0000
0007FE0000
0007FE0000
0007FE0000
0007FE0000
0007FE0000
0007FE0000
ENDCHAR
STARTCHAR 0168
ENCODING 360
SWIDTH 600 0
DWIDTH 40 0
BBX 35 58 3 0
BITMAP
001F000000
007FE00600
01FFF81E00
07FFFF7E00
0FFFFFFE00
0FF0FFFE00
0FC03FFC00
0F0007F000
0E0000C000
0000000000
0000000000
FFC0007FE0
FFC0007FE0
FFC0007FE0
FFC0007FE0
FFC0007FE0
FFC0007FE0
FFC0007FE0
FFC0007FE0
FFC0007FE0
FFC0007FE0
FFC0007FE0
FFC0007FE0
FFC0007FE0
FFC0007FE0
FFC0007FE0
FFC0007FE0
FFC0007FE0
FFC0007FE0
FFC0007FE0
FFC0007FE0
FFC0007FE0
FFC0007FE0
FFC0007FE0
FFC0007FE0
FFC0007FE0
FFC0007FE0
FFC0007FE0
FFC0007FE0
FFC0007FE0
FFC0007FE0
FFC0007FE0
FFC0007FE0
FFC0007FE0
FFC0007FE0
FFC0007FE0
FFE000FFE0
FFF001FFE0
FFFFFFFFE0
FFFFFFFFE0
FFFFFFFFE0
FFFFFFFFE0
7FFFFFFFC0
3FFFFFFF80
3FFFFFFF00
1FFFFFFF00
0FFFFFFE00
07FFFFFC00
ENDCHAR
STARTCHAR 0169
ENCODING 361
SWIDTH 600 0
DWIDTH 40 0
BBX 35 58 3 0
BITMAP
001F000000
007FE00600
01FFF81E00
07FFFF7E00
0FFFFFFE00
0FE0FFFE00
0FC03FFC00
0F0007F000
0E0000C000
0000000000
0000000000
FFC0007FE0
FFC0007FE0
FFC0007FE0
FFC0007FE0
FFC0007FE0
FFC0007FE0
FFC0007FE0
FFC0007FE0
FFC0007FE0
FFC0007FE0
FFC0007FE0
FFC0007FE0
FFC0007FE0
FFC0007FE0
FFC0007FE0
FFC0007FE0
FFC0007FE0
FFC0007FE0
FFC0007FE0
FFC0007FE0
FFC0007FE0
FFC0007FE0
FFC0007FE0
FFC0007FE0
FFC0007FE0
FFC0007FE0
FFC0007FE0
FFC0007FE0
FFC0007FE0
FFC0007FE0
FFC0007FE0
FFC0007FE0
FFC0007FE0
FFC0007FE0
FFC0007FE0
FFE000FFE0
FFF001FFE0
FFFFFFFFE0
FFFFFFFFE0
FFFFFFFFE0
FFFFFFFFE0
7FFFFFFFC0
3FFFFFFF80
3FFFFFFF00
1FFFFFFF00
0FFFFFFE00
07FFFFFC00
ENDCHAR
STARTCHAR 016A
ENCODING 362
SWIDTH 600 0
DWIDTH 40 0
BBX 35 56 3 0
BITMAP
0FFFFFFC00
0FFFFFFC00
0FFFFFFC00
0FFFFFFC00
0FFFFFFC00
0FFFFFFC00
0FFFFFFC00
0000000000
0000000000
FFC0007FE0
FFC0007FE0
FFC0007FE0
FFC0007FE0
FFC0007FE0
FFC0007FE0
FFC0007FE0
FFC0007FE0
FFC0007FE0
FFC0007FE0
FFC0007FE0
FFC0007FE0
FFC0007FE0
FFC0007FE0
FFC0007FE0
FFC0007FE0
FFC0007FE0
FFC0007FE0
FFC0007FE0
FFC0007FE0
FFC0007FE0
FFC0007FE0
FFC0007FE0
FFC0007FE0
FFC0007FE0
FFC0007FE0
FFC0007FE0
FFC0007FE0
FFC0007FE0
FFC0007FE0
FFC0007FE0
FFC0007FE0
FFC0007FE0
FFC0007FE0
FFC0007FE0
FFE000FFE0
FFF001FFE0
FFFFFFFFE0
FFFFFFFFE0
FFFFFFFFE0
FFFFFFFFE0
7FFFFFFFC0
3FFFFFFF80
3FFFFFFF00
1FFFFFFF00
0FFFFFFE00
07FFFFFC00
ENDCHAR
STARTCHAR 016B
ENCODING 363
SWIDTH 600 0
DWIDTH 40 0
BBX 35 56 3 0
BITMAP
0FFFFFFC00
0FFFFFFC00
0FFFFFFC00
0FFFFFFC00
0FFFFFFC00
0FFFFFFC00
0FFFFFFC00
0000000000
0000000000
FFC0007FE0
FFC0007FE0
FFC0007FE0
FFC0007FE0
FFC0007FE0
FFC0007FE0
FFC0007FE0
FFC0007FE0
FFC0007FE0
FFC0007FE0
FFC0007FE0
FFC0007FE0
FFC0007FE0
FFC0007FE0
FFC0007FE0
FFC0007FE0
FFC0007FE0
FFC0007FE0
FFC0007FE0
FFC0007FE0
FFC0007FE0
FFC0007FE0
FFC0007FE0
FFC0007FE0
FFC0007FE0
FFC0007FE0
FFC0007FE0
FFC0007FE0
FFC0007FE0
FFC0007FE0
FFC0007FE0
FFC0007FE0
FFC0007FE0
FFC0007FE0
FFC0007FE0
FFE000FFE0
FFF001FFE0
FFFFFFFFE0
FFFFFFFFE0
FFFFFFFFE0
FFFFFFFFE0
7FFFFFFFC0
3FFFFFFF80
3FFFFFFF00
1FFFFFFF00
0FFFFFFE00
07FFFFFC00
ENDCHAR
STARTCHAR 016E
ENCODING 366
SWIDTH 600 0
DWIDTH 40 0
BBX 35 59 3 0
BITMAP
0003F80000
0007FC0000
0007FC0000
00071C0000
00071C0000
00071C0000
00071C0000
0007FC0000
0007FC0000
0003F80000
0000000000
0000000000
FFC0007FE0
FFC0007FE0
FFC0007FE0
FFC0007FE0
FFC0007FE0
FFC0007FE0
FFC0007FE0
FFC0007FE0
FFC0007FE0
FFC0007FE0
FFC0007FE0
FFC0007FE0
FFC0007FE0
FFC0007FE0
FFC0007FE0
FFC0007FE0
FFC0007FE0
FFC0007FE0
FFC0007FE0
FFC0007FE0
FFC0007FE0
FFC0007FE0
FFC0007FE0
FFC0007FE0
FFC0007FE0
FFC0007FE0
FFC0007FE0
FFC0007FE0
FFC0007FE0
FFC0007FE0
FFC0007FE0
FFC0007FE0
FFC0007FE0
FFC0007FE0
FFC0007FE0
FFE000FFE0
FFF001FFE0
FFFFFFFFE0
FFFFFFFFE0
FFFFFFFFE0
FFFFFFFFE0
7FFFFFFFC0
3FFFFFFF80
3FFFFFFF00
1FFFFFFF00
0FFFFFFE00
07FFFFFC00
ENDCHAR
STARTCHAR 016F
ENCODING 367
SWIDTH 600 0
DWIDTH 40 0
BBX 35 59 3 0
BITMAP
0003F80000
0007FC0000
0007FC0000
00071C0000
00071C0000
00071C0000
00071C0000
0007FC0000
0007FC0000
0003F80000
0000000000
0000000000
FFC0007FE0
FFC0007FE0
FFC0007FE0
FFC0007FE0
FFC0007FE0
FFC0007FE0
FFC0007FE0
FFC0007FE0
FFC0007FE0
FFC0007FE0
FFC0007FE0
FFC0007FE0
FFC0007FE0
FFC0007FE0
FFC0007FE0
FFC0007FE0
FFC0007FE0
FFC0007FE0
FFC0007FE0
FFC0007FE0
FFC0007FE0
FFC0007FE0
FFC0007FE0
FFC0007FE0
FFC0007FE0
FFC0007FE0
FFC0007FE0
FFC0007FE0
FFC0007FE0
FFC0007FE0
FFC0007FE0
FFC0007FE0
FFC0007FE0
FFC0007FE0
FFC0007FE0
FFE000FFE0
FFF001FFE0
FFFFFFFFE0
FFFFFFFFE0
FFFFFFFFE0
FFFFFFFFE0
7FFFFFFFC0
3FFFFFFF80
3FFFFFFF00
1FFFFFFF00
0FFFFFFE00
07FFFFFC00
ENDCHAR
STARTCHAR 0170
ENCODING 368
SWIDTH 600 0
DWIDTH 40 0
BBX 35 60 3 0
BITMAP
0001E3C000
0001E3C000
0001E3C000
0001E3C000
0001E7C000
0003C78000
0007CF8000
00078F0000
000F9F0000
000F9E0000
000F1E0000
0000000000
0000000000
FFC0007FE0
FFC0007FE0
FFC0007FE0
FFC0007FE0
FFC0007FE0
FFC0007FE0
FFC0007FE0
FFC0007FE0
FFC0007FE0
FFC0007FE0
FFC0007FE0
FFC0007FE0
FFC0007FE0
FFC0007FE0
FFC0007FE0
FFC0007FE0
FFC0007FE0
FFC0007FE0
FFC0007FE0
FFC0007FE0
FFC0007FE0
FFC0007FE0
FFC0007FE0
FFC0007FE0
FFC0007FE0
FFC0007FE0
FFC0007FE0
FFC0007FE0
FFC0007FE0
FFC0007FE0
FFC0007FE0
FFC0007FE0
FFC0007FE0
FFC0007FE0
FFC0007FE0
FFE000FFE0
FFF001FFE0
FFFFFFFFE0
FFFFFFFFE0
FFFFFFFFE0
FFFFFFFFE0
7FFFFFFFC0
3FFFFFFF80
3FFFFFFF00
1FFFFFFF00
0FFFFFFE00
07FFFFFC00
ENDCHAR
STARTCHAR 0171
ENCODING 369
SWIDTH 600 0
DWIDTH 40 0
BBX 35 60 3 0
BITMAP
0001E3C000
0001E3C000
0001E3C000
0001E3C000
0001E7C000
0003C78000
0007CF8000
00078F0000
000F9F0000
000F9E0000
000F1E0000
0000000000
0000000000
FFC0007FE0
FFC0007FE0
FFC0007FE0
FFC0007FE0
FFC0007FE0
FFC0007FE0
FFC0007FE0
FFC0007FE0
FFC0007FE0
FFC0007FE0
FFC0007FE0
FFC0007FE0
FFC0007FE0
FFC0007FE0
FFC0007FE0
FFC0007FE0
FFC0007FE0
FFC0007FE0
FFC0007FE0
FFC0007FE0
FFC0007FE0
FFC0007FE0
FFC0007FE0
FFC0007FE0
FFC0007FE0
FFC0007FE0
FFC0007FE0
FFC0007FE0
FFC0007FE0
FFC0007FE0
FFC0007FE0
FFC0007FE0
FFC0007FE0
FFC0007FE0
FFC0007FE0
FFE000FFE0
FFF001FFE0
FFFFFFFFE0
FFFFFFFFE0
FFFFFFFFE0
FFFFFFFFE0
7FFFFFFFC0
3FFFFFFF80
3FFFFFFF00
1FFFFFFF00
0FFFFFFE00
07FFFFFC00
ENDCHAR
STARTCHAR 0172
ENCODING 370
SWIDTH 600 0
DWIDTH 40 0
BBX 35 57 3 -10
BITMAP
FFC0007FE0
FFC0007FE0
FFC0007FE0
FFC0007FE0
FFC0007FE0
FFC0007FE0
FFC0007FE0
FFC0007FE0
FFC0007FE0
FFC0007FE0
FFC0007FE0
FFC0007FE0
FFC0007FE0
FFC0007FE0
FFC0007FE0
FFC0007FE0
FFC0007FE0
FFC0007FE0
FFC0007FE0
FFC0007FE0
FFC0007FE0
FFC0007FE0
FFC0007FE0
FFC0007FE0
FFC0007FE0
FFC0007FE0
FFC0007FE0
FFC0007FE0
FFC0007FE0
FFC0007FE0
FFC0007FE0
FFC0007FE0
FFC0007FE0
FFC0007FE0
FFC0007FE0
FFE000FFE0
FFF001FFE0
FFFFFFFFE0
FFFFFFFFE0
FFFFFFFFE0
FFFFFFFFE0
7FFFFFFFC0
3FFFFFFF80
3FFFFFFF00
1FFFFFFF00
0FFFFFFE00
07FFFFFC00
0001E00000
0003E00000
0007C00000
0007800000
000F800000
000F1E0000
000FFE0000
000FFE0000
000FFE0000
000FFC0000
ENDCHAR
STARTCHAR 0173
ENCODING 371
SWIDTH 600 0
DWIDTH 40 0
BBX 35 57 3 -10
BITMAP
FFC0007FE0
FFC0007FE0
FFC0007FE0
FFC0007FE0
FFC0007FE0
FFC0007FE0
FFC0007FE0
FFC0007FE0
FFC0007FE0
FFC0007FE0
FFC0007FE0
FFC0007FE0
FFC0007FE0
FFC0007FE0
FFC0007FE0
FFC0007FE0
FFC0007FE0
FFC0007FE0
FFC0007FE0
FFC0007FE0
FFC0007FE0
FFC0007FE0
FFC0007FE0
FFC0007FE0
FFC0007FE0
FFC0007FE0
FFC0007FE0
FFC0007FE0
FFC0007FE0
FFC0007FE0
FFC0007FE0
FFC0007FE0
FFC0007FE0
FFC0007FE0
FFC0007FE0
FFE000FFE0
FFF001FFE0
FFFFFFFFE0
FFFFFFFFE0
FFFFFFFFE0
FFFFFFFFE0
7FFFFFFFC0
3FFFFFFF80
3FFFFFFF00
1FFFFFFF00
0FFFFFFE00
07FFFFFC00
0001E00000
0003E00000
0007C00000
0007800000
000F800000
000F1E0000
000FFE0000
000FFE0000
000FFE0000
000FFC0000
ENDCHAR
STARTCHAR 0174
ENCODING 372
SWIDTH 870 0
DWIDTH 58 0
BBX 53 57 3 0
BITMAP
00007FFFF00000
0000FFFFF80000
0001FFFFFC0000
0003FFFFFE0000
0007FFFFFF0000
0007F000FF0000
0007E0007F0000
0007C0001F0000
00000000000000
00000000000000
FFC00000001FF8
FFC00000001FF8
FFC00000003FF8
FFE00000003FF8
FFE00000003FF8
FFE00000003FF8
FFE00000003FF8
FFE00000003FF8
FFF00000007FF8
7FF00000007FF0
7FF00000007FF0
7FF00000007FF0
7FF00000007FF0
7FF00000007FF0
3FF803FE00FFE0
3FF807FF00FFE0
3FF807FF00FFE0
3FF80FFF80FFE0
3FF80FFF80FFE0
1FFC0FFF81FFC0
1FFC0FFFC1FFC0
1FFC1FFFC1FFC0
1FFC1FFFC1FFC0
1FFC1FFFC1FFC0
0FFC1FDFE1FF80
0FFE3FDFE3FF80
0FFE3FCFE3FF80
0FFE3FCFE3FF80
07FE3F8FF3FF80
07FE7F8FF3FF00
07FFFF8FFFFF00
07FFFF87FFFF00
07FFFF87FFFF00
03FFFF07FFFF00
03FFFF07FFFE00
03FFFF07FFFE00
03FFFF03FFFE00
03FFFF03FFFE00
01FFFE03FFFE00
01FFFE03FFFC00
01FFFE03FFFC00
01FFFE01FFFC00
00FFFC01FFFC00
00FFFC01FFFC00
00FFFC01FFF800
00FFFC01FFF800
00FFFC00FFF800
ENDCHAR
STARTCHAR 0175
ENCODING 373
SWIDTH 870 0
DWIDTH 58 0
BBX 53 57 3 0
BITMAP
00007FFFF00000
0000FFFFF80000
0001FFFFFC0000
0003FFFFFE0000
0007FFFFFF0000
0007F000FF0000
0007E0007F0000
0007C0001F0000
00000000000000
00000000000000
FFC00000001FF8
FFC00000001FF8
FFC00000003FF8
FFE00000003FF8
FFE00000003FF8
FFE00000003FF8
FFE00000003FF8
FFE00000003FF8
FFF00000007FF8
7FF00000007FF0
7FF00000007FF0
7FF00000007FF0
7FF00000007FF0
7FF00000007FF0
3FF803FE00FFE0
3FF807FF00FFE0
3FF807FF00FFE0
3FF80FFF80FFE0
3FF80FFF80FFE0
1FFC0FFF81FFC0
1FFC0FFFC1FFC0
1FFC1FFFC1FFC0
1FFC1FFFC1FFC0
1FFC1FFFC1FFC0
0FFC1FDFE1FF80
0FFE3FDFE3FF80
0FFE3FCFE3FF80
0FFE3FCFE3FF80
07FE3F8FF3FF80
07FE7F8FF3FF00
07FFFF8FFFFF00
07FFFF87FFFF00
07FFFF87FFFF00
03FFFF07FFFF00
03FFFF07FFFE00
03FFFF07FFFE00
03FFFF03FFFE00
03FFFF03FFFE00
01FFFE03FFFE00
01FFFE03FFFC00
01FFFE03FFFC00
01FFFE01FFFC00
00FFFC01FFFC00
00FFFC01FFFC00
00FFFC01FFF800
00FFFC01FFF800
00FFFC00FFF800
ENDCHAR
STARTCHAR 0176
ENCODING 374
SWIDTH 465 0
DWIDTH 31 0
BBX 31 57 0 0
BITMAP
03FFFF80
07FFFFC0
0FFFFFE0
1FFFFFF0
3FFFFFF8
3FC003F8
3F8001F8
3E0000F8
00000000
00000000
FFC003FE
FFC007FE
FFC007FE
FFE007FE
FFE00FFE
FFE00FFE
7FF00FFE
7FF01FFC
3FF81FFC
3FF81FF8
1FF83FF8
1FFC3FF0
1FFC3FF0
0FFC7FF0
0FFE7FE0
07FE7FE0
07FEFFC0
03FFFFC0
03FFFF80
01FFFF80
01FFFF00
01FFFF00
00FFFF00
00FFFE00
007FFE00
007FFC00
003FFC00
003FF800
001FF800
001FF800
001FF800
001FF800
001FF800
001FF800
001FF800
001FF800
001FF800
001FF800
001FF800
001FF800
001FF800
001FF800
001FF800
001FF800
001FF800
001FF800
001FF800
ENDCHAR
STARTCHAR 0177
ENCODING 375
SWIDTH 465 0
DWIDTH 31 0
BBX 31 57 0 0
BITMAP
03FFFF80
07FFFFC0
0FFFFFE0
1FFFFFF0
3FFFFFF8
3FC003F8
3F8001F8
3E0000F8
00000000
00000000
FFC003FE
FFC007FE
FFC007FE
FFE007FE
FFE00FFE
FFE00FFE
7FF00FFE
7FF01FFC
3FF81FFC
3FF81FF8
1FF83FF8
1FFC3FF0
1FFC3FF0
0FFC7FF0
0FFE7FE0
07FE7FE0
07FEFFC0
03FFFFC0
03FFFF80
01FFFF80
01FFFF00
01FFFF00
00FFFF00
00FFFE00
007FFE00
007FFC00
003FFC00
003FF800
001FF800
001FF800
001FF800
001FF800
001FF800
001FF800
001FF800
001FF800
001FF800
001FF800
001FF800
001FF800
001FF800
001FF800
001FF800
001FF800
001FF800
001FF800
001FF800
ENDCHAR
STARTCHAR 0178
ENCODING 376
SWIDTH 465 0
DWIDTH 31 0
BBX 31 55 0 0
BITMAP
01F83F00
01F83F00
01F83F00
01F83F00
01F83F00
01F83F00
00000000
00000000
FFC003FE
FFC007FE
FFC007FE
FFE007FE
FFE00FFE
FFE00FFE
7FF00FFE
7FF01FFC
3FF81FFC
3FF81FF8
1FF83FF8
1FFC3FF0
1FFC3FF0
0FFC7FF0
0FFE7FE0
07FE7FE0
07FEFFC0
03FFFFC0
03FFFF80
01FFFF80
01FFFF00
01FFFF00
00FFFF00
00FFFE00
007FFE00
007FFC00
003FFC00
003FF800
001FF800
001FF800
001FF800
001FF800
001FF800
001FF800
001FF800
001FF800
001FF800
001FF800
001FF800
001FF800
001FF800
001FF800
001FF800
001FF800
001FF800
001FF800
001FF800
ENDCHAR
STARTCHAR 017B
ENCODING 379
SWIDTH 555 0
DWIDTH 37 0
BBX 32 57 3 0
BITMAP
0007E000
000FF000
000FF000
000FF000
000FF000
000FF000
000FF000
0007E000
00000000
00000000
FFFFFFE0
FFFFFFF0
FFFFFFF0
FFFFFFF8
FFFFFFFC
FFFFFFFE
FFFFFFFE
FFFFFFFF
FFFFFFFF
FFFFFFFE
7FFFFFFE
00007FFC
0000FFF8
0000FFF8
0001FFF0
0003FFF0
0003FFE0
0007FFC0
0007FFC0
000FFF80
001FFF00
001FFF00
003FFE00
007FFE00
007FFC00
00FFF800
00FFF800
01FFF000
03FFF000
03FFE000
07FFC000
07FFC000
0FFF8000
1FFF0000
1FFF0000
3FFE0000
3FFE0000
7FFFFFFE
FFFFFFFF
FFFFFFFF
FFFFFFFF
7FFFFFFF
3FFFFFFF
3FFFFFFF
1FFFFFFF
0FFFFFFF
07FFFFFF
ENDCHAR
STARTCHAR 017C
ENCODING 380
SWIDTH 555 0
DWIDTH 37 0
BBX 32 60 3 0
BITMAP
0007E000
000FF000
000FF000
000FF000
000FF000
000FF000
000FF000
0007E000
00000000
00000000
00000000
00000000
00000000
FFFFFFE0
FFFFFFF0
FFFFFFF0
FFFFFFF8
FFFFFFFC
FFFFFFFE
FFFFFFFE
FFFFFFFF
FFFFFFFF
FFFFFFFE
7FFFFFFE
00007FFC
0000FFF8
0000FFF8
0001FFF0
0003FFF0
0003FFE0
0007FFC0
0007FFC0
000FFF80
001FFF00
001FFF00
003FFE00
007FFE00
007FFC00
00FFF800
00FFF800
01FFF000
03FFF000
03FFE000
07FFC000
07FFC000
0FFF8000
1FFF0000
1FFF0000
3FFE0000
3FFE0000
7FFFFFFE
FFFFFFFF
FFFFFFFF
FFFFFFFF
7FFFFFFF
3FFFFFFF
3FFFFFFF
1FFFFFFF
0FFFFFFF
07FFFFFF
ENDCHAR
STARTCHAR 017D
ENCODING 381
SWIDTH 555 0
DWIDTH 37 0
BBX 32 58 3 0
BITMAP
01C00380
01E00780
01F00F80
01F81F80
01FC3F00
00FFFE00
007FFC00
001FF800
000FF000
00000000
00000000
FFFFFFE0
FFFFFFF0
FFFFFFF0
FFFFFFF8
FFFFFFFC
FFFFFFFE
FFFFFFFE
FFFFFFFF
FFFFFFFF
FFFFFFFE
7FFFFFFE
00007FFC
0000FFF8
0000FFF8
0001FFF0
0003FFF0
0003FFE0
0007FFC0
0007FFC0
000FFF80
001FFF00
001FFF00
003FFE00
007FFE00
007FFC00
00FFF800
00FFF800
01FFF000
03FFF000
03FFE000
07FFC000
07FFC000
0FFF8000
1FFF0000
1FFF0000
3FFE0000
3FFE0000
7FFFFFFE
FFFFFFFF
FFFFFFFF
FFFFFFFF
7FFFFFFF
3FFFFFFF
3FFFFFFF
1FFFFFFF
0FFFFFFF
07FFFFFF
ENDCHAR
STARTCHAR 017E
ENCODING 382
SWIDTH 555 0
DWIDTH 37 0
BBX 32 58 3 0
BITMAP
01C00380
01E00780
01F00F80
01F81F80
01FC3F80
007FFF00
003FFC00
001FF800
000FF000
00000000
00000000
FFFFFFE0
FFFFFFF0
FFFFFFF0
FFFFFFF8
FFFFFFFC
FFFFFFFE
FFFFFFFE
FFFFFFFF
FFFFFFFF
FFFFFFFE
7FFFFFFE
00007FFC
0000FFF8
0000FFF8
0001FFF0
0003FFF0
0003FFE0
0007FFC0
0007FFC0
000FFF80
001FFF00
001FFF00
003FFE00
007FFE00
007FFC00
00FFF800
00FFF800
01FFF000
03FFF000
03FFE000
07FFC000
07FFC000
0FFF8000
1FFF0000
1FFF0000
3FFE0000
3FFE0000
7FFFFFFE
FFFFFFFF
FFFFFFFF
FFFFFFFF
7FFFFFFF
3FFFFFFF
3FFFFFFF
1FFFFFFF
0FFFFFFF
07FFFFFF
ENDCHAR
STARTCHAR 01A0
ENCODING 416
SWIDTH 615 0
DWIDTH 41 0
BBX 39 51 3 0
BITMAP
0000000078
000000007C
000000007E
00000000FE
07FFFFFFFE
0FFFFFFFFE
1FFFFFFFFC
1FFFFFFFF8
3FFFFFFFE0
7FFFFFFFC0
7FFFFFFFE0
FFFFFFFFE0
FFFFFFFFF0
FFFFFFFFF0
FFFFFFFFF0
FFE000FFF0
FFC0007FF0
FFC0007FF0
FFC0007FF0
FFC0007FF0
FFC0007FF0
FFC0007FF0
FFC0007FF0
FFC0007FF0
FFC0007FF0
FFC0007FF0
FFC0007FF0
FFC0007FF0
FFC0007FF0
FFC0007FF0
FFC0007FF0
FFC0007FF0
FFC0007FF0
FFC0007FF0
FFC0007FF0
FFC0007FF0
FFC0007FF0
FFC0007FF0
FFC0007FF0
FFE000FFF0
FFF000FFF0
FFFFFFFFF0
FFFFFFFFF0
FFFFFFFFF0
FFFFFFFFE0
7FFFFFFFC0
3FFFFFFFC0
3FFFFFFF80
1FFFFFFF00
0FFFFFFE00
07FFFFFE00
ENDCHAR
STARTCHAR 01A1
ENCODING 417
SWIDTH 615 0
DWIDTH 41 0
BBX 39 51 3 0
BITMAP
0000000078
000000007C
000000007E
00000000FE
07FFFFFFFE
0FFFFFFFFE
1FFFFFFFFC
1FFFFFFFF8
3FFFFFFFE0
7FFFFFFFC0
7FFFFFFFE0
FFFFFFFFE0
FFFFFFFFF0
FFFFFFFFF0
FFFFFFFFF0
FFE000FFF0
FFC0007FF0
FFC0007FF0
FFC0007FF0
FFC0007FF0
FFC0007FF0
FFC0007FF0
FFC0007FF0
FFC0007FF0
FFC0007FF0
FFC0007FF0
FFC0007FF0
FFC0007FF0
FFC0007FF0
FFC0007FF0
FFC0007FF0
FFC0007FF0
FFC0007FF0
FFC0007FF0
FFC0007FF0
FFC0007FF0
FFC0007FF0
FFC0007FF0
FFC0007FF0
FFE000FFF0
FFF000FFF0
FFFFFFFFF0
FFFFFFFFF0
FFFFFFFFF0
FFFFFFFFE0
7FFFFFFFC0
3FFFFFFFC0
3FFFFFFF80
1FFFFFFF00
0FFFFFFE00
07FFFFFE00
ENDCHAR
STARTCHAR 01AF
ENCODING 431
SWIDTH 600 0
DWIDTH 40 0
BBX 38 51 3 0
BITMAP
00000000F8
00000000FC
00000000FC
00000000FC
FFC0007FFC
FFC0007FFC
FFC0007FF8
FFC0007FF0
FFC0007FE0
FFC0007FC0
FFC0007FC0
FFC0007FE0
FFC0007FE0
FFC0007FE0
FFC0007FE0
FFC0007FE0
FFC0007FE0
FFC0007FE0
FFC0007FE0
FFC0007FE0
FFC0007FE0
FFC0007FE0
FFC0007FE0
FFC0007FE0
FFC0007FE0
FFC0007FE0
FFC0007FE0
FFC0007FE0
FFC0007FE0
FFC0007FE0
FFC0007FE0
FFC0007FE0
FFC0007FE0
FFC0007FE0
FFC0007FE0
FFC0007FE0
FFC0007FE0
FFC0007FE0
FFC0007FE0
FFE000FFE0
FFF001FFE0
FFFFFFFFE0
FFFFFFFFE0
FFFFFFFFE0
FFFFFFFFE0
7FFFFFFFC0
3FFFFFFF80
3FFFFFFF00
1FFFFFFF00
0FFFFFFE00
07FFFFFC00
ENDCHAR
STARTCHAR 01B0
ENCODING 432
SWIDTH 600 0
DWIDTH 40 0
BBX 38 51 3 0
BITMAP
00000000F8
00000000FC
00000000FC
00000000FC
FFC0007FFC
FFC0007FFC
FFC0007FF8
FFC0007FF0
FFC0007FE0
FFC0007FC0
FFC0007FC0
FFC0007FE0
FFC0007FE0
FFC0007FE0
FFC0007FE0
FFC0007FE0
FFC0007FE0
FFC0007FE0
FFC0007FE0
FFC0007FE0
FFC0007FE0
FFC0007FE0
FFC0007FE0
FFC0007FE0
FFC0007FE0
FFC0007FE0
FFC0007FE0
FFC0007FE0
FFC0007FE0
FFC0007FE0
FFC0007FE0
FFC0007FE0
FFC0007FE0
FFC0007FE0
FFC0007FE0
FFC0007FE0
FFC0007FE0
FFC0007FE0
FFC0007FE0
FFE000FFE0
FFF001FFE0
FFFFFFFFE0
FFFFFFFFE0
FFFFFFFFE0
FFFFFFFFE0
7FFFFFFFC0
3FFFFFFF80
3FFFFFFF00
1FFFFFFF00
0FFFFFFE00
07FFFFFC00
ENDCHAR
STARTCHAR 0218
ENCODING 536
SWIDTH 540 0
DWIDTH 36 0
BBX 30 58 3 -11
BITMAP
7FFFFF80
FFFFFFC0
FFFFFFE0
FFFFFFE0
FFFFFFF0
FFFFFFF8
FFFFFFFC
FFFFFFFC
FFFFFFFC
FFFFFFFC
FFFFFFFC
FFC007FC
FFE003FC
FFF00000
FFF80000
FFFC0000
7FFE0000
3FFF0000
1FFF8000
0FFFC000
07FFE000
03FFF000
01FFF800
00FFFC00
007FFE00
003FFF00
001FFF80
000FFFC0
0007FFE0
0003FFF0
0001FFF8
0000FFFC
00007FFC
00003FFC
FF001FFC
FF800FFC
FFC007FC
FFFFFFFC
FFFFFFFC
FFFFFFFC
FFFFFFFC
7FFFFFFC
3FFFFFFC
3FFFFFFC
1FFFFFFC
0FFFFFFC
07FFFFF8
00000000
0003C000
0003C000
0003E000
0003E000
0003E000
0003E000
0003C000
00078000
000F0000
000F0000
ENDCHAR
STARTCHAR 0219
ENCODING 537
SWIDTH 540 0
DWIDTH 36 0
BBX 30 58 3 -11
BITMAP
7FFFFF80
FFFFFFC0
FFFFFFE0
FFFFFFE0
FFFFFFF0
FFFFFFF8
FFFFFFFC
FFFFFFFC
FFFFFFFC
FFFFFFFC
FFFFFFFC
FFC007FC
FFE003FC
FFF00000
FFF80000
FFFC0000
7FFE0000
3FFF0000
1FFF8000
0FFFC000
07FFE000
03FFF000
01FFF800
00FFFC00
007FFE00
003FFF00
001FFF80
000FFFC0
0007FFE0
0003FFF0
0001FFF8
0000FFFC
00007FFC
00003FFC
FF001FFC
FF800FFC
FFC007FC
FFFFFFFC
FFFFFFFC
FFFFFFFC
FFFFFFFC
7FFFFFFC
3FFFFFFC
3FFFFFFC
1FFFFFFC
0FFFFFFC
07FFFFF8
00000000
0003C000
0003C000
0003E000
0003E000
0003E000
0003E000
0003C000
00078000
000F8000
000F0000
ENDCHAR
STARTCHAR 021A
ENCODING 538
SWIDTH 525 0
DWIDTH 35 0
BBX 35 58 0 -11
BITMAP
07FFFFFC00
0FFFFFFE00
0FFFFFFF00
1FFFFFFF00
3FFFFFFF80
3FFFFFFFC0
7FFFFFFFC0
FFFFFFFFE0
FFFFFFFFE0
FFE7FEFFE0
FFC7FE7FE0
FF87FE1FE0
FE07FE0FE0
FC07FE07E0
0007FE0000
0007FE0000
0007FE0000
0007FE0000
0007FE0000
0007FE0000
0007FE0000
0007FE0000
0007FE0000
0007FE0000
0007FE0000
0007FE0000
0007FE0000
0007FE0000
0007FE0000
0007FE0000
0007FE0000
0007FE0000
0007FE0000
0007FE0000
0007FE0000
0007FE0000
0007FE0000
0007FE0000
0007FE0000
0007FE0000
0007FE0000
0007FE0000
0007FE0000
0007FE0000
0007FE0000
0007FE0000
0007FE0000
0000000000
0000E00000
0000F00000
0000F00000
0000F00000
0000F00000
0000F00000
0001E00000
0003E00000
0003C00000
0007800000
ENDCHAR
STARTCHAR 021B
ENCODING 539
SWIDTH 525 0
DWIDTH 35 0
BBX 35 58 0 -11
BITMAP
07FFFFFC00
0FFFFFFE00
0FFFFFFF00
1FFFFFFF00
3FFFFFFF80
3FFFFFFFC0
7FFFFFFFC0
FFFFFFFFE0
FFFFFFFFE0
FFE7FEFFE0
FFC7FE7FE0
FF87FE1FE0
FE07FE0FE0
FC07FE07E0
0007FE0000
0007FE0000
0007FE0000
0007FE0000
0007FE0000
0007FE0000
0007FE0000
0007FE0000
0007FE0000
0007FE0000
0007FE0000
0007FE0000
0007FE0000
0007FE0000
0007FE0000
0007FE0000
0007FE0000
0007FE0000
0007FE0000
0007FE0000
0007FE0000
0007FE0000
0007FE0000
0007FE0000
0007FE0000
0007FE0000
0007FE0000
0007FE0000
0007FE0000
0007FE0000
0007FE0000
0007FE0000
0007FE0000
0000000000
0000E00000
0000F00000
0000F00000
0000F00000
0000F00000
0000F00000
0001E00000
0003E00000
0003C00000
0007800000
ENDCHAR
STARTCHAR 0259
ENCODING 601
SWIDTH 555 0
DWIDTH 37 0
BBX 31 47 3 0
BITMAP
07FFFFFE
0FFFFFFE
1FFFFFFE
1FFFFFFE
3FFFFFFE
7FFFFFFE
7FFFFFFE
FFFFFFFE
FFFFFFFE
FFFFFFFE
FFFFFFFE
FF8007FE
FF8007FE
000007FE
000007FE
000007FE
000007FE
000007FE
000007FE
000007FE
FFFF07FE
FFFF07FE
FFFF07FE
FFFF07FE
FFFF07FE
FFFF07FE
FFFF07FE
FFFF07FE
FFFF07FE
FFFF07FE
FFFF07FE
FFC007FE
FFC007FE
FFC007FE
FFC007FE
FFC007FE
FFC007FE
FFFFFFFE
FFFFFFFE
FFFFFFFE
FFFFFFFE
FFFFFFFE
FFFFFFFE
FFFFFFFE
FFFFFFFE
FDFFFFFE
F8FFFFFE
ENDCHAR
STARTCHAR 02C6
ENCODING 710
SWIDTH 435 0
DWIDTH 29 0
BBX 28 8 1 49
BITMAP
07FFFE00
1FFFFF00
3FFFFFC0
7FFFFFE0
FFFFFFF0
FF000FF0
FE0007F0
FC0003F0
ENDCHAR
STARTCHAR 02C7
ENCODING 711
SWIDTH 300 0
DWIDTH 20 0
BBX 18 9 1 49
BITMAP
E001C0
F003C0
F807C0
FC0FC0
7E1FC0
3FFF80
1FFF00
0FFE00
07F800
ENDCHAR
STARTCHAR 02D8
ENCODING 728
SWIDTH 435 0
DWIDTH 29 0
BBX 28 8 1 49
BITMAP
FC0003F0
FF000FF0
FF801FF0
7FFFFFE0
3FFFFFC0
1FFFFF80
0FFFFF00
07FFFE00
ENDCHAR
STARTCHAR 02D9
ENCODING 729
SWIDTH 165 0
DWIDTH 11 0
BBX 8 8 2 52
BITMAP
7E
FF
FF
FF
FF
FF
FF
7E
ENDCHAR
STARTCHAR 02DA
ENCODING 730
SWIDTH 180 0
DWIDTH 12 0
BBX 10 10 1 49
BITMAP
3F80
7F80
FFC0
F1C0
E1C0
E1C0
F1C0
FFC0
7F80
3F80
ENDCHAR
STARTCHAR 02DB
ENCODING 731
SWIDTH 210 0
DWIDTH 14 0
BBX 11 10 2 -10
BITMAP
3E00
3C00
7C00
7800
F000
F1E0
FFE0
FFE0
FFC0
FFC0
ENDCHAR
STARTCHAR 02DC
ENCODING 732
SWIDTH 435 0
DWIDTH 29 0
BBX 28 9 1 49
BITMAP
01F00000
07FE0030
1FFFC0F0
3FFFFBF0
FFFFFFF0
FF0FFFF0
FC01FFE0
F8003F00
E0000400
ENDCHAR
STARTCHAR 02DD
ENCODING 733
SWIDTH 255 0
DWIDTH 17 0
BBX 15 11 1 49
BITMAP
0F3E
0F3E
0F3E
0F3E
1F3C
1E7C
3E78
7CF8
7CF0
F9F0
F9E0
ENDCHAR
STARTCHAR 1E20
ENCODING 7712
SWIDTH 555 0
DWIDTH 37 0
BBX 31 56 3 0
BITMAP
FFFFFFE0
FFFFFFE0
FFFFFFE0
FFFFFFE0
FFFFFFE0
FFFFFFE0
FFFFFFE0
00000000
00000000
FFFFFFC0
FFFFFFE0
FFFFFFF0
FFFFFFF0
FFFFFFF8
FFFFFFFC
FFFFFFFC
FFFFFFFE
FFFFFFFE
FFFFFFFE
FFFFFFFE
FFC003FE
FFC003FE
FFC00000
FFC00000
FFC00000
FFC00000
FFC00000
FFC00000
FFC00000
FFC1FFFE
FFC1FFFE
FFC1FFFE
FFC1FFFE
FFC1FFFE
FFC1FFFE
FFC1FFFE
FFC1FFFE
FFC1FFFE
FFC1FFFE
FFC1FFFE
FFC007FE
FFC007FE
FFC007FE
FFC007FE
FFC007FE
FFC007FE
FFFFFFFE
FFFFFFFE
FFFFFFFE
FFFFFFFE
FFFFFFFE
FFFFFFFE
FFFFFFFE
FFFFFFFE
FFFFFF7E
FFFFFE3E
ENDCHAR
STARTCHAR 1E3E
ENCODING 7742
SWIDTH 690 0
DWIDTH 46 0
BBX 41 56 3 0
BITMAP
000003FF8000
000FFFFF8000
007FFFFF8000
007FFFF80000
007FFF000000
007FE0000000
007C00000000
000000000000
000000000000
07FF00FFE000
0FFF00FFF000
1FFF00FFF800
1FFF80FFFC00
3FFF80FFFC00
7FFF81FFFE00
7FFF81FFFF00
FFFF81FFFF00
FFFF81FFFF80
FFFFC1FFFF80
FFFFC1FFFF80
FFFFC3FFFF80
FFFFC3FFFF80
FFFFC3FFFF80
FFFFC3FFFF80
FFCFC3FBFF80
FFCFE3F3FF80
FFCFE3F3FF80
FFCFE7F3FF80
FFCFE7F3FF80
FFCFE7F3FF80
FFC7E7F3FF80
FFC7F7F3FF80
FFC7F7E3FF80
FFC7F7E3FF80
FFC7FFE3FF80
FFC7FFE3FF80
FFC3FFE3FF80
FFC3FFE3FF80
FFC3FFE3FF80
FFC3FFC3FF80
FFC3FFC3FF80
FFC3FFC3FF80
FFC3FFC3FF80
FFC1FF83FF80
FFC0FF83FF80
FFC00003FF80
FFC00003FF80
FFC00003FF80
FFC00003FF80
FFC00003FF80
FFC00003FF80
FFC00003FF80
FFC00003FF80
FFC00003FF80
FFC00003FF80
FFC00003FF80
ENDCHAR
STARTCHAR 1E3F
ENCODING 7743
SWIDTH 690 0
DWIDTH 46 0
BBX 41 56 3 0
BITMAP
000003FF8000
000FFFFF8000
007FFFFF8000
007FFFF80000
007FFF000000
007FE0000000
007C00000000
000000000000
000000000000
07FF00FFE000
0FFF00FFF000
1FFF00FFF800
1FFF80FFFC00
3FFF80FFFC00
7FFF81FFFE00
7FFF81FFFF00
FFFF81FFFF00
FFFF81FFFF80
FFFFC1FFFF80
FFFFC1FFFF80
FFFFC3FFFF80
FFFFC3FFFF80
FFFFC3FFFF80
FFFFC3FFFF80
FFCFC3FBFF80
FFCFE3F3FF80
FFCFE3F3FF80
FFCFE7F3FF80
FFCFE7F3FF80
FFCFE7F3FF80
FFC7E7F3FF80
FFC7F7F3FF80
FFC7F7E3FF80
FFC7F7E3FF80
FFC7FFE3FF80
FFC7FFE3FF80
FFC3FFE3FF80
FFC3FFE3FF80
FFC3FFE3FF80
FFC3FFC3FF80
FFC3FFC3FF80
FFC3FFC3FF80
FFC3FFC3FF80
FFC1FF83FF80
FFC0FF83FF80
FFC00003FF80
FFC00003FF80
FFC00003FF80
FFC00003FF80
FFC00003FF80
FFC00003FF80
FFC00003FF80
FFC00003FF80
FFC00003FF80
FFC00003FF80
FFC00003FF80
ENDCHAR
STARTCHAR 1E44
ENCODING 7748
SWIDTH 570 0
DWIDTH 38 0
BBX 32 57 3 0
BITMAP
0007E000
000FF000
000FF000
000FF000
000FF000
000FF000
000FF000
0007E000
00000000
00000000
07C003FF
0FE003FF
1FE003FF
1FE003FF
3FF003FF
7FF003FF
7FF803FF
FFF803FF
FFFC03FF
FFFC03FF
FFFE03FF
FFFE03FF
FFFE03FF
FFFF03FF
FFFF03FF
FFFF83FF
FFFF83FF
FFFFC3FF
FFFFC3FF
FFFFE3FF
FFFFE3FF
FFFFF3FF
FFFFF3FF
FFFFF3FF
FFCFFFFF
FFCFFFFF
FFC7FFFF
FFC7FFFF
FFC3FFFF
FFC3FFFF
FFC1FFFF
FFC1FFFF
FFC0FFFF
FFC0FFFF
FFC07FFF
FFC07FFF
FFC07FFF
FFC03FFF
FFC03FFF
FFC01FFF
FFC01FFF
FFC00FFE
FFC00FFC
FFC007FC
FFC007F8
FFC007F0
FFC003F0
ENDCHAR
STARTCHAR 1E45
ENCODING 7749
SWIDTH 570 0
DWIDTH 38 0
BBX 32 57 3 0
BITMAP
0007E000
000FF000
000FF000
000FF000
000FF000
000FF000
000FF000
0007E000
00000000
00000000
07C003FF
0FE003FF
1FE003FF
1FE003FF
3FF003FF
7FF003FF
7FF803FF
FFF803FF
FFFC03FF
FFFC03FF
FFFE03FF
FFFE03FF
FFFE03FF
FFFF03FF
FFFF03FF
FFFF83FF
FFFF83FF
FFFFC3FF
FFFFC3FF
FFFFE3FF
FFFFE3FF
FFFFF3FF
FFFFF3FF
FFFFF3FF
FFCFFFFF
FFCFFFFF
FFC7FFFF
FFC7FFFF
FFC3FFFF
FFC3FFFF
FFC1FFFF
FFC1FFFF
FFC0FFFF
FFC0FFFF
FFC07FFF
FFC07FFF
FFC07FFF
FFC03FFF
FFC03FFF
FFC01FFF
FFC01FFF
FFC00FFE
FFC00FFC
FFC007FC
FFC007F8
FFC007F0
FFC003F0
ENDCHAR
STARTCHAR 1E80
ENCODING 7808
SWIDTH 870 0
DWIDTH 58 0
BBX 53 56 3 0
BITMAP
0003FC00000000
0003FFE0000000
0003FFFF000000
0003FFFFF80000
0000FFFFFC0000
000007FFFC0000
000000003C0000
00000000000000
00000000000000
FFC00000001FF8
FFC00000001FF8
FFC00000003FF8
FFE00000003FF8
FFE00000003FF8
FFE00000003FF8
FFE00000003FF8
FFE00000003FF8
FFF00000007FF8
7FF00000007FF0
7FF00000007FF0
7FF00000007FF0
7FF00000007FF0
7FF00000007FF0
3FF803FE00FFE0
3FF807FF00FFE0
3FF807FF00FFE0
3FF80FFF80FFE0
3FF80FFF80FFE0
1FFC0FFF81FFC0
1FFC0FFFC1FFC0
1FFC1FFFC1FFC0
1FFC1FFFC1FFC0
1FFC1FFFC1FFC0
0FFC1FDFE1FF80
0FFE3FDFE3FF80
0FFE3FCFE3FF80
0FFE3FCFE3FF80
07FE3F8FF3FF80
07FE7F8FF3FF00
07FFFF8FFFFF00
07FFFF87FFFF00
07FFFF87FFFF00
03FFFF07FFFF00
03FFFF07FFFE00
03FFFF07FFFE00
03FFFF03FFFE00
03FFFF03FFFE00
01FFFE03FFFE00
01FFFE03FFFC00
01FFFE03FFFC00
01FFFE01FFFC00
00FFFC01FFFC00
00FFFC01FFFC00
00FFFC01FFF800
00FFFC01FFF800
00FFFC00FFF800
ENDCHAR
STARTCHAR 1E81
ENCODING 7809
SWIDTH 870 0
DWIDTH 58 0
BBX 53 56 3 0
BITMAP
0003FC00000000
0003FFE0000000
0003FFFF000000
0003FFFFF80000
0000FFFFFC0000
000007FFFC0000
000000003C0000
00000000000000
00000000000000
FFC00000001FF8
FFC00000001FF8
FFC00000003FF8
FFE00000003FF8
FFE00000003FF8
FFE00000003FF8
FFE00000003FF8
FFE00000003FF8
FFF00000007FF8
7FF00000007FF0
7FF00000007FF0
7FF00000007FF0
7FF00000007FF0
7FF00000007FF0
3FF803FE00FFE0
3FF807FF00FFE0
3FF807FF00FFE0
3FF80FFF80FFE0
3FF80FFF80FFE0
1FFC0FFF81FFC0
1FFC0FFFC1FFC0
1FFC1FFFC1FFC0
1FFC1FFFC1FFC0
1FFC1FFFC1FFC0
0FFC1FDFE1FF80
0FFE3FDFE3FF80
0FFE3FCFE3FF80
0FFE3FCFE3FF80
07FE3F8FF3FF80
07FE7F8FF3FF00
07FFFF8FFFFF00
07FFFF87FFFF00
07FFFF87FFFF00
03FFFF07FFFF00
03FFFF07FFFE00
03FFFF07FFFE00
03FFFF03FFFE00
03FFFF03FFFE00
01FFFE03FFFE00
01FFFE03FFFC00
01FFFE03FFFC00
01FFFE01FFFC00
00FFFC01FFFC00
00FFFC01FFFC00
00FFFC01FFF800
00FFFC01FFF800
00FFFC00FFF800
ENDCHAR
STARTCHAR 1E82
ENCODING 7810
SWIDTH 870 0
DWIDTH 58 0
BBX 53 56 3 0
BITMAP
0000000FFC0000
00007FFFFC0000
0003FFFFFC0000
0003FFFFE00000
0003FFFC000000
0003FF80000000
0003F000000000
00000000000000
00000000000000
FFC00000001FF8
FFC00000001FF8
FFC00000003FF8
FFE00000003FF8
FFE00000003FF8
FFE00000003FF8
FFE00000003FF8
FFE00000003FF8
FFF00000007FF8
7FF00000007FF0
7FF00000007FF0
7FF00000007FF0
7FF00000007FF0
7FF00000007FF0
3FF803FE00FFE0
3FF807FF00FFE0
3FF807FF00FFE0
3FF80FFF80FFE0
3FF80FFF80FFE0
1FFC0FFF81FFC0
1FFC0FFFC1FFC0
1FFC1FFFC1FFC0
1FFC1FFFC1FFC0
1FFC1FFFC1FFC0
0FFC1FDFE1FF80
0FFE3FDFE3FF80
0FFE3FCFE3FF80
0FFE3FCFE3FF80
07FE3F8FF3FF80
07FE7F8FF3FF00
07FFFF8FFFFF00
07FFFF87FFFF00
07FFFF87FFFF00
03FFFF07FFFF00
03FFFF07FFFE00
03FFFF07FFFE00
03FFFF03FFFE00
03FFFF03FFFE00
01FFFE03FFFE00
01FFFE03FFFC00
01FFFE03FFFC00
01FFFE01FFFC00
00FFFC01FFFC00
00FFFC01FFFC00
00FFFC01FFF800
00FFFC01FFF800
00FFFC00FFF800
ENDCHAR
STARTCHAR 1E83
ENCODING 7811
SWIDTH 870 0
DWIDTH 58 0
BBX 53 56 3 0
BITMAP
0000000FFC0000
00007FFFFC0000
0003FFFFFC0000
0003FFFFE00000
0003FFFC000000
0003FF80000000
0003F000000000
00000000000000
00000000000000
FFC00000001FF8
FFC00000001FF8
FFC00000003FF8
FFE00000003FF8
FFE00000003FF8
FFE00000003FF8
FFE00000003FF8
FFE00000003FF8
FFF00000007FF8
7FF00000007FF0
7FF00000007FF0
7FF00000007FF0
7FF00000007FF0
7FF00000007FF0
3FF803FE00FFE0
3FF807FF00FFE0
3FF807FF00FFE0
3FF80FFF80FFE0
3FF80FFF80FFE0
1FFC0FFF81FFC0
1FFC0FFFC1FFC0
1FFC1FFFC1FFC0
1FFC1FFFC1FFC0
1FFC1FFFC1FFC0
0FFC1FDFE1FF80
0FFE3FDFE3FF80
0FFE3FCFE3FF80
0FFE3FCFE3FF80
07FE3F8FF3FF80
07FE7F8FF3FF00
07FFFF8FFFFF00
07FFFF87FFFF00
07FFFF87FFFF00
03FFFF07FFFF00
03FFFF07FFFE00
03FFFF07FFFE00
03FFFF03FFFE00
03FFFF03FFFE00
01FFFE03FFFE00
01FFFE03FFFC00
01FFFE03FFFC00
01FFFE01FFFC00
00FFFC01FFFC00
00FFFC01FFFC00
00FFFC01FFF800
00FFFC01FFF800
00FFFC00FFF800
ENDCHAR
STARTCHAR 1E84
ENCODING 7812
SWIDTH 870 0
DWIDTH 58 0
BBX 53 55 3 0
BITMAP
00003F07E00000
00003F07E00000
00003F07E00000
00003F07E00000
00003F07E00000
00003F07E00000
00000000000000
00000000000000
FFC00000001FF8
FFC00000001FF8
FFC00000003FF8
FFE00000003FF8
FFE00000003FF8
FFE00000003FF8
FFE00000003FF8
FFE00000003FF8
FFF00000007FF8
7FF00000007FF0
7FF00000007FF0
7FF00000007FF0
7FF00000007FF0
7FF00000007FF0
3FF803FE00FFE0
3FF807FF00FFE0
3FF807FF00FFE0
3FF80FFF80FFE0
3FF80FFF80FFE0
1FFC0FFF81FFC0
1FFC0FFFC1FFC0
1FFC1FFFC1FFC0
1FFC1FFFC1FFC0
1FFC1FFFC1FFC0
0FFC1FDFE1FF80
0FFE3FDFE3FF80
0FFE3FCFE3FF80
0FFE3FCFE3FF80
07FE3F8FF3FF80
07FE7F8FF3FF00
07FFFF8FFFFF00
07FFFF87FFFF00
07FFFF87FFFF00
03FFFF07FFFF00
03FFFF07FFFE00
03FFFF07FFFE00
03FFFF03FFFE00
03FFFF03FFFE00
01FFFE03FFFE00
01FFFE03FFFC00
01FFFE03FFFC00
01FFFE01FFFC00
00FFFC01FFFC00
00FFFC01FFFC00
00FFFC01FFF800
00FFFC01FFF800
00FFFC00FFF800
ENDCHAR
STARTCHAR 1E85
ENCODING 7813
SWIDTH 870 0
DWIDTH 58 0
BBX 53 55 3 0
BITMAP
00003F07E00000
00003F07E00000
00003F07E00000
00003F07E00000
00003F07E00000
00003F07E00000
00000000000000
00000000000000
FFC00000001FF8
FFC00000001FF8
FFC00000003FF8
FFE00000003FF8
FFE00000003FF8
FFE00000003FF8
FFE00000003FF8
FFE00000003FF8
FFF00000007FF8
7FF00000007FF0
7FF00000007FF0
7FF00000007FF0
7FF00000007FF0
7FF00000007FF0
3FF803FE00FFE0
3FF807FF00FFE0
3FF807FF00FFE0
3FF80FFF80FFE0
3FF80FFF80FFE0
1FFC0FFF81FFC0
1FFC0FFFC1FFC0
1FFC1FFFC1FFC0
1FFC1FFFC1FFC0
1FFC1FFFC1FFC0
0FFC1FDFE1FF80
0FFE3FDFE3FF80
0FFE3FCFE3FF80
0FFE3FCFE3FF80
07FE3F8FF3FF80
07FE7F8FF3FF00
07FFFF8FFFFF00
07FFFF87FFFF00
07FFFF87FFFF00
03FFFF07FFFF00
03FFFF07FFFE00
03FFFF07FFFE00
03FFFF03FFFE00
03FFFF03FFFE00
01FFFE03FFFE00
01FFFE03FFFC00
01FFFE03FFFC00
01FFFE01FFFC00
00FFFC01FFFC00
00FFFC01FFFC00
00FFFC01FFF800
00FFFC01FFF800
00FFFC00FFF800
ENDCHAR
STARTCHAR 1EA0
ENCODING 7840
SWIDTH 585 0
DWIDTH 39 0
BBX 37 54 1 -7
BITMAP
003FFFE000
007FFFF000
007FFFF000
00FFFFF800
00FFFFF800
00FFFFF800
00FFFFF800
00FFFFFC00
01FFFFFC00
01FFFFFC00
01FFFFFC00
01FE03FC00
01FE03FE00
03FE03FE00
03FE03FE00
03FE03FE00
03FE03FE00
03FE03FF00
07FC01FF00
07FC01FF00
07FC01FF00
07FC01FF00
07FC01FF80
0FFC01FF80
0FF800FF80
0FF800FF80
0FF800FF80
0FF800FFC0
1FF800FFC0
1FFC01FFC0
1FFFFFFFC0
1FFFFFFFC0
1FFFFFFFE0
3FFFFFFFE0
3FFFFFFFE0
3FFFFFFFE0
3FF7FF7FE0
3FF3FE7FF0
7FE0003FF0
7FE0003FF0
7FE0003FF0
7FE0003FF0
7FE0003FF8
FFE0003FF8
FFC0001FF8
FFC0001FF8
FFC0001FF8
0000000000
0000000000
0000000000
0003FE0000
0003FE0000
0003FE0000
0003FE0000
ENDCHAR
STARTCHAR 1EA1
ENCODING 7841
SWIDTH 585 0
DWIDTH 39 0
BBX 37 54 1 -7
BITMAP
003FFFE000
007FFFF000
007FFFF000
00FFFFF800
00FFFFF800
00FFFFF800
00FFFFF800
00FFFFFC00
01FFFFFC00
01FFFFFC00
01FFFFFC00
01FE03FC00
01FE03FE00
03FE03FE00
03FE03FE00
03FE03FE00
03FE03FE00
03FE03FF00
07FC01FF00
07FC01FF00
07FC01FF00
07FC01FF00
07FC01FF80
0FFC01FF80
0FF800FF80
0FF800FF80
0FF800FF80
0FF800FFC0
1FF800FFC0
1FFC01FFC0
1FFFFFFFC0
1FFFFFFFC0
1FFFFFFFE0
3FFFFFFFE0
3FFFFFFFE0
3FFFFFFFE0
3FF7FF7FE0
3FF3FE7FF0
7FE0003FF0
7FE0003FF0
7FE0003FF0
7FE0003FF0
7FE0003FF8
FFE0003FF8
FFC0001FF8
FFC0001FF8
FFC0001FF8
0000000000
0000000000
0000000000
0003FE0000
0003FE0000
0003FE0000
0003FE0000
ENDCHAR
STARTCHAR 1EA2
ENCODING 7842
SWIDTH 585 0
DWIDTH 39 0
BBX 37 60 1 0
BITMAP
0003FE0000
0007FF0000
0007FF8000
000FFF8000
000F8F0000
000F1F0000
00003E0000
00007C0000
0000780000
0000780000
0000780000
0000000000
0000000000
003FFFE000
007FFFF000
007FFFF000
00FFFFF800
00FFFFF800
00FFFFF800
00FFFFF800
00FFFFFC00
01FFFFFC00
01FFFFFC00
01FFFFFC00
01FE03FC00
01FE03FE00
03FE03FE00
03FE03FE00
03FE03FE00
03FE03FE00
03FE03FF00
07FC01FF00
07FC01FF00
07FC01FF00
07FC01FF00
07FC01FF80
0FFC01FF80
0FF800FF80
0FF800FF80
0FF800FF80
0FF800FFC0
1FF800FFC0
1FFC01FFC0
1FFFFFFFC0
1FFFFFFFC0
1FFFFFFFE0
3FFFFFFFE0
3FFFFFFFE0
3FFFFFFFE0
3FF7FF7FE0
3FF3FE7FF0
7FE0003FF0
7FE0003FF0
7FE0003FF0
7FE0003FF0
7FE0003FF8
FFE0003FF8
FFC0001FF8
FFC0001FF8
FFC0001FF8
ENDCHAR
STARTCHAR 1EA3
ENCODING 7843
SWIDTH 585 0
DWIDTH 39 0
BBX 37 60 1 0
BITMAP
0003FE0000
0007FF0000
0007FF8000
000FFF8000
000F8F0000
000F1F0000
00003E0000
00007C0000
0000780000
0000780000
0000780000
0000000000
0000000000
003FFFE000
007FFFF000
007FFFF000
00FFFFF800
00FFFFF800
00FFFFF800
00FFFFF800
00FFFFFC00
01FFFFFC00
01FFFFFC00
01FFFFFC00
01FE03FC00
01FE03FE00
03FE03FE00
03FE03FE00
03FE03FE00
03FE03FE00
03FE03FF00
07FC01FF00
07FC01FF00
07FC01FF00
07FC01FF00
07FC01FF80
0FFC01FF80
0FF800FF80
0FF800FF80
0FF800FF80
0FF800FFC0
1FF800FFC0
1FFC01FFC0
1FFFFFFFC0
1FFFFFFFC0
1FFFFFFFE0
3FFFFFFFE0
3FFFFFFFE0
3FFFFFFFE0
3FF7FF7FE0
3FF3FE7FF0
7FE0003FF0
7FE0003FF0
7FE0003FF0
7FE0003FF0
7FE0003FF8
FFE0003FF8
FFC0001FF8
FFC0001FF8
FFC0001FF8
ENDCHAR
STARTCHAR 1EA4
ENCODING 7844
SWIDTH 585 0
DWIDTH 39 0
BBX 37 67 1 0
BITMAP
000003FC00
003FFFFC00
01FFFFFC00
03FFFFE000
03FFFC0000
03FFC00000
03F8000000
0000000000
0000000000
0000000000
007FFFF000
00FFFFF800
01FFFFFC00
03FFFFFE00
07FFFFFF00
07F000FF00
07E0007F00
07C0001F00
0000000000
0000000000
003FFFE000
007FFFF000
007FFFF000
00FFFFF800
00FFFFF800
00FFFFF800
00FFFFF800
00FFFFFC00
01FFFFFC00
01FFFFFC00
01FFFFFC00
01FE03FC00
01FE03FE00
03FE03FE00
03FE03FE00
03FE03FE00
03FE03FE00
03FE03FF00
07FC01FF00
07FC01FF00
07FC01FF00
07FC01FF00
07FC01FF80
0FFC01FF80
0FF800FF80
0FF800FF80
0FF800FF80
0FF800FFC0
1FF800FFC0
1FFC01FFC0
1FFFFFFFC0
1FFFFFFFC0
1FFFFFFFE0
3FFFFFFFE0
3FFFFFFFE0
3FFFFFFFE0
3FF7FF7FE0
3FF3FE7FF0
7FE0003FF0
7FE0003FF0
7FE0003FF0
7FE0003FF0
7FE0003FF8
FFE0003FF8
FFC0001FF8
FFC0001FF8
FFC0001FF8
ENDCHAR
STARTCHAR 1EA5
ENCODING 7845
SWIDTH 585 0
DWIDTH 39 0
BBX 37 67 1 0
BITMAP
000003FC00
003FFFFC00
01FFFFFC00
03FFFFE000
03FFFC0000
03FFC00000
03F8000000
0000000000
0000000000
0000000000
007FFFF000
00FFFFF800
01FFFFFC00
03FFFFFE00
07FFFFFF00
07F000FF00
07E0007F00
07C0001F00
0000000000
0000000000
003FFFE000
007FFFF000
007FFFF000
00FFFFF800
00FFFFF800
00FFFFF800
00FFFFF800
00FFFFFC00
01FFFFFC00
01FFFFFC00
01FFFFFC00
01FE03FC00
01FE03FE00
03FE03FE00
03FE03FE00
03FE03FE00
03FE03FE00
03FE03FF00
07FC01FF00
07FC01FF00
07FC01FF00
07FC01FF00
07FC01FF80
0FFC01FF80
0FF800FF80
0FF800FF80
0FF800FF80
0FF800FFC0
1FF800FFC0
1FFC01FFC0
1FFFFFFFC0
1FFFFFFFC0
1FFFFFFFE0
3FFFFFFFE0
3FFFFFFFE0
3FFFFFFFE0
3FF7FF7FE0
3FF3FE7FF0
7FE0003FF0
7FE0003FF0
7FE0003FF0
7FE0003FF0
7FE0003FF8
FFE0003FF8
FFC0001FF8
FFC0001FF8
FFC0001FF8
ENDCHAR
STARTCHAR 1EA6
ENCODING 7846
SWIDTH 585 0
DWIDTH 39 0
BBX 37 67 1 0
BITMAP
03F8000000
03FFC00000
03FFFE0000
03FFFFF000
01FFFFFC00
003FFFFC00
000001FC00
0000000000
0000000000
0000000000
007FFFF000
00FFFFF800
01FFFFFC00
03FFFFFE00
07FFFFFF00
07F000FF00
07E0007F00
07C0001F00
0000000000
0000000000
003FFFE000
007FFFF000
007FFFF000
00FFFFF800
00FFFFF800
00FFFFF800
00FFFFF800
00FFFFFC00
01FFFFFC00
01FFFFFC00
01FFFFFC00
01FE03FC00
01FE03FE00
03FE03FE00
03FE03FE00
03FE03FE00
03FE03FE00
03FE03FF00
07FC01FF00
07FC01FF00
07FC01FF00
07FC01FF00
07FC01FF80
0FFC01FF80
0FF800FF80
0FF800FF80
0FF800FF80
0FF800FFC0
1FF800FFC0
1FFC01FFC0
1FFFFFFFC0
1FFFFFFFC0
1FFFFFFFE0
3FFFFFFFE0
3FFFFFFFE0
3FFFFFFFE0
3FF7FF7FE0
3FF3FE7FF0
7FE0003FF0
7FE0003FF0
7FE0003FF0
7FE0003FF0
7FE0003FF8
FFE0003FF8
FFC0001FF8
FFC0001FF8
FFC0001FF8
ENDCHAR
STARTCHAR 1EA7
ENCODING 7847
SWIDTH 585 0
DWIDTH 39 0
BBX 37 67 1 0
BITMAP
03F8000000
03FFC00000
03FFFE0000
03FFFFF000
01FFFFFC00
003FFFFC00
000001FC00
0000000000
0000000000
0000000000
007FFFF000
00FFFFF800
01FFFFFC00
03FFFFFE00
07FFFFFF00
07F000FF00
07E0007F00
07C0001F00
0000000000
0000000000
003FFFE000
007FFFF000
007FFFF000
00FFFFF800
00FFFFF800
00FFFFF800
00FFFFF800
00FFFFFC00
01FFFFFC00
01FFFFFC00
01FFFFFC00
01FE03FC00
01FE03FE00
03FE03FE00
03FE03FE00
03FE03FE00
03FE03FE00
03FE03FF00
07FC01FF00
07FC01FF00
07FC01FF00
07FC01FF00
07FC01FF80
0FFC01FF80
0FF800FF80
0FF800FF80
0FF800FF80
0FF800FFC0
1FF800FFC0
1FFC01FFC0
1FFFFFFFC0
1FFFFFFFC0
1FFFFFFFE0
3FFFFFFFE0
3FFFFFFFE0
3FFFFFFFE0
3FF7FF7FE0
3FF3FE7FF0
7FE0003FF0
7FE0003FF0
7FE0003FF0
7FE0003FF0
7FE0003FF8
FFE0003FF8
FFC0001FF8
FFC0001FF8
FFC0001FF8
ENDCHAR
STARTCHAR 1EA8
ENCODING 7848
SWIDTH 585 0
DWIDTH 39 0
BBX 37 71 1 0
BITMAP
0003FE0000
0007FF0000
0007FF8000
000FFF8000
000F8F0000
000F1F0000
00003E0000
00007C0000
00007C0000
0000780000
0000780000
0000000000
0000000000
0000000000
007FFFF000
00FFFFF800
01FFFFFC00
03FFFFFE00
07FFFFFF00
07F000FF00
07E0007F00
07C0001F00
0000000000
0000000000
003FFFE000
007FFFF000
007FFFF000
00FFFFF800
00FFFFF800
00FFFFF800
00FFFFF800
00FFFFFC00
01FFFFFC00
01FFFFFC00
01FFFFFC00
01FE03FC00
01FE03FE00
03FE03FE00
03FE03FE00
03FE03FE00
03FE03FE00
03FE03FF00
07FC01FF00
07FC01FF00
07FC01FF00
07FC01FF00
07FC01FF80
0FFC01FF80
0FF800FF80
0FF800FF80
0FF800FF80
0FF800FFC0
1FF800FFC0
1FFC01FFC0
1FFFFFFFC0
1FFFFFFFC0
1FFFFFFFE0
3FFFFFFFE0
3FFFFFFFE0
3FFFFFFFE0
3FF7FF7FE0
3FF3FE7FF0
7FE0003FF0
7FE0003FF0
7FE0003FF0
7FE0003FF0
7FE0003FF8
FFE0003FF8
FFC0001FF8
FFC0001FF8
FFC0001FF8
ENDCHAR
STARTCHAR 1EA9
ENCODING 7849
SWIDTH 585 0
DWIDTH 39 0
BBX 37 71 1 0
BITMAP
0003FE0000
0007FF0000
0007FF8000
000FFF8000
000F8F0000
000F1F0000
00003E0000
00007C0000
00007C0000
0000780000
0000780000
0000000000
0000000000
0000000000
007FFFF000
00FFFFF800
01FFFFFC00
03FFFFFE00
07FFFFFF00
07F000FF00
07E0007F00
07C0001F00
0000000000
0000000000
003FFFE000
007FFFF000
007FFFF000
00FFFFF800
00FFFFF800
00FFFFF800
00FFFFF800
00FFFFFC00
01FFFFFC00
01FFFFFC00
01FFFFFC00
01FE03FC00
01FE03FE00
03FE03FE00
03FE03FE00
03FE03FE00
03FE03FE00
03FE03FF00
07FC01FF00
07FC01FF00
07FC01FF00
07FC01FF00
07FC01FF80
0FFC01FF80
0FF800FF80
0FF800FF80
0FF800FF80
0FF800FFC0
1FF800FFC0
1FFC01FFC0
1FFFFFFFC0
1FFFFFFFC0
1FFFFFFFE0
3FFFFFFFE0
3FFFFFFFE0
3FFFFFFFE0
3FF7FF7FE0
3FF3FE7FF0
7FE0003FF0
7FE0003FF0
7FE0003FF0
7FE0003FF0
7FE0003FF8
FFE0003FF8
FFC0001FF8
FFC0001FF8
FFC0001FF8
ENDCHAR
STARTCHAR 1EAA
ENCODING 7850
SWIDTH 585 0
DWIDTH 39 0
BBX 37 69 1 0
BITMAP
000F000000
003FE00000
00FFFC0700
03FFFF9F00
07FFFFFF00
07F8FFFF00
07E01FFF00
078007F800
070000E000
0000000000
0000000000
0000000000
007FFFF000
00FFFFF800
01FFFFFC00
03FFFFFE00
07FFFFFF00
07F000FF00
07E0007F00
07C0001F00
0000000000
0000000000
003FFFE000
007FFFF000
007FFFF000
00FFFFF800
00FFFFF800
00FFFFF800
00FFFFF800
00FFFFFC00
01FFFFFC00
01FFFFFC00
01FFFFFC00
01FE03FC00
01FE03FE00
03FE03FE00
03FE03FE00
03FE03FE00
03FE03FE00
03FE03FF00
07FC01FF00
07FC01FF00
07FC01FF00
07FC01FF00
07FC01FF80
0FFC01FF80
0FF800FF80
0FF800FF80
0FF800FF80
0FF800FFC0
1FF800FFC0
1FFC01FFC0
1FFFFFFFC0
1FFFFFFFC0
1FFFFFFFE0
3FFFFFFFE0
3FFFFFFFE0
3FFFFFFFE0
3FF7FF7FE0
3FF3FE7FF0
7FE0003FF0
7FE0003FF0
7FE0003FF0
7FE0003FF0
7FE0003FF8
FFE0003FF8
FFC0001FF8
FFC0001FF8
FFC0001FF8
ENDCHAR
STARTCHAR 1EAB
ENCODING 7851
SWIDTH 585 0
DWIDTH 39 0
BBX 37 69 1 0
BITMAP
000F000000
003FE00000
00FFFC0700
03FFFF9F00
07FFFFFF00
07F8FFFF00
07E01FFF00
078007F800
070000E000
0000000000
0000000000
0000000000
007FFFF000
00FFFFF800
01FFFFFC00
03FFFFFE00
07FFFFFF00
07F000FF00
07E0007F00
07C0001F00
0000000000
0000000000
003FFFE000
007FFFF000
007FFFF000
00FFFFF800
00FFFFF800
00FFFFF800
00FFFFF800
00FFFFFC00
01FFFFFC00
01FFFFFC00
01FFFFFC00
01FE03FC00
01FE03FE00
03FE03FE00
03FE03FE00
03FE03FE00
03FE03FE00
03FE03FF00
07FC01FF00
07FC01FF00
07FC01FF00
07FC01FF00
07FC01FF80
0FFC01FF80
0FF800FF80
0FF800FF80
0FF800FF80
0FF800FFC0
1FF800FFC0
1FFC01FFC0
1FFFFFFFC0
1FFFFFFFC0
1FFFFFFFE0
3FFFFFFFE0
3FFFFFFFE0
3FFFFFFFE0
3FF7FF7FE0
3FF3FE7FF0
7FE0003FF0
7FE0003FF0
7FE0003FF0
7FE0003FF0
7FE0003FF8
FFE0003FF8
FFC0001FF8
FFC0001FF8
FFC0001FF8
ENDCHAR
STARTCHAR 1EAC
ENCODING 7852
SWIDTH 585 0
DWIDTH 39 0
BBX 37 64 1 -7
BITMAP
007FFFF000
00FFFFF800
01FFFFFC00
03FFFFFE00
07FFFFFF00
07F000FF00
07E0007F00
07C0001F00
0000000000
0000000000
003FFFE000
007FFFF000
007FFFF000
00FFFFF800
00FFFFF800
00FFFFF800
00FFFFF800
00FFFFFC00
01FFFFFC00
01FFFFFC00
01FFFFFC00
01FE03FC00
01FE03FE00
03FE03FE00
03FE03FE00
03FE03FE00
03FE03FE00
03FE03FF00
07FC01FF00
07FC01FF00
07FC01FF00
07FC01FF00
07FC01FF80
0FFC01FF80
0FF800FF80
0FF800FF80
0FF800FF80
0FF800FFC0
1FF800FFC0
1FFC01FFC0
1FFFFFFFC0
1FFFFFFFC0
1FFFFFFFE0
3FFFFFFFE0
3FFFFFFFE0
3FFFFFFFE0
3FF7FF7FE0
3FF3FE7FF0
7FE0003FF0
7FE0003FF0
7FE0003FF0
7FE0003FF0
7FE0003FF8
FFE0003FF8
FFC0001FF8
FFC0001FF8
FFC0001FF8
0000000000
0000000000
0000000000
0003FE0000
0003FE0000
0003FE0000
0003FE0000
ENDCHAR
STARTCHAR 1EAD
ENCODING 7853
SWIDTH 585 0
DWIDTH 39 0
BBX 37 64 1 -7
BITMAP
007FFFF000
00FFFFF800
01FFFFFC00
03FFFFFE00
07FFFFFF00
07F000FF00
07E0007F00
07C0001F00
0000000000
0000000000
003FFFE000
007FFFF000
007FFFF000
00FFFFF800
00FFFFF800
00FFFFF800
00FFFFF800
00FFFFFC00
01FFFFFC00
01FFFFFC00
01FFFFFC00
01FE03FC00
01FE03FE00
03FE03FE00
03FE03FE00
03FE03FE00
03FE03FE00
03FE03FF00
07FC01FF00
07FC01FF00
07FC01FF00
07FC01FF00
07FC01FF80
0FFC01FF80
0FF800FF80
0FF800FF80
0FF800FF80
0FF800FFC0
1FF800FFC0
1FFC01FFC0
1FFFFFFFC0
1FFFFFFFC0
1FFFFFFFE0
3FFFFFFFE0
3FFFFFFFE0
3FFFFFFFE0
3FF7FF7FE0
3FF3FE7FF0
7FE0003FF0
7FE0003FF0
7FE0003FF0
7FE0003FF0
7FE0003FF8
FFE0003FF8
FFC0001FF8
FFC0001FF8
FFC0001FF8
0000000000
0000000000
0000000000
0003FE0000
0003FE0000
0003FE0000
0003FE0000
ENDCHAR
STARTCHAR 1EAE
ENCODING 7854
SWIDTH 585 0
DWIDTH 39 0
BBX 37 67 1 0
BITMAP
000003FC00
003FFFFC00
01FFFFFC00
03FFFFE000
03FFFC0000
03FFC00000
03F8000000
0000000000
0000000000
0000000000
07E0003F00
07F0007F00
07F801FF00
07FFFFFE00
03FFFFFC00
01FFFFF800
00FFFFF000
007FFFE000
0000000000
0000000000
003FFFE000
007FFFF000
007FFFF000
00FFFFF800
00FFFFF800
00FFFFF800
00FFFFF800
00FFFFFC00
01FFFFFC00
01FFFFFC00
01FFFFFC00
01FE03FC00
01FE03FE00
03FE03FE00
03FE03FE00
03FE03FE00
03FE03FE00
03FE03FF00
07FC01FF00
07FC01FF00
07FC01FF00
07FC01FF00
07FC01FF80
0FFC01FF80
0FF800FF80
0FF800FF80
0FF800FF80
0FF800FFC0
1FF800FFC0
1FFC01FFC0
1FFFFFFFC0
1FFFFFFFC0
1FFFFFFFE0
3FFFFFFFE0
3FFFFFFFE0
3FFFFFFFE0
3FF7FF7FE0
3FF3FE7FF0
7FE0003FF0
7FE0003FF0
7FE0003FF0
7FE0003FF0
7FE0003FF8
FFE0003FF8
FFC0001FF8
FFC0001FF8
FFC0001FF8
ENDCHAR
STARTCHAR 1EAF
ENCODING 7855
SWIDTH 585 0
DWIDTH 39 0
BBX 37 67 1 0
BITMAP
000003FC00
003FFFFC00
01FFFFFC00
03FFFFE000
03FFFC0000
03FFC00000
03F8000000
0000000000
0000000000
0000000000
07E0003F00
07F0007F00
07F801FF00
07FFFFFE00
03FFFFFC00
01FFFFF800
00FFFFF000
007FFFE000
0000000000
0000000000
003FFFE000
007FFFF000
007FFFF000
00FFFFF800
00FFFFF800
00FFFFF800
00FFFFF800
00FFFFFC00
01FFFFFC00
01FFFFFC00
01FFFFFC00
01FE03FC00
01FE03FE00
03FE03FE00
03FE03FE00
03FE03FE00
03FE03FE00
03FE03FF00
07FC01FF00
07FC01FF00
07FC01FF00
07FC01FF00
07FC01FF80
0FFC01FF80
0FF800FF80
0FF800FF80
0FF800FF80
0FF800FFC0
1FF800FFC0
1FFC01FFC0
1FFFFFFFC0
1FFFFFFFC0
1FFFFFFFE0
3FFFFFFFE0
3FFFFFFFE0
3FFFFFFFE0
3FF7FF7FE0
3FF3FE7FF0
7FE0003FF0
7FE0003FF0
7FE0003FF0
7FE0003FF0
7FE0003FF8
FFE0003FF8
FFC0001FF8
FFC0001FF8
FFC0001FF8
ENDCHAR
STARTCHAR 1EB0
ENCODING 7856
SWIDTH 585 0
DWIDTH 39 0
BBX 37 67 1 0
BITMAP
03F8000000
03FFC00000
03FFFE0000
03FFFFF000
01FFFFFC00
003FFFFC00
000001FC00
0000000000
0000000000
0000000000
07E0003F00
07F0007F00
07F801FF00
07FFFFFE00
03FFFFFC00
01FFFFF800
00FFFFF000
007FFFE000
0000000000
0000000000
003FFFE000
007FFFF000
007FFFF000
00FFFFF800
00FFFFF800
00FFFFF800
00FFFFF800
00FFFFFC00
01FFFFFC00
01FFFFFC00
01FFFFFC00
01FE03FC00
01FE03FE00
03FE03FE00
03FE03FE00
03FE03FE00
03FE03FE00
03FE03FF00
07FC01FF00
07FC01FF00
07FC01FF00
07FC01FF00
07FC01FF80
0FFC01FF80
0FF800FF80
0FF800FF80
0FF800FF80
0FF800FFC0
1FF800FFC0
1FFC01FFC0
1FFFFFFFC0
1FFFFFFFC0
1FFFFFFFE0
3FFFFFFFE0
3FFFFFFFE0
3FFFFFFFE0
3FF7FF7FE0
3FF3FE7FF0
7FE0003FF0
7FE0003FF0
7FE0003FF0
7FE0003FF0
7FE0003FF8
FFE0003FF8
FFC0001FF8
FFC0001FF8
FFC0001FF8
ENDCHAR
STARTCHAR 1EB1
ENCODING 7857
SWIDTH 585 0
DWIDTH 39 0
BBX 37 67 1 0
BITMAP
03F8000000
03FFC00000
03FFFE0000
03FFFFF000
01FFFFFC00
003FFFFC00
000001FC00
0000000000
0000000000
0000000000
07E0003F00
07F0007F00
07F801FF00
07FFFFFE00
03FFFFFC00
01FFFFF800
00FFFFF000
007FFFE000
0000000000
0000000000
003FFFE000
007FFFF000
007FFFF000
00FFFFF800
00FFFFF800
00FFFFF800
00FFFFF800
00FFFFFC00
01FFFFFC00
01FFFFFC00
01FFFFFC00
01FE03FC00
01FE03FE00
03FE03FE00
03FE03FE00
03FE03FE00
03FE03FE00
03FE03FF00
07FC01FF00
07FC01FF00
07FC01FF00
07FC01FF00
07FC01FF80
0FFC01FF80
0FF800FF80
0FF800FF80
0FF800FF80
0FF800FFC0
1FF800FFC0
1FFC01FFC0
1FFFFFFFC0
1FFFFFFFC0
1FFFFFFFE0
3FFFFFFFE0
3FFFFFFFE0
3FFFFFFFE0
3FF7FF7FE0
3FF3FE7FF0
7FE0003FF0
7FE0003FF0
7FE0003FF0
7FE0003FF0
7FE0003FF8
FFE0003FF8
FFC0001FF8
FFC0001FF8
FFC0001FF8
ENDCHAR
STARTCHAR 1EB2
ENCODING 7858
SWIDTH 585 0
DWIDTH 39 0
BBX 37 68 1 0
BITMAP
0003FF0000
0007FF0000
000FFF8000
000FFF8000
000F0F0000
00001E0000
00003E0000
00007C0000
0000780000
0000780000
0000780000
07E0003F00
07F0007F00
07F801FF00
07FFFFFE00
03FFFFFC00
01FFFFF800
00FFFFF000
007FFFE000
0000000000
0000000000
003FFFE000
007FFFF000
007FFFF000
00FFFFF800
00FFFFF800
00FFFFF800
00FFFFF800
00FFFFFC00
01FFFFFC00
01FFFFFC00
01FFFFFC00
01FE03FC00
01FE03FE00
03FE03FE00
03FE03FE00
03FE03FE00
03FE03FE00
03FE03FF00
07FC01FF00
07FC01FF00
07FC01FF00
07FC01FF00
07FC01FF80
0FFC01FF80
0FF800FF80
0FF800FF80
0FF800FF80
0FF800FFC0
1FF800FFC0
1FFC01FFC0
1FFFFFFFC0
1FFFFFFFC0
1FFFFFFFE0
3FFFFFFFE0
3FFFFFFFE0
3FFFFFFFE0
3FF7FF7FE0
3FF3FE7FF0
7FE0003FF0
7FE0003FF0
7FE0003FF0
7FE0003FF0
7FE0003FF8
FFE0003FF8
FFC0001FF8
FFC0001FF8
FFC0001FF8
ENDCHAR
STARTCHAR 1EB3
ENCODING 7859
SWIDTH 585 0
DWIDTH 39 0
BBX 37 68 1 0
BITMAP
0003FF0000
0007FF0000
000FFF8000
000FFF8000
000F0F0000
00001E0000
00003E0000
00007C0000
0000780000
0000780000
0000780000
07E0003F00
07F0007F00
07F801FF00
07FFFFFE00
03FFFFFC00
01FFFFF800
00FFFFF000
007FFFE000
0000000000
0000000000
003FFFE000
007FFFF000
007FFFF000
00FFFFF800
00FFFFF800
00FFFFF800
00FFFFF800
00FFFFFC00
01FFFFFC00
01FFFFFC00
01FFFFFC00
01FE03FC00
01FE03FE00
03FE03FE00
03FE03FE00
03FE03FE00
03FE03FE00
03FE03FF00
07FC01FF00
07FC01FF00
07FC01FF00
07FC01FF00
07FC01FF80
0FFC01FF80
0FF800FF80
0FF800FF80
0FF800FF80
0FF800FFC0
1FF800FFC0
1FFC01FFC0
1FFFFFFFC0
1FFFFFFFC0
1FFFFFFFE0
3FFFFFFFE0
3FFFFFFFE0
3FFFFFFFE0
3FF7FF7FE0
3FF3FE7FF0
7FE0003FF0
7FE0003FF0
7FE0003FF0
7FE0003FF0
7FE0003FF8
FFE0003FF8
FFC0001FF8
FFC0001FF8
FFC0001FF8
ENDCHAR
STARTCHAR 1EB4
ENCODING 7860
SWIDTH 585 0
DWIDTH 39 0
BBX 37 69 1 0
BITMAP
000F000000
003FE00000
00FFFC0700
03FFFF9F00
07FFFFFF00
07F8FFFF00
07E01FFF00
078007F800
070000E000
0000000000
0000000000
0000000000
07E0003F00
07F0007F00
07F801FF00
07FFFFFE00
03FFFFFC00
01FFFFF800
00FFFFF000
007FFFE000
0000000000
0000000000
003FFFE000
007FFFF000
007FFFF000
00FFFFF800
00FFFFF800
00FFFFF800
00FFFFF800
00FFFFFC00
01FFFFFC00
01FFFFFC00
01FFFFFC00
01FE03FC00
01FE03FE00
03FE03FE00
03FE03FE00
03FE03FE00
03FE03FE00
03FE03FF00
07FC01FF00
07FC01FF00
07FC01FF00
07FC01FF00
07FC01FF80
0FFC01FF80
0FF800FF80
0FF800FF80
0FF800FF80
0FF800FFC0
1FF800FFC0
1FFC01FFC0
1FFFFFFFC0
1FFFFFFFC0
1FFFFFFFE0
3FFFFFFFE0
3FFFFFFFE0
3FFFFFFFE0
3FF7FF7FE0
3FF3FE7FF0
7FE0003FF0
7FE0003FF0
7FE0003FF0
7FE0003FF0
7FE0003FF8
FFE0003FF8
FFC0001FF8
FFC0001FF8
FFC0001FF8
ENDCHAR
STARTCHAR 1EB5
ENCODING 7861
SWIDTH 585 0
DWIDTH 39 0
BBX 37 69 1 0
BITMAP
000F000000
003FE00000
00FFFC0700
03FFFF9F00
07FFFFFF00
07F8FFFF00
07E01FFF00
078007F800
070000E000
0000000000
0000000000
0000000000
07E0003F00
07F0007F00
07F801FF00
07FFFFFE00
03FFFFFC00
01FFFFF800
00FFFFF000
007FFFE000
0000000000
0000000000
003FFFE000
007FFFF000
007FFFF000
00FFFFF800
00FFFFF800
00FFFFF800
00FFFFF800
00FFFFFC00
01FFFFFC00
01FFFFFC00
01FFFFFC00
01FE03FC00
01FE03FE00
03FE03FE00
03FE03FE00
03FE03FE00
03FE03FE00
03FE03FF00
07FC01FF00
07FC01FF00
07FC01FF00
07FC01FF00
07FC01FF80
0FFC01FF80
0FF800FF80
0FF800FF80
0FF800FF80
0FF800FFC0
1FF800FFC0
1FFC01FFC0
1FFFFFFFC0
1FFFFFFFC0
1FFFFFFFE0
3FFFFFFFE0
3FFFFFFFE0
3FFFFFFFE0
3FF7FF7FE0
3FF3FE7FF0
7FE0003FF0
7FE0003FF0
7FE0003FF0
7FE0003FF0
7FE0003FF8
FFE0003FF8
FFC0001FF8
FFC0001FF8
FFC0001FF8
ENDCHAR
STARTCHAR 1EB6
ENCODING 7862
SWIDTH 585 0
DWIDTH 39 0
BBX 37 64 1 -7
BITMAP
07E0003F00
07F0007F00
07F801FF00
07FFFFFE00
03FFFFFC00
01FFFFF800
00FFFFF000
007FFFE000
0000000000
0000000000
003FFFE000
007FFFF000
007FFFF000
00FFFFF800
00FFFFF800
00FFFFF800
00FFFFF800
00FFFFFC00
01FFFFFC00
01FFFFFC00
01FFFFFC00
01FE03FC00
01FE03FE00
03FE03FE00
03FE03FE00
03FE03FE00
03FE03FE00
03FE03FF00
07FC01FF00
07FC01FF00
07FC01FF00
07FC01FF00
07FC01FF80
0FFC01FF80
0FF800FF80
0FF800FF80
0FF800FF80
0FF800FFC0
1FF800FFC0
1FFC01FFC0
1FFFFFFFC0
1FFFFFFFC0
1FFFFFFFE0
3FFFFFFFE0
3FFFFFFFE0
3FFFFFFFE0
3FF7FF7FE0
3FF3FE7FF0
7FE0003FF0
7FE0003FF0
7FE0003FF0
7FE0003FF0
7FE0003FF8
FFE0003FF8
FFC0001FF8
FFC0001FF8
FFC0001FF8
0000000000
0000000000
0000000000
0003FE0000
0003FE0000
0003FE0000
0003FE0000
ENDCHAR
STARTCHAR 1EB7
ENCODING 7863
SWIDTH 585 0
DWIDTH 39 0
BBX 37 64 1 -7
BITMAP
07E0003F00
07F0007F00
07F801FF00
07FFFFFE00
03FFFFFC00
01FFFFF800
00FFFFF000
007FFFE000
0000000000
0000000000
003FFFE000
007FFFF000
007FFFF000
00FFFFF800
00FFFFF800
00FFFFF800
00FFFFF800
00FFFFFC00
01FFFFFC00
01FFFFFC00
01FFFFFC00
01FE03FC00
01FE03FE00
03FE03FE00
03FE03FE00
03FE03FE00
03FE03FE00
03FE03FF00
07FC01FF00
07FC01FF00
07FC01FF00
07FC01FF00
07FC01FF80
0FFC01FF80
0FF800FF80
0FF800FF80
0FF800FF80
0FF800FFC0
1FF800FFC0
1FFC01FFC0
1FFFFFFFC0
1FFFFFFFC0
1FFFFFFFE0
3FFFFFFFE0
3FFFFFFFE0
3FFFFFFFE0
3FF7FF7FE0
3FF3FE7FF0
7FE0003FF0
7FE0003FF0
7FE0003FF0
7FE0003FF0
7FE0003FF8
FFE0003FF8
FFC0001FF8
FFC0001FF8
FFC0001FF8
0000000000
0000000000
0000000000
0003FE0000
0003FE0000
0003FE0000
0003FE0000
ENDCHAR
STARTCHAR 1EB8
ENCODING 7864
SWIDTH 540 0
DWIDTH 36 0
BBX 31 54 3 -7
BITMAP
FFFFFF80
FFFFFFC0
FFFFFFE0
FFFFFFF0
FFFFFFF0
FFFFFFF8
FFFFFFFC
FFFFFFFC
FFFFFFFE
FFFFFFFE
FFFFFFFE
FFC007FE
FFC003FE
FFC00000
FFC00000
FFC00000
FFC00000
FFC00000
FFC00000
FFC00000
FFFFFE00
FFFFFE00
FFFFFE00
FFFFFE00
FFFFFE00
FFFFFE00
FFFFFE00
FFFFFE00
FFC00000
FFC00000
FFC00000
FFC00000
FFC00000
FFC00000
FFC003FE
FFC003FE
FFC007FE
FFFFFFFE
FFFFFFFE
FFFFFFFE
FFFFFFFC
FFFFFFF8
FFFFFFF0
FFFFFFF0
FFFFFFE0
FFFFFFC0
FFFFFFC0
00000000
00000000
00000000
00FFF000
00FFF000
00FFF000
00FFF000
ENDCHAR
STARTCHAR 1EB9
ENCODING 7865
SWIDTH 540 0
DWIDTH 36 0
BBX 31 54 3 -7
BITMAP
FFFFFF80
FFFFFFC0
FFFFFFE0
FFFFFFF0
FFFFFFF0
FFFFFFF8
FFFFFFFC
FFFFFFFC
FFFFFFFE
FFFFFFFE
FFFFFFFE
FFC007FE
FFC003FE
FFC00000
FFC00000
FFC00000
FFC00000
FFC00000
FFC00000
FFC00000
FFFFFE00
FFFFFE00
FFFFFE00
FFFFFE00
FFFFFE00
FFFFFE00
FFFFFE00
FFFFFE00
FFC00000
FFC00000
FFC00000
FFC00000
FFC00000
FFC00000
FFC003FE
FFC003FE
FFC007FE
FFFFFFFE
FFFFFFFE
FFFFFFFE
FFFFFFFC
FFFFFFF8
FFFFFFF0
FFFFFFF0
FFFFFFE0
FFFFFFC0
FFFFFFC0
00000000
00000000
00000000
00FFF000
00FFF000
00FFF000
00FFF000
ENDCHAR
STARTCHAR 1EBA
ENCODING 7866
SWIDTH 540 0
DWIDTH 36 0
BBX 31 60 3 0
BITMAP
007FE000
00FFE000
00FFF000
01FFF000
01F1E000
01E3E000
0007C000
00078000
00078000
00078000
00078000
00000000
00000000
FFFFFF80
FFFFFFC0
FFFFFFE0
FFFFFFF0
FFFFFFF0
FFFFFFF8
FFFFFFFC
FFFFFFFC
FFFFFFFE
FFFFFFFE
FFFFFFFE
FFC007FE
FFC003FE
FFC00000
FFC00000
FFC00000
FFC00000
FFC00000
FFC00000
FFC00000
FFFFFE00
FFFFFE00
FFFFFE00
FFFFFE00
FFFFFE00
FFFFFE00
FFFFFE00
FFFFFE00
FFC00000
FFC00000
FFC00000
FFC00000
FFC00000
FFC00000
FFC003FE
FFC003FE
FFC007FE
FFFFFFFE
FFFFFFFE
FFFFFFFE
FFFFFFFC
FFFFFFF8
FFFFFFF0
FFFFFFF0
FFFFFFE0
FFFFFFC0
FFFFFFC0
ENDCHAR
STARTCHAR 1EBB
ENCODING 7867
SWIDTH 540 0
DWIDTH 36 0
BBX 31 60 3 0
BITMAP
007FE000
00FFE000
00FFF000
01FFF000
01F1E000
01E3E000
0007C000
00078000
00078000
00078000
00078000
00000000
00000000
FFFFFF80
FFFFFFC0
FFFFFFE0
FFFFFFF0
FFFFFFF0
FFFFFFF8
FFFFFFFC
FFFFFFFC
FFFFFFFE
FFFFFFFE
FFFFFFFE
FFC007FE
FFC003FE
FFC00000
FFC00000
FFC00000
FFC00000
FFC00000
FFC00000
FFC00000
FFFFFE00
FFFFFE00
FFFFFE00
FFFFFE00
FFFFFE00
FFFFFE00
FFFFFE00
FFFFFE00
FFC00000
FFC00000
FFC00000
FFC00000
FFC00000
FFC00000
FFC003FE
FFC003FE
FFC007FE
FFFFFFFE
FFFFFFFE
FFFFFFFE
FFFFFFFC
FFFFFFF8
FFFFFFF0
FFFFFFF0
FFFFFFE0
FFFFFFC0
FFFFFFC0
ENDCHAR
STARTCHAR 1EBC
ENCODING 7868
SWIDTH 540 0
DWIDTH 36 0
BBX 31 58 3 0
BITMAP
01E00000
07FC0060
1FFF81E0
7FFFF7E0
FFFFFFE0
FE1FFFE0
FC03FFC0
F0007F00
C0000800
00000000
00000000
FFFFFF80
FFFFFFC0
FFFFFFE0
FFFFFFF0
FFFFFFF0
FFFFFFF8
FFFFFFFC
FFFFFFFC
FFFFFFFE
FFFFFFFE
FFFFFFFE
FFC007FE
FFC003FE
FFC00000
FFC00000
FFC00000
FFC00000
FFC00000
FFC00000
FFC00000
FFFFFE00
FFFFFE00
FFFFFE00
FFFFFE00
FFFFFE00
FFFFFE00
FFFFFE00
FFFFFE00
FFC00000
FFC00000
FFC00000
FFC00000
FFC00000
FFC00000
FFC003FE
FFC003FE
FFC007FE
FFFFFFFE
FFFFFFFE
FFFFFFFE
FFFFFFFC
FFFFFFF8
FFFFFFF0
FFFFFFF0
FFFFFFE0
FFFFFFC0
FFFFFFC0
ENDCHAR
STARTCHAR 1EBD
ENCODING 7869
SWIDTH 540 0
DWIDTH 36 0
BBX 31 58 3 0
BITMAP
01E00000
07FC0060
1FFF81E0
7FFFF7E0
FFFFFFE0
FE1FFFE0
FC03FFC0
F0007F00
C0000800
00000000
00000000
FFFFFF80
FFFFFFC0
FFFFFFE0
FFFFFFF0
FFFFFFF0
FFFFFFF8
FFFFFFFC
FFFFFFFC
FFFFFFFE
FFFFFFFE
FFFFFFFE
FFC007FE
FFC003FE
FFC00000
FFC00000
FFC00000
FFC00000
FFC00000
FFC00000
FFC00000
FFFFFE00
FFFFFE00
FFFFFE00
FFFFFE00
FFFFFE00
FFFFFE00
FFFFFE00
FFFFFE00
FFC00000
FFC00000
FFC00000
FFC00000
FFC00000
FFC00000
FFC003FE
FFC003FE
FFC007FE
FFFFFFFE
FFFFFFFE
FFFFFFFE
FFFFFFFC
FFFFFFF8
FFFFFFF0
FFFFFFF0
FFFFFFE0
FFFFFFC0
FFFFFFC0
ENDCHAR
STARTCHAR 1EBE
ENCODING 7870
SWIDTH 540 0
DWIDTH 36 0
BBX 31 67 3 0
BITMAP
00001FE0
03FFFFE0
1FFFFFE0
1FFFFF00
1FFFE000
1FFC0000
1F800000
00000000
00000000
00000000
0FFFFE00
1FFFFF00
3FFFFF80
7FFFFFC0
FFFFFFE0
FE001FE0
FC0007E0
F80003E0
00000000
00000000
FFFFFF80
FFFFFFC0
FFFFFFE0
FFFFFFF0
FFFFFFF0
FFFFFFF8
FFFFFFFC
FFFFFFFC
FFFFFFFE
FFFFFFFE
FFFFFFFE
FFC007FE
FFC003FE
FFC00000
FFC00000
FFC00000
FFC00000
FFC00000
FFC00000
FFC00000
FFFFFE00
FFFFFE00
FFFFFE00
FFFFFE00
FFFFFE00
FFFFFE00
FFFFFE00
FFFFFE00
FFC00000
FFC00000
FFC00000
FFC00000
FFC00000
FFC00000
FFC003FE
FFC003FE
FFC007FE
FFFFFFFE
FFFFFFFE
FFFFFFFE
FFFFFFFC
FFFFFFF8
FFFFFFF0
FFFFFFF0
FFFFFFE0
FFFFFFC0
FFFFFFC0
ENDCHAR
ENDFONT
